<?xml version="1.0" standalone="no"?>
<!DOCTYPE svg PUBLIC "-//W3C//DTD SVG 1.1//EN" "http://www.w3.org/Graphics/SVG/1.1/DTD/svg11.dtd" >
<svg>
<metadata>
Created by FontForge 20090914 at Wed Jun 14 10:57:36 2017
 By www-data
&#194;&#169; 1989, 1990, 1991, 1992, 1993, 1996, 1997, 1998, 2001 Adobe Systems Incorporated. All rights reserved.
</metadata>
<defs>
<font id="CourierStd-Bold" horiz-adv-x="1228" >
  <font-face 
    font-family="Courier Std"
    font-weight="700"
    font-stretch="normal"
    units-per-em="2048"
    panose-1="2 7 6 9 2 2 5 2 4 4"
    ascent="1284"
    descent="-764"
    x-height="889"
    cap-height="1171"
    bbox="-180 -512 1427 1749"
    underline-thickness="106"
    underline-position="-352"
    unicode-range="U+0020-U+FB02"
  />
<missing-glyph 
d="M102 0v1434h1024v-1434h-1024zM614 809l349 522h-697zM676 717l348 -522v1044zM266 102h697l-349 523zM205 1239v-1044l348 522z" />
    <glyph glyph-name=".notdef" 
d="M102 0v1434h1024v-1434h-1024zM614 809l349 522h-697zM676 717l348 -522v1044zM266 102h697l-349 523zM205 1239v-1044l348 522z" />
    <glyph glyph-name="space" unicode=" " 
 />
    <glyph glyph-name="exclam" unicode="!" 
d="M748 1171l-37 -798h-185l-34 798h256zM805 133c0 -46 -17.665 -83.834 -52.998 -113.501s-79 -44.5 -131 -44.5c-44.667 0 -87.334 13.333 -128.001 40s-61 65.334 -61 116.001c0 40 16.667 76.333 50 109s78.666 49 135.999 49c55.333 0 100.333 -15.5 135 -46.5
s52 -67.5 52 -109.5z" />
    <glyph glyph-name="quotedbl" unicode="&#x22;" 
d="M946 1171l-28 -614h-222l-26 614h276zM584 1171l-31 -614h-223l-25 614h279z" />
    <glyph glyph-name="numbersign" unicode="#" 
d="M1085 313h-211l-26 -419h-178l26 419h-200l-27 -419h-170l25 419h-183v189h195l12 215h-207v188h217l27 424h172l-25 -424h201l25 424h178l-25 -424h174v-188h-186l-12 -215h198v-189zM721 717h-201l-12 -215h201z" />
    <glyph glyph-name="dollar" unicode="$" 
d="M1047 342c0 -34 -4.83691 -65.665 -14.5039 -94.998s-21.334 -53.666 -35.001 -72.999s-31.667 -37.333 -54 -54s-41.833 -29.5 -58.5 -38.5s-37.334 -17.333 -62.001 -25s-42.167 -12.667 -52.5 -15s-24.166 -5.16602 -41.499 -8.49902v-287h-190v289
c-41.333 0 -84.333 8 -129 24v-59h-189v360h189v-96c64 -27.333 132.667 -41 206 -41c14 0 29.167 0.5 45.5 1.5s37 3.83301 62 8.5s47 10.834 66 18.501s35.5 19 49.5 34s21 32.5 21 52.5c0 26 -8 47 -24 63c-12.667 11.333 -29.167 21.666 -49.5 30.999s-37 16 -50 20
s-34.167 9.66699 -63.5 17s-47.666 12 -54.999 14c-4 1.33301 -9.66699 3 -17 5c-57.333 16.667 -99.5 29.5 -126.5 38.5s-59.667 22.667 -98 41s-65.833 37 -82.5 56s-31.667 43.833 -45 74.5s-20 66.334 -20 107.001c0 43.333 6.66699 82.666 20 117.999
s30.333 64.166 51 86.499s45.167 41.666 73.5 57.999s55.833 28.5 82.5 36.5s54.334 14 83.001 18v201h190v-203c30 -5.33301 62.667 -17 98 -35v62h187v-359h-187v99c-68 31.333 -135.333 47 -202 47c-18.667 0 -38.167 -1.66699 -58.5 -5s-42.5 -8.83301 -66.5 -16.5
s-43.667 -20.334 -59 -38.001s-23 -38.834 -23 -63.501c0 -33.333 13.667 -60 41 -80c10.667 -8 21.834 -15.167 33.501 -21.5s24.834 -12 39.501 -17s26.834 -9 36.501 -12s23.334 -6.83301 41.001 -11.5l37.5 -10c115.333 -32.667 194.666 -59.667 237.999 -81
c93.333 -46 146.333 -110 159 -192c2 -14 3 -28.667 3 -44z" />
    <glyph glyph-name="percent" unicode="%" 
d="M713 973c0 -82.667 -29.833 -151.835 -89.5 -207.502s-132.167 -83.5 -217.5 -83.5c-89.333 0.666992 -162.333 29.334 -219 86.001s-85 124.334 -85 203.001s29.5 147.167 88.5 205.5s132.167 87.5 219.5 87.5c88 0 160.5 -29 217.5 -87s85.5 -126 85.5 -204z
M565 972.999c0 39.333 -14.668 73 -44.001 101s-67.666 42 -114.999 42c-48 0 -86 -14 -114 -42s-42 -61.667 -42 -101c0 -40 14 -74 42 -102s65 -42 111 -42c44 0 82 12.5 114 37.5s48 60.5 48 106.5zM1110 222.999c0 -83.333 -29.666 -152.669 -88.999 -208.002
s-131.333 -83 -216 -83c-89.333 0.666992 -162.5 29.334 -219.5 86.001s-85.5 124.334 -85.5 203.001s29.667 147.167 89 205.5s132.666 87.5 219.999 87.5c88 0 160.167 -29 216.5 -87s84.5 -126 84.5 -204zM963 222.996c0 39.333 -14.501 73.166 -43.501 101.499
s-67.167 42.5 -114.5 42.5c-48 0 -86.333 -14.167 -115 -42.5s-43 -62.166 -43 -101.499s14.333 -73 43 -101s66.334 -42 113.001 -42c44 0 81.667 12.333 113 37s47 60 47 106zM1087 724.996l-864 -373l-61 127l866 377z" />
    <glyph glyph-name="ampersand" unicode="&#x26;" 
d="M1128 0l-340 -0.00195312l-57 82c-2 -1.33301 -9 -7 -21 -17s-20.833 -17 -26.5 -21s-15.167 -10.333 -28.5 -19s-25.833 -15.334 -37.5 -20.001s-25.5 -9.66699 -41.5 -15s-33.5 -9.16602 -52.5 -11.499s-39.167 -3.5 -60.5 -3.5c-56 0 -106.167 10.167 -150.5 30.5
s-79.166 46.833 -104.499 79.5s-44.5 67.334 -57.5 104.001s-19.5 73.334 -19.5 110.001c0 70 20 134.167 60 192.5s91.667 102.833 155 133.5l-2 4c-1.33301 2.66699 -10.833 16.834 -28.5 42.501s-32.334 52.667 -44.001 81s-17.5 57.5 -17.5 87.5
c0 77.333 28.167 140.666 84.5 189.999s128.5 74 216.5 74c57.333 0 114.5 -11.833 171.5 -35.5s109.167 -55.5 156.5 -95.5l-109 -139c-78 54 -153 81 -225 81c-28 0 -52.833 -7.5 -74.5 -22.5s-32.5 -33.833 -32.5 -56.5c0 -28.667 34.333 -91.667 103 -189l178 -246
c14 24 29 59.333 45 106s27 83.667 33 111h289v-188h-162c-5.33301 -12 -13.5 -32.667 -24.5 -62s-21.5 -54.833 -31.5 -76.5s-20.667 -41.167 -32 -58.5l32 -45h256v-188zM623 237.998l-179 245.002c-16 -10 -29.5 -19.333 -40.5 -28s-23.5 -20.334 -37.5 -35.001
s-24.833 -31.334 -32.5 -50.001s-11.5 -39 -11.5 -61c0 -36.667 11.833 -70 35.5 -100s60.167 -45 109.5 -45c63.333 0 115.333 24.667 156 74z" />
    <glyph glyph-name="quotesingle" unicode="'" 
d="M752 1171l-25 -614h-227l-25 614h277z" />
    <glyph glyph-name="parenleft" unicode="(" 
d="M991 -176l-190.002 -0.000976562c-52 78.667 -96.5 157.667 -133.5 237s-64.167 151.333 -81.5 216s-29.5 119.834 -36.5 165.501s-10.5 86.5 -10.5 122.5c0 119.333 25 246 75 380s115 258 195 372h182c-14.667 -26 -59 -110 -133 -252
c-31.333 -61.333 -58.666 -138.833 -81.999 -232.5s-35 -182.167 -35 -265.5c0 -69.333 7.5 -139.333 22.5 -210s36.833 -140.167 65.5 -208.5s54.334 -124.5 77.001 -168.5s51 -96 85 -156z" />
    <glyph glyph-name="parenright" unicode=")" 
d="M692 575c0 -119.333 -25 -245.832 -75 -379.499s-115 -257.5 -195 -371.5h-182c14.667 26 59 110 133 252c31.333 61.333 58.5 138.5 81.5 231.5s34.5 181.5 34.5 265.5c0 69.333 -7.5 139.5 -22.5 210.5s-36.667 140.5 -65 208.5s-53.833 124.5 -76.5 169.5
s-51 96.833 -85 155.5h190c52 -78.667 96.5 -157.834 133.5 -237.501s64.167 -151.667 81.5 -216s29.5 -119.5 36.5 -165.5s10.5 -87 10.5 -123z" />
    <glyph glyph-name="asterisk" unicode="*" 
d="M1030 788l-256 -69l158 -215l-170 -125l-152 227l-153 -229l-170 125l159 217l-262 67l72 207l254 -100l-12 274h225l-12 -274l250 100z" />
    <glyph glyph-name="plus" unicode="+" 
d="M1059 356h-348v-350h-191v350h-348v191h348v350h191v-350h348v-191z" />
    <glyph glyph-name="comma" unicode="," 
d="M788 334l-249 -539h-226l179 539h296z" />
    <glyph glyph-name="hyphen" unicode="-" 
d="M942 389h-653v189h653v-189z" />
    <glyph glyph-name="period" unicode="." 
d="M809 143c0 -46 -18.167 -85.501 -54.5 -118.501s-80.833 -49.5 -133.5 -49.5c-34.667 0 -65.5 6 -92.5 18s-47.833 27.167 -62.5 45.5s-25.667 36.333 -33 54s-11 33.834 -11 48.501c0 45.333 18 85.333 54 120s82.667 52 140 52c59.333 0 106.333 -17.333 141 -52
s52 -74 52 -118z" />
    <glyph glyph-name="slash" unicode="/" 
d="M1083 1350l-774 -1622l-159 75l772 1622z" />
    <glyph glyph-name="zero" unicode="0" 
d="M1028 612c0 -21.333 -0.333984 -41.998 -1.00098 -61.998s-2.5 -46.333 -5.5 -79s-7.16699 -63.334 -12.5 -92.001s-13 -60.334 -23 -95.001s-21.833 -66 -35.5 -94s-31.167 -55.833 -52.5 -83.5s-45 -50.834 -71 -69.501s-57 -33.667 -93 -45s-75.333 -17 -118 -17
c-52.667 0 -100.5 8.83301 -143.5 26.5s-78.5 40.167 -106.5 67.5s-52.5 60.833 -73.5 100.5s-37 78.167 -48 115.5s-19.833 78 -26.5 122s-10.834 81 -12.501 111s-2.5 60.667 -2.5 92c0 30 0.666992 58.333 2 85s5 63 11 109s14.167 87.667 24.5 125s26 77 47 119
s45.667 77.167 74 105.5s64.833 52 109.5 71s94.667 28.5 150 28.5c51.333 0 97.833 -8.16699 139.5 -24.5s76.334 -37.666 104.001 -63.999s51.834 -58.333 72.501 -96s36.667 -75.167 48 -112.5s20.333 -78.333 27 -123s11 -83.667 13 -117s3 -68 3 -104zM841.999 606.002
c0 22.667 -0.334961 43.8369 -1.00195 63.5039s-2.66699 46 -6 79s-7.83301 62.667 -13.5 89s-14.167 54.166 -25.5 83.499s-24.666 54 -39.999 74s-35 36.667 -59 50s-51 20 -81 20c-28.667 0 -54.667 -6 -78 -18s-42.5 -26.5 -57.5 -43.5s-28.167 -39.333 -39.5 -67
s-19.833 -52.834 -25.5 -75.501s-10.5 -49.834 -14.5 -81.501s-6.5 -56 -7.5 -73s-1.83301 -37.5 -2.5 -61.5v-51c0 -30.667 1 -59.834 3 -87.501s5.66699 -58.834 11 -93.501s13.5 -66 24.5 -94s24.5 -54 40.5 -78s37 -42.833 63 -56.5s55.333 -20.5 88 -20.5
c30.667 0 58.334 7 83.001 21s44.667 33.333 60 58s28.5 51.334 39.5 80.001s19.167 60.667 24.5 96s9 67.5 11 96.5s3 59.167 3 90.5z" />
    <glyph glyph-name="one" unicode="1" 
d="M1083 0h-890v190h354v844l-346 -69v186l536 109v-1070h346v-190z" />
    <glyph glyph-name="two" unicode="2" 
d="M987 0l-840.001 0.000976562v160l517 456c52 46 88.833 87.5 110.5 124.5s32.5 76.167 32.5 117.5c0 64.667 -22.333 115.334 -67 152.001s-98.667 55 -162 55c-6 0 -14.667 -0.5 -26 -1.5s-28 -4.33301 -50 -10s-41.833 -13.167 -59.5 -22.5
s-33.334 -23.5 -47.001 -42.5s-20.5 -41.167 -20.5 -66.5v-39h-189v180c104.667 128 237.334 192 398.001 192c90.667 0 167.667 -21 231 -63s110.333 -94 141 -156c20.667 -40.667 31 -95.334 31 -164.001c0 -20 -1.5 -39.667 -4.5 -59s-6.16699 -36.666 -9.5 -51.999
s-9.66602 -32 -18.999 -50s-16.5 -32.5 -21.5 -43.5s-15.167 -25.667 -30.5 -44l-32 -39c-6 -7.66699 -19 -21.334 -39 -41.001s-33.167 -32.334 -39.5 -38.001l-46 -42l-45.5 -41.5l-249 -229h356v135h180v-328z" />
    <glyph glyph-name="three" unicode="3" 
d="M987 354c0 -55.333 -9.50391 -105.332 -28.5039 -149.999s-43.167 -80.834 -72.5 -108.501s-63 -51 -101 -70s-74.5 -32.167 -109.5 -39.5s-69.167 -11 -102.5 -11c-44 0 -90 4.83301 -138 14.5s-84.167 18.5 -108.5 26.5s-60.166 21.5 -107.499 40.5
s-73.333 29.5 -78 31.5l70 160c75.333 -26 126.666 -43.333 153.999 -52s57.333 -16.167 90 -22.5s65.334 -9.5 98.001 -9.5c70 0 128.833 17.667 176.5 53s71.5 83.666 71.5 144.999c0 31.333 -6.33301 58.833 -19 82.5s-27.667 41.667 -45 54s-37.833 22.166 -61.5 29.499
s-44 12 -61 14s-34.167 3 -51.5 3h-108v188h28c172 0 258 56.667 258 170c0 54.667 -19.333 95 -58 121s-82 39 -130 39c-40.667 0 -81.5 -7.5 -122.5 -22.5s-96.5 -42.5 -166.5 -82.5l-92 148c48.667 31.333 88.834 56 120.501 74s71.334 34.667 119.001 50
s94.167 23 139.5 23c138 0 246.667 -50.333 326 -151c35.333 -46 53 -108.333 53 -187c0 -33.333 -3.66699 -64 -11 -92s-18.166 -52.667 -32.499 -74s-26.833 -38 -37.5 -50s-24.667 -26 -42 -42c24 -16.667 42.5 -30.167 55.5 -40.5s28.833 -25 47.5 -44
s32.667 -37.667 42 -56s17.5 -41.666 24.5 -69.999s10.5 -59.166 10.5 -92.499z" />
    <glyph glyph-name="four" unicode="4" 
d="M1014 0h-570v190h207v172h-520v164l506 729h205v-702h164v-191h-164v-172h172v-190zM651 553v455l-303 -455h303z" />
    <glyph glyph-name="five" unicode="5" 
d="M1038 395c0 -55.333 -9.16602 -107.835 -27.499 -157.502s-45.333 -94.167 -81 -133.5s-82.5 -70.666 -140.5 -93.999s-123.667 -35 -197 -35c-112.667 0 -256 35 -430 105l67 164c138.667 -53.333 261 -80 367 -80c79.333 0 141.833 21 187.5 63s68.5 96 68.5 162
c0 70.667 -25.167 126.5 -75.5 167.5s-111.833 61.5 -184.5 61.5c-84.667 0 -167.334 -26.333 -248.001 -79l-98 53v639h743v-191h-555v-266c69.333 22 132.333 33 189 33c68.667 0 130.167 -11.667 184.5 -35s97.833 -54.666 130.5 -93.999s57.5 -83 74.5 -131
s25.5 -98.667 25.5 -152z" />
    <glyph glyph-name="six" unicode="6" 
d="M1024 1241l-13.9971 -188.002l-164 10c-4.66699 0 -11.834 0.333008 -21.501 1s-16.834 1 -21.501 1c-118 0 -209 -30.167 -273 -90.5s-108.333 -148.833 -133 -265.5c33.333 18.667 57.833 31.834 73.5 39.501s36.5 14.5 62.5 20.5s55.333 9 88 9
c60 0 115 -11.833 165 -35.5s90.667 -55 122 -94s55.5 -82.5 72.5 -130.5s25.5 -97.667 25.5 -149c0 -106 -35.833 -198.167 -107.5 -276.5s-160.167 -117.5 -265.5 -117.5c-47.333 0 -99.333 11 -156 33c-50.667 20 -94.334 49 -131.001 87s-64.667 81.167 -84 129.5
s-33.333 97.333 -42 147s-13 101.834 -13 156.501c0 192.667 47 358 141 496c104.667 152.667 281 229 529 229c40.667 0 89.667 -4 147 -12zM819.003 374.998c0 24 -3.50195 47.666 -10.502 70.999s-18 46 -33 68s-36.667 39.833 -65 53.5s-61.166 20.5 -98.499 20.5
c-30.667 0 -59.5 -5.33301 -86.5 -16s-49 -23.5 -66 -38.5s-31.667 -30 -44 -45s-21.166 -27.833 -26.499 -38.5l-8 -16c8 -60 18.333 -104.333 31 -133c18.667 -40.667 47.334 -74 86.001 -100s79.667 -39 123 -39c57.333 0 104.666 18.833 141.999 56.5
s56 89.834 56 156.501z" />
    <glyph glyph-name="seven" unicode="7" 
d="M993 1092l-387 -1092h-205l394 1040h-457v-157h-188v348h843v-139z" />
    <glyph glyph-name="eight" unicode="8" 
d="M1034 342c0 -40 -8.00098 -80.5 -24.001 -121.5s-40 -80.167 -72 -117.5s-75.833 -67.666 -131.5 -90.999s-119.167 -35 -190.5 -35c-50 0 -99.333 7.66699 -148 23s-93.5 37.5 -134.5 66.5s-74.333 67.5 -100 115.5s-38.5 101.333 -38.5 160
c0 59.333 15 114.666 45 165.999s70.667 93 122 125c-98 75.333 -147 166 -147 272c0 44 9.16699 86.833 27.5 128.5s44 79 77 112s74.833 59.5 125.5 79.5s106.334 30 167.001 30c114 0 208.833 -33 284.5 -99s113.5 -148.333 113.5 -247
c0 -110 -47.333 -201.333 -142 -274c110.667 -73.333 166 -171 166 -293zM822.999 899c0 19.333 -3.5 38.167 -10.5 56.5s-18.167 36 -33.5 53s-37.5 30.667 -66.5 41s-63.167 15.5 -102.5 15.5c-60.667 0 -109.834 -16.5 -147.501 -49.5s-56.5 -73.833 -56.5 -122.5
c0 -50.667 20.333 -91.667 61 -123s90.334 -47 149.001 -47c56 0 104.5 15.667 145.5 47s61.5 74.333 61.5 129zM847.999 356.001c0 48.667 -20.501 90.165 -61.501 124.498s-99.833 51.5 -176.5 51.5c-61.333 0 -114.166 -17.167 -158.499 -51.5
s-66.5 -77.166 -66.5 -128.499c0 -49.333 22.333 -92.666 67 -129.999s103 -56 175 -56c55.333 0 106 17.667 152 53s69 81 69 137z" />
    <glyph glyph-name="nine" unicode="9" 
d="M1024 674c0 -107.333 -15.668 -205.667 -47.001 -295s-73.833 -163.5 -127.5 -222.5s-115.5 -104.667 -185.5 -137s-144 -48.5 -222 -48.5c-92 0 -169 4.33301 -231 13l12 186c13.333 -0.666992 37.833 -2.16699 73.5 -4.5s63.834 -3.5 84.501 -3.5
c66 0 123.667 6 173 18s89.333 27.333 120 46s57 44.334 79 77.001s38.667 64.5 50 95.5s23 70.167 35 117.5c-26 -17.333 -61 -32.833 -105 -46.5s-85 -20.5 -123 -20.5c-70.667 0 -135.667 18.833 -195 56.5s-105.833 87.667 -139.5 150s-50.5 129.166 -50.5 200.499
c0 106.667 35.833 199.5 107.5 278.5s162.167 118.5 271.5 118.5c92.667 0 178 -33.333 256 -100c62.667 -54.667 105.667 -122.167 129 -202.5s35 -172.5 35 -276.5zM853.999 794.999c-9.33301 73.333 -27 129.999 -53 169.999c-19.333 29.333 -45.333 53 -78 71
s-69 27 -109 27c-22.667 0 -45.167 -3.83301 -67.5 -11.5s-43.5 -19.167 -63.5 -34.5s-36.167 -36.666 -48.5 -63.999s-18.5 -59 -18.5 -95c0 -68 18.833 -121.833 56.5 -161.5s85.5 -59.5 143.5 -59.5c29.333 0 57.666 5.16699 84.999 15.5s49.833 22.833 67.5 37.5
s33.334 30 47.001 46s23.5 29.167 29.5 39.5s9 16.833 9 19.5z" />
    <glyph glyph-name="colon" unicode=":" 
d="M809 655c0 -46 -18.167 -85.501 -54.5 -118.501s-80.833 -49.5 -133.5 -49.5c-34.667 0 -65.5 6 -92.5 18s-47.833 27.167 -62.5 45.5s-25.667 36.333 -33 54s-11 33.834 -11 48.501c0 45.333 18 85.333 54 120s82.667 52 140 52c59.333 0 106.333 -17.333 141 -52
s52 -74 52 -118zM809 142.999c0 -46 -18.167 -85.501 -54.5 -118.501s-80.833 -49.5 -133.5 -49.5c-34.667 0 -65.5 6 -92.5 18s-47.833 27.167 -62.5 45.5s-25.667 36.333 -33 54s-11 33.834 -11 48.501c0 45.333 18 85.333 54 120s82.667 52 140 52
c59.333 0 106.333 -17.333 141 -52s52 -74 52 -118z" />
    <glyph glyph-name="semicolon" unicode=";" 
d="M809 655c0 -46 -18.167 -85.501 -54.5 -118.501s-80.833 -49.5 -133.5 -49.5c-34.667 0 -65.5 6 -92.5 18s-47.833 27.167 -62.5 45.5s-25.667 36.333 -33 54s-11 33.834 -11 48.501c0 45.333 18 85.333 54 120s82.667 52 140 52c59.333 0 106.333 -17.333 141 -52
s52 -74 52 -118zM788 333.999l-247 -539h-228l179 539h296z" />
    <glyph glyph-name="less" unicode="&#x3c;" 
d="M1032 -16l-882 354v223l882 352v-178l-700 -284l700 -289v-178z" />
    <glyph glyph-name="equal" unicode="=" 
d="M1055 504h-879v190h879v-190zM1055 172h-879v190h879v-190z" />
    <glyph glyph-name="greater" unicode="&#x3e;" 
d="M1104 338l-883 -354v178l699 289l-699 284v178l883 -352v-223z" />
    <glyph glyph-name="question" unicode="?" 
d="M1004 844c0 -176 -117.671 -293.331 -353.004 -351.998v-125h-188v260c36.667 6 65.834 11.167 87.501 15.5s48.334 10.666 80.001 18.999s56.834 17.5 75.501 27.5s37.5 22.167 56.5 36.5s32.833 31.5 41.5 51.5s13 42.333 13 67c0 53.333 -21.5 92.833 -64.5 118.5
s-99.167 38.5 -168.5 38.5c-48.667 0 -104.667 -6 -168 -18v-135h-189v274c50.667 20.667 109.834 37.5 177.501 50.5s128.167 19.5 181.5 19.5c121.333 0 221.333 -30.833 300 -92.5s118 -146.834 118 -255.501zM742.996 129.002
c0 -40.667 -14.834 -76.832 -44.501 -108.499s-76.167 -47.5 -139.5 -47.5c-54 0 -98.833 14.333 -134.5 43s-53.5 65.667 -53.5 111c0 42.667 17 79.667 51 111s79 47 135 47c32.667 0 61.334 -5.16699 86.001 -15.5s43 -22.333 55 -36s21.667 -28.834 29 -45.501
s11.833 -29.5 13.5 -38.5s2.5 -15.833 2.5 -20.5z" />
    <glyph glyph-name="at" unicode="@" 
d="M1188 664c0 -57.333 -7.5 -109.671 -22.5 -157.004s-34.333 -86.166 -58 -116.499s-50.5 -55.833 -80.5 -76.5s-59.333 -35.5 -88 -44.5s-56.334 -13.5 -83.001 -13.5c-24 0 -51 6.83301 -81 20.5s-55 35.5 -75 65.5c-55.333 -57.333 -116 -86 -182 -86
c-19.333 0 -38.333 3.83301 -57 11.5s-37.167 19.5 -55.5 35.5s-33.166 39.667 -44.499 71s-17 67.666 -17 108.999c0 42 7.5 87 22.5 135s35.5 93 61.5 135s59.167 76.833 99.5 104.5s82.833 41.5 127.5 41.5c12.667 0 22.667 -0.5 30 -1.5s17.666 -5.33301 30.999 -13
s27.333 -19.167 42 -34.5l12 37h141l-104 -389c-2.66699 -8 -4 -18.333 -4 -31c0 -22 7 -37.667 21 -47s30 -14 48 -14c42 0 77.833 26.667 107.5 80s44.5 120 44.5 200c0 108 -34.667 194.667 -104 260s-164.333 98 -285 98c-52 0 -99.333 -6.66699 -142 -20
s-78.334 -30.666 -107.001 -51.999s-54 -46.666 -76 -75.999s-39 -58.5 -51 -87.5s-21.833 -59.5 -29.5 -91.5s-12.667 -59.667 -15 -83s-3.5 -45.666 -3.5 -66.999c0 -39.333 3.33301 -78.333 10 -117s19 -79 37 -121s40.833 -78.667 68.5 -110
s64.834 -57.166 111.501 -77.499s100 -30.5 160 -30.5c78 0 151.5 12.333 220.5 37s143.5 65.334 223.5 122.001l58 -139c-0.666992 -0.666992 -11.167 -7.83398 -31.5 -21.501s-34.166 -22.667 -41.499 -27l-46 -26.5c-23.333 -13.333 -42.5 -23 -57.5 -29l-62.5 -24
c-26.667 -10 -51.667 -17.333 -75 -22s-50.333 -8.83398 -81 -12.501s-61.667 -5.5 -93 -5.5c-64.667 0 -124.167 7.16699 -178.5 21.5s-100.833 33.5 -139.5 57.5s-73.167 52.667 -103.5 86s-54.833 67.833 -73.5 103.5s-34 73.5 -46 113.5s-20.333 77.5 -25 112.5
s-7 69.5 -7 103.5c0 100 16.333 190.333 49 271s76.667 146.334 132 197.001s118.5 89.5 189.5 116.5s146.167 40.5 225.5 40.5c100 0 192.5 -19.5 277.5 -58.5s152.833 -98.833 203.5 -179.5c48 -77.333 72 -172 72 -284zM692 681.995c0 44 -17.6689 66 -53.002 66
c-30 0 -63.167 -30.167 -99.5 -90.5s-54.5 -118.5 -54.5 -174.5c0 -51.333 14.333 -77 43 -77s54.334 11.5 77.001 34.5s39.834 50.833 51.501 83.5s20.5 63 26.5 91s9 50.333 9 67z" />
    <glyph glyph-name="A" unicode="A" 
d="M1221 0h-478v190h170l-59 140h-475l-60 -140h177v-190h-488v190h121l334 791h-252v190h494l401 -981h115v-190zM778 520l-160 379l-159 -379h319z" />
    <glyph glyph-name="B" unicode="B" 
d="M1137 332c0 -94 -34.499 -172.833 -103.499 -236.5s-164.167 -95.5 -285.5 -95.5h-674v190h159v791h-159v190h596c58 0 110.333 -6.66699 157 -20s84.667 -30.833 114 -52.5s53.666 -46.834 72.999 -75.501s33 -57 41 -85s12 -56.667 12 -86
c0 -97.333 -39 -176.666 -117 -237.999l66 -41c40 -24.667 70.167 -58.5 90.5 -101.5s30.5 -89.5 30.5 -139.5zM881.001 846c0 36 -15.334 67.501 -46.001 94.501s-77.667 40.5 -141 40.5h-272v-281h262c14.667 0 31.334 1.66699 50.001 5s40 9.66602 64 18.999
s43.833 24.5 59.5 45.5s23.5 46.5 23.5 76.5zM948 344.001c0 110.667 -99 166 -297 166h-229v-320h336c13.333 0 27.5 1.33301 42.5 4s31.5 7.5 49.5 14.5s34 16 48 27s25.833 25.833 35.5 44.5s14.5 40 14.5 64z" />
    <glyph glyph-name="C" unicode="C" 
d="M1161 158c-47.333 -43.333 -106.001 -79.6689 -176.001 -109.002s-130.333 -49 -181 -59s-92.667 -15 -126 -15c-60.667 0 -117.167 7.33301 -169.5 22s-97.5 34.334 -135.5 59.001s-72.5 53.834 -103.5 87.501s-56.5 69.167 -76.5 106.5s-36.667 76.333 -50 117
s-22.833 79.5 -28.5 116.5s-8.5 73.167 -8.5 108.5c0 114.667 24 217.834 72 309.501s114.667 163.334 200 215.001s181.333 77.5 288 77.5c51.333 0 100.5 -6.33301 147.5 -19s80.667 -24.334 101 -35.001s37.833 -21.334 52.5 -32.001v86h188v-477h-188v194
c-103.333 64.667 -203 97 -299 97c-30.667 0 -62.167 -4.33301 -94.5 -13s-65.166 -23.5 -98.499 -44.5s-63 -46.833 -89 -77.5s-47.333 -70.5 -64 -119.5s-25 -103.5 -25 -163.5c0 -56 7.33301 -108.667 22 -158s36.5 -94.333 65.5 -135s68.167 -73 117.5 -97
s106 -36 170 -36c120 0 245 44.333 375 133z" />
    <glyph glyph-name="D" unicode="D" 
d="M1153 608c0 -91.333 -10.332 -172.333 -30.999 -243s-48.334 -128.667 -83.001 -174s-76.834 -82.5 -126.501 -111.5s-101.667 -49.5 -156 -61.5s-113.166 -18 -176.499 -18h-527v190h162v791h-162v190h576c106 0 193.333 -17.667 262 -53
c90.667 -46.667 157 -116.167 199 -208.5s63 -192.833 63 -301.5zM965.001 600c0 54 -6.16895 103.334 -18.502 148.001s-31.166 84.834 -56.499 120.501s-59.666 63.334 -102.999 83.001s-94 29.5 -152 29.5h-232v-791h168c52 0 96.333 3.16699 133 9.5
s71 19.166 103 38.499c55.333 35.333 95.5 85.166 120.5 149.499s37.5 135.166 37.5 212.499z" />
    <glyph glyph-name="E" unicode="E" 
d="M1128 0h-1030v190h162v791h-158v190h1026v-434h-190v244h-489v-291h217v135h190v-458h-190v135h-217v-312h489v238h190v-428z" />
    <glyph glyph-name="F" unicode="F" 
d="M1143 739h-191v242h-481v-293h219v135h189v-458h-189v133h-219v-308h252v-190h-594v190h154v791h-152v190h1012v-432z" />
    <glyph glyph-name="G" unicode="G" 
d="M1198 381l-92 0.000976562v-301c-1.33301 -0.666992 -7.83301 -3.33398 -19.5 -8.00098l-30.5 -12c-8.66699 -3.33301 -21.5 -8 -38.5 -14l-48 -16.5c-15 -5 -32.333 -10.333 -52 -16s-39.167 -10.667 -58.5 -15s-39.5 -8.33301 -60.5 -12s-42.333 -6.5 -64 -8.5
s-42.5 -3 -62.5 -3c-78 0 -152 13 -222 39s-132.333 63.333 -187 112s-98.167 111.167 -130.5 187.5s-48.5 161.5 -48.5 255.5c0 92 14.5 177.333 43.5 256s68.5 144.834 118.5 198.501s109 95.5 177 125.5s140.667 45 218 45c44.667 0 86 -4.83301 124 -14.5
s67.667 -20 89 -31s48.666 -27.167 81.999 -48.5v94h190v-479h-190v188l-73 43c-15.333 8.66699 -36.166 19 -62.499 31s-51.833 20.167 -76.5 24.5s-51.667 6.5 -81 6.5c-48 0 -93.667 -9.16699 -137 -27.5s-82.333 -44.833 -117 -79.5s-62.167 -79.834 -82.5 -135.501
s-30.5 -118.167 -30.5 -187.5c0 -125.333 31.667 -224.333 95 -297c69.333 -78 169 -117 299 -117c69.333 0 129.333 6 180 18l70 17v182h-291v190h569v-190z" />
    <glyph glyph-name="H" unicode="H" 
d="M1186 0h-504v190h160v318h-447v-318h162v-190h-506v190h156v791h-156v190h506v-190h-162v-283h447v283h-160v190h504v-190h-156v-791h156v-190z" />
    <glyph glyph-name="I" unicode="I" 
d="M1049 0h-865v190h338v791h-338v190h865v-190h-332v-791h332v-190z" />
    <glyph glyph-name="J" unicode="J" 
d="M1206 981h-247.999v-596c0 -105.333 -16 -185.833 -48 -241.5s-87 -102.834 -165 -141.501l-4 -2c-43.333 -16.667 -95.666 -25 -156.999 -25c-144 0 -301 46 -471 138v471h190v-222c0 -58 12.667 -100.333 38 -127s68.666 -47 129.999 -61c34.667 -8 71.667 -12 111 -12
c35.333 0 65.166 4.66699 89.499 14s43 20.5 56 33.5s23 31.833 30 56.5s11.167 46.834 12.5 66.501s2 46.167 2 79.5v569h-360v190h794v-190z" />
    <glyph glyph-name="K" unicode="K" 
d="M1178 0l-310 -0.00292969c-52 112.667 -118 227.334 -198 344.001c-52.667 75.333 -100.667 137.333 -144 186l-114 -110v-230h159v-190h-510v190h162v791h-162v190h510v-190h-159v-317l329 317h-84v190h467v-190h-131l-340 -330
c80.667 -97.333 134 -165.666 160 -204.999c73.333 -109.333 126 -194.666 158 -255.999h207v-190z" />
    <glyph glyph-name="L" unicode="L" 
d="M1143 0h-1039v190h195v791h-195v190h629v-190h-246v-791h465v361h191v-551z" />
    <glyph glyph-name="M" unicode="M" 
d="M1253 981h-159l28 -791h109v-190h-488v190h191l-31 648l-215 -578h-123l-207 584l-32 -654h194v-190h-497v190h112l33 791h-154v190h408l211 -583l221 583h399v-190z" />
    <glyph glyph-name="N" unicode="N" 
d="M1239 981h-158v-981h-180l-528 836v-646h198v-190h-542v190h155v791h-155v190h366l498 -813v623h-191v190h537v-190z" />
    <glyph glyph-name="O" unicode="O" 
d="M1159 584c0 -88 -12.3359 -167.831 -37.0029 -239.498s-56.167 -129.834 -94.5 -174.501s-82.166 -82.167 -131.499 -112.5s-97.166 -51.666 -143.499 -63.999s-91.166 -18.5 -134.499 -18.5c-53.333 0 -105.666 7.66699 -156.999 23s-100.5 39.5 -147.5 72.5
s-88.167 72.667 -123.5 119s-63.5 103.166 -84.5 170.499s-31.5 140.666 -31.5 219.999s12.667 155.833 38 229.5s60.666 139 105.999 196s102.666 102.667 171.999 137s145.333 51.5 228 51.5c69.333 0 134 -11.833 194 -35.5s110.833 -55.667 152.5 -96
s77.334 -86.666 107.001 -138.999s51.667 -107.333 66 -165s21.5 -115.834 21.5 -174.501zM972.997 592.002c0 31.333 -3.66602 64.332 -10.999 98.999s-19.833 70.834 -37.5 108.501s-39.5 71.5 -65.5 101.5s-59.833 54.667 -101.5 74s-88.167 29 -139.5 29
c-56 0 -107 -12.667 -153 -38s-83 -58.333 -111 -99s-49.667 -85.334 -65 -134.001s-23 -97.667 -23 -147c0 -52.667 7.5 -103.667 22.5 -153s36.5 -94.5 64.5 -135.5s65 -73.833 111 -98.5s97.333 -37 154 -37c50 0 95.667 9.5 137 28.5s75.166 43.5 101.499 73.5
s48.5 64.333 66.5 103s30.833 76.834 38.5 114.501s11.5 74.5 11.5 110.5z" />
    <glyph glyph-name="P" unicode="P" 
d="M1116 776c0 -107.333 -37.167 -197 -111.5 -269s-171.5 -108 -291.5 -108h-240v-209h250v-190h-600v190h162v791h-160v190h532c169.333 0 292.333 -43.667 369 -131c60 -70.667 90 -158.667 90 -264zM928 782c0 36.667 -9.49902 70.332 -28.499 100.999
s-45.167 53.667 -78.5 69c-41.333 19.333 -96 29 -164 29h-184v-391h162c33.333 0 57.833 0.166992 73.5 0.5s36.5 2.83301 62.5 7.5s48.333 11.334 67 20.001c23.333 10.667 44.166 30 62.499 58s27.5 63.333 27.5 106z" />
    <glyph glyph-name="Q" unicode="Q" 
d="M1157 -133c-38.667 -38.667 -67.834 -66.501 -87.501 -83.501s-45 -32.333 -76 -46s-64.5 -20.5 -100.5 -20.5c-38.667 0 -90.667 13.667 -156 41s-116.333 41 -153 41c-34 0 -67 -6.33301 -99 -19s-79.667 -37 -143 -73l-88 141l74 66l84 106l-50 21
c-82 34 -150.5 98.167 -205.5 192.5s-82.5 210.5 -82.5 348.5c0 96.667 15.167 184.667 45.5 264s71 144 122 194s108.667 88.5 173 115.5s131.5 40.5 201.5 40.5c60.667 0 116.834 -8.5 168.501 -25.5s95.5 -39.5 131.5 -67.5s68.5 -60.667 97.5 -98
s52.167 -75.333 69.5 -114s31.833 -78.334 43.5 -119.001s19.667 -77 24 -109s6.5 -61.333 6.5 -88c0 -87.333 -13.333 -170.166 -40 -248.499s-67.167 -146.833 -121.5 -205.5s-118.5 -97.667 -192.5 -117l-62 -16c39.333 -28 71 -48.333 95 -61s47 -19 69 -19
c18.667 0 37 5.83301 55 17.5s45.333 35.834 82 72.501zM969 579.999c0 85.333 -16.999 163.002 -50.999 233.002c-28.667 58.667 -70.334 105.5 -125.001 140.5s-113.667 52.5 -177 52.5c-29.333 0 -59.166 -4.16699 -89.499 -12.5s-61.5 -22.833 -93.5 -43.5
s-60.333 -46.334 -85 -77.001s-44.834 -70.667 -60.501 -120s-23.5 -104.333 -23.5 -165c0 -60 7 -114 21 -162s32.5 -87.333 55.5 -118s49.833 -56.167 80.5 -76.5s62 -34.666 94 -42.999s65 -12.5 99 -12.5c30.667 0 61.167 3.83301 91.5 11.5s61.666 21.167 93.999 40.5
s60.833 43.666 85.5 72.999s44.834 68.166 60.501 116.499s23.5 102.5 23.5 162.5z" />
    <glyph glyph-name="R" unicode="R" 
d="M1184 0l-275.001 -0.00195312c-32.667 70.667 -75 142.334 -127 215.001l-180 250h-158v-275h152v-190h-502v190h162v791h-154v190h557c108.667 0 190.667 -15.667 246 -47c52.667 -29.333 92.834 -70.5 120.501 -123.5s41.5 -110.833 41.5 -173.5
c0 -71.333 -18.667 -135.166 -56 -191.499s-83 -92.833 -137 -109.5l-79 -24l235 -312h154v-190zM880.999 824.998c0 104 -61.002 156.003 -183.002 156.003h-254v-326h185c23.333 0 43.833 0.666992 61.5 2s39.334 5.16602 65.001 11.499s46.834 15.166 63.501 26.499
s31.167 28.166 43.5 50.499s18.5 48.833 18.5 79.5z" />
    <glyph glyph-name="S" unicode="S" 
d="M1090 336c0 -72.667 -21.1641 -137.002 -63.4971 -193.002s-98.5 -98.333 -168.5 -127s-147.667 -43 -233 -43c-28.667 0 -56.167 1.83301 -82.5 5.5s-50.833 9 -73.5 16s-40.5 13 -53.5 18s-28.5 11.833 -46.5 20.5l-29 14v-74h-188v428h188v-155
c94.667 -56 189.667 -84 285 -84c94.667 0 164.667 15.667 210 47s68 73.666 68 126.999c0 43.333 -14.167 75.333 -42.5 96s-69.5 33 -123.5 37c-10.667 0.666992 -35.334 2.33398 -74.001 5.00098s-65.5 4.83398 -80.5 6.50098s-38.5 4.83398 -70.5 9.50098
s-57.333 10 -76 16s-39.834 14.333 -63.501 25s-44.834 23.334 -63.501 38.001c-40.667 31.333 -71.667 68.666 -93 111.999s-32 89.333 -32 138c0 34 6 68.5 18 103.5s30.333 68.667 55 101s54.167 61.166 88.5 86.499s76 45.666 125 60.999s101.833 23 158.5 23
c85.333 0 162.333 -15.667 231 -47v47h189v-440h-189v196c-76.667 37.333 -151 56 -223 56c-79.333 0 -142.833 -19.167 -190.5 -57.5s-71.5 -81.5 -71.5 -129.5c0 -83.333 62.667 -134.333 188 -153c22 -3.33301 50.333 -6.5 85 -9.5l90 -8
c25.333 -2.33301 54 -6.66602 86 -12.999s60 -14.333 84 -24s48.167 -23.667 72.5 -42s44.833 -40.166 61.5 -65.499c32 -48.667 48 -104.667 48 -168z" />
    <glyph glyph-name="T" unicode="T" 
d="M1153 725h-190v256h-250v-791h248v-190h-685v190h246v791h-250v-256h-190v446h1071v-446z" />
    <glyph glyph-name="U" unicode="U" 
d="M1225 981l-156.004 -0.00195312v-600c0 -76 -15.5 -146.333 -46.5 -211s-77.5 -111 -139.5 -139c-83.333 -37.333 -166.666 -56 -249.999 -56c-54.667 0 -103.5 4.83301 -146.5 14.5s-86.5 28.167 -130.5 55.5c-27.333 17.333 -50.666 37.5 -69.999 60.5
s-34.5 46 -45.5 69s-19.5 49.5 -25.5 79.5s-9.83301 57.333 -11.5 82s-2.5 54 -2.5 88v557h-160v190h537v-190h-189v-575c0 -18 0.5 -34 1.5 -48s3.33301 -29.667 7 -47s8.83398 -32.5 15.501 -45.5s16 -26 28 -39s26.333 -23.667 43 -32s37.334 -15.166 62.001 -20.499
s52.334 -8 83.001 -8c50.667 0 92.667 5.66699 126 17s59.166 29.333 77.499 54s31 52.834 38 84.501s10.5 71.167 10.5 118.5v541h-193v190h537v-190z" />
    <glyph glyph-name="V" unicode="V" 
d="M1231 981h-137l-371 -981h-191l-382 981h-152v190h504v-190h-158l287 -733l278 733h-184v190h506v-190z" />
    <glyph glyph-name="W" unicode="W" 
d="M1241 981h-96l-133 -981h-160l-236 616l-231 -616h-162l-131 981h-96v190h469v-190h-189l72 -586l205 559h135l207 -555l70 582h-191v190h467v-190z" />
    <glyph glyph-name="X" unicode="X" 
d="M1178 0h-476v190h123l-211 281l-215 -281h156v-190h-504v190h131l326 422l-285 369h-137v190h467v-190h-107l175 -225l170 225h-91v190h441v-190h-135l-281 -369l322 -422h131v-190z" />
    <glyph glyph-name="Y" unicode="Y" 
d="M1194 981h-158l-319 -528v-263h244v-190h-682v190h247v263l-319 528h-154v190h471v-190h-106l207 -346l209 346h-111v190h471v-190z" />
    <glyph glyph-name="Z" unicode="Z" 
d="M1079 0h-923v145l616 836h-420v-258h-188v448h870v-135l-624 -846h481v289h188v-479z" />
    <glyph glyph-name="bracketleft" unicode="[" 
d="M1022 -176h-430v1493h430v-191h-240v-1112h240v-190z" />
    <glyph glyph-name="backslash" unicode="\" 
d="M1083 -203l-163 -69l-760 1626l164 69z" />
    <glyph glyph-name="bracketright" unicode="]" 
d="M641 -176h-434v190h244v1112h-244v191h434v-1493z" />
    <glyph glyph-name="asciicircum" unicode="^" 
d="M1030 995c-147.333 50.667 -283.666 139.67 -408.999 267.003c-126.667 -126.667 -264 -216.334 -412 -269.001v94c102 82 178.667 154.5 230 217.5s93.333 140.167 126 231.5h105c19.333 -50 39.333 -93.333 60 -130s46.667 -72.834 78 -108.501
s62.166 -67.334 92.499 -95.001l129.5 -112.5v-95z" />
    <glyph glyph-name="underscore" unicode="_" 
d="M1229 -510h-1229v104h1229v-104z" />
    <glyph glyph-name="grave" unicode="`" 
d="M981 1137l-45 -123l-623 157l82 218z" />
    <glyph glyph-name="a" unicode="a" 
d="M1155 0h-342.001v96l-92 -57c-29.333 -18 -67.333 -33.167 -114 -45.5s-92 -18.5 -136 -18.5c-54.667 0 -105 9 -151 27s-83.167 41.5 -111.5 70.5s-50.333 60.667 -66 95s-23.5 68.5 -23.5 102.5c0 8.66699 0.666992 18.667 2 30s5.5 28 12.5 50s16.333 42.833 28 62.5
s29.5 40.834 53.5 63.501s52 42 84 58s73.333 29.333 124 40s107 16 169 16c60 0 133.667 -5 221 -15v25c0 84.667 -67 127 -201 127c-100.667 0 -218 -26.667 -352 -80l-74 164c170 71.333 315 107 435 107c16 0 31.167 -0.333008 45.5 -1s38 -4 71 -10
s62.333 -14.167 88 -24.5s52.167 -26.666 79.5 -48.999s48 -48.833 62 -79.5c9.33301 -20.667 16.333 -45.334 21 -74.001s7.33398 -51.834 8.00098 -69.501s1 -44.5 1 -80.5v-340h158v-190zM812.999 324l0.000976562 60.999c-10.667 0.666992 -30.834 2.5 -60.501 5.5
s-60.167 5.5 -91.5 7.5s-64 3 -98 3c-38.667 0 -76.334 -3.83301 -113.001 -11.5s-69.667 -22 -99 -43s-44 -47.167 -44 -78.5s16 -56.166 48 -74.499s70 -27.5 114 -27.5c116.667 0 231.334 52.667 344.001 158z" />
    <glyph glyph-name="b" unicode="b" 
d="M1133 449c0 -59.333 -11.166 -117.334 -33.499 -174.001s-53.333 -107.167 -93 -151.5s-89.334 -80.166 -149.001 -107.499s-124.167 -41 -193.5 -41c-65.333 0 -119 8.66699 -161 26s-86.667 43 -134 77v-78h-349v190h160v891h-162v191h351v-459c78 70 174 105 288 105
c90 0 172 -22.5 246 -67.5s130.833 -103.167 170.5 -174.5s59.5 -147 59.5 -227zM942.001 450.999c0 27.333 -5.66406 56.166 -16.9971 86.499s-28 60 -50 89s-52.333 53 -91 72s-82.334 28.5 -131.001 28.5c-96.667 0 -169.334 -27.167 -218.001 -81.5
s-73 -122.166 -73 -203.499c0 -42.667 7.33301 -81 22 -115s32.667 -60.833 54 -80.5s45.666 -36 72.999 -49s52.333 -21.833 75 -26.5s43.667 -7 63 -7c82.667 0 152.167 28 208.5 84s84.5 123.667 84.5 203z" />
    <glyph glyph-name="c" unicode="c" 
d="M1112 166c-71.333 -58.667 -149.666 -105.169 -234.999 -139.502s-173 -51.5 -263 -51.5c-62.667 0 -123.334 10.667 -182.001 32s-111.167 51.333 -157.5 90s-83.5 88.334 -111.5 149.001s-42 127.334 -42 200.001c0 57.333 10.667 113.333 32 168s52.5 105 93.5 151
s95.5 83 163.5 111s144.333 42 229 42c78.667 0 151.667 -13 219 -39v39h186v-402h-186v162c-69.333 34 -142.333 51 -219 51c-100.667 0 -180.834 -26.833 -240.501 -80.5s-89.5 -121.834 -89.5 -204.501c0 -60 15.833 -111.667 47.5 -155s71.334 -75 119.001 -95
s99.5 -30 155.5 -30c71.333 0 134.833 12.333 190.5 37s117.167 61.334 184.5 110.001z" />
    <glyph glyph-name="d" unicode="d" 
d="M1208 0h-339.999v74c-80 -66 -176.667 -99 -290 -99c-138 0 -253.5 46.167 -346.5 138.5s-139.5 202.5 -139.5 330.5c0 82.667 19.833 160 59.5 232s96.5 130.333 170.5 175s156.333 67 247 67c121.333 0 219.666 -33.667 294.999 -101v264h-243v191h432v-1082h155v-190z
M864.001 442c0 50.667 -9.33105 97.332 -27.998 139.999c-17.333 41.333 -50.833 75.833 -100.5 103.5s-100.834 41.5 -153.501 41.5c-85.333 0 -156.5 -26.333 -213.5 -79s-85.5 -119 -85.5 -199c0 -79.333 28.333 -146.333 85 -201s125 -82 205 -82
c17.333 0 36.333 1.66699 57 5s45.5 10.833 74.5 22.5s54.667 26.834 77 45.501s41.666 45.667 57.999 81s24.5 76 24.5 122z" />
    <glyph glyph-name="e" unicode="e" 
d="M1145 125c-168.667 -100 -336.668 -150.001 -504.001 -150.001c-81.333 0 -154.833 12.833 -220.5 38.5s-119 60.167 -160 103.5s-72.5 92.666 -94.5 147.999s-33 113.666 -33 174.999c0 60.667 10 117.334 30 170.001s46.5 97.334 79.5 134.001s71.333 68 115 94
s89.167 45.333 136.5 58s95 19 143 19c86 0 164.833 -17.333 236.5 -52s129 -84.167 172 -148.5s64.5 -137.166 64.5 -218.499c0 -50.667 -2 -96 -6 -136h-780c2.66699 -20.667 9.5 -41 20.5 -61s27.667 -40.833 50 -62.5s54.833 -39.167 97.5 -52.5s92.334 -20 149.001 -20
c124 0 263.333 39 418 117zM925.999 550.999l-8 31c-44.667 95.333 -141.667 143 -291 143c-64 0 -123.333 -15 -178 -45s-91.667 -73 -111 -129h588z" />
    <glyph glyph-name="f" unicode="f" 
d="M1104 1235l-73.999 -188c-128.667 24 -218 36 -268 36c-35.333 0 -63.5 -2.33301 -84.5 -7s-36 -13.167 -45 -25.5s-14.667 -24.5 -17 -36.5s-3.5 -29.667 -3.5 -53v-72h414v-189h-414v-510h414v-190h-797v190h195v510h-195v189h195v57
c0 64.667 5.83301 118.167 17.5 160.5s37.167 76.833 76.5 103.5c62.667 41.333 144.667 62 246 62c51.333 0 112.666 -5 183.999 -15z" />
    <glyph glyph-name="g" unicode="g" 
d="M1184 700h-158.005v-655c0 -35.333 -1.16699 -66.5 -3.5 -93.5s-7 -55.833 -14 -86.5s-16.667 -57.167 -29 -79.5s-29.166 -44.166 -50.499 -65.499s-46.5 -38.833 -75.5 -52.5s-64.667 -24.5 -107 -32.5s-89.833 -12 -142.5 -12
c-47.333 0 -99.166 3.83301 -155.499 11.5s-104.166 15.5 -143.499 23.5s-95.333 20.333 -168 37l45 192c160.667 -47.333 299.334 -71 416.001 -71c38.667 0 72 2.33301 100 7s50.667 12.334 68 23.001s31.166 21.5 41.499 32.5s17.833 26.167 22.5 45.5
s7.5 36.166 8.5 50.499s1.5 33.833 1.5 58.5v80c-76.667 -60 -171.667 -90 -285 -90c-143.333 0 -260.666 42.167 -351.999 126.5s-137 190.166 -137 317.499c0 126.667 46.333 233 139 319s211.334 129 356.001 129c112.667 0 205.667 -29.333 279 -88v64h344v-191z
M839.995 465c0 79.333 -26.667 142.501 -80 189.501s-122.333 70.5 -207 70.5c-82 0 -151.667 -24 -209 -72s-86 -108.667 -86 -182c0 -74 29.667 -135.5 89 -184.5s127.333 -73.5 204 -73.5c87.333 0 157.333 22.667 210 68s79 106.666 79 183.999z" />
    <glyph glyph-name="h" unicode="h" 
d="M1204 0l-501.998 0.000976562v190h156v402c0 90 -43.667 135 -131 135c-90.667 0 -191 -39.667 -301 -119v-418h154v-190h-500v190h158v891h-158v191h346v-453c55.333 31.333 106.333 55.166 153 71.499s96.667 24.5 150 24.5c38.667 0 74.5 -4.5 107.5 -13.5
s59.167 -19.5 78.5 -31.5s36.666 -26 51.999 -42s25.666 -28.5 30.999 -37.5s10 -17.833 14 -26.5c23.333 -49.333 35 -111.333 35 -186v-388h157v-190z" />
    <glyph glyph-name="i" unicode="i" 
d="M717 1010h-217v305h217v-305zM1053 0h-869v190h342v508h-286v191h477v-699h336v-190z" />
    <glyph glyph-name="j" unicode="j" 
d="M829 1008h-215v305h215v-305zM862 29c0 -19.333 -0.169922 -35.001 -0.50293 -47.001s-1.66602 -29.833 -3.99902 -53.5s-5.66602 -43.667 -9.99902 -60s-10.833 -36 -19.5 -59s-19.167 -42.5 -31.5 -58.5s-28.166 -32.667 -47.499 -50s-41.333 -31.166 -66 -41.499
s-54 -19 -88 -26s-71.333 -10.5 -112 -10.5c-68 0 -170.333 13.667 -307 41l45 191c100 -27.333 187.333 -41 262 -41c22 0 39 0.5 51 1.5s26.833 3.83301 44.5 8.5s32.5 13 44.5 25s22 27.667 30 47c12.667 34 19 81.667 19 143v659h-498v191h688v-860z" />
    <glyph glyph-name="k" unicode="k" 
d="M1186 0h-492v190h54c-57.333 65.333 -136 139.333 -236 222l-68 -47v-365h-342v190h154v891h-156v191h344v-697l181 125h-39v191h524v-191h-207l-254 -188c46.667 -37.333 103.5 -88.333 170.5 -153s120.167 -121 159.5 -169h207v-190z" />
    <glyph glyph-name="l" unicode="l" 
d="M1055 0h-869v190h338v891h-323v191h514v-1082h340v-190z" />
    <glyph glyph-name="m" unicode="m" 
d="M1260 0l-306.002 0.000976562v647c0 16 -7 33 -21 51s-35.667 27 -65 27c-51.333 0 -97.666 -28 -138.999 -84v-451h123v-190h-311v621c0 26.667 -6.83301 50.667 -20.5 72s-37.5 32 -71.5 32c-41.333 0 -86 -22.667 -134 -68v-467h160v-190h-506v190h158v508h-158v191
h346v-45c39.333 47.333 94 71 164 71c76 0 134.667 -32.667 176 -98c26.667 30.667 59.834 54.667 99.501 72s80.5 26 122.5 26c80.667 0 145.167 -26.333 193.5 -79s72.5 -118.334 72.5 -197.001v-449h117v-190z" />
    <glyph glyph-name="n" unicode="n" 
d="M1180 0h-498v190h156v394c0 23.333 -1.5 42.333 -4.5 57s-9.33301 29.167 -19 43.5s-25 25 -46 32s-47.833 10.5 -80.5 10.5c-38.667 0 -85.667 -9 -141 -27s-105.333 -46.667 -150 -86v-424h160v-190h-506v190h158v508h-162v191h350v-66c94 61.333 197.333 92 310 92
c122.667 0 212 -38 268 -114c34 -56 51 -114 51 -174v-437h154v-190z" />
    <glyph glyph-name="o" unicode="o" 
d="M1137 446c0 -64 -10.168 -122.671 -30.501 -176.004s-47.333 -97.833 -81 -133.5s-72.667 -66 -117 -91s-90.166 -43 -137.499 -54s-95.333 -16.5 -144 -16.5c-46.667 0 -93.834 5 -141.501 15s-95.5 26.833 -143.5 50.5s-90.5 52.834 -127.5 87.501s-67 79 -90 133
s-34.5 114.333 -34.5 181c0 75.333 14.833 143.833 44.5 205.5s69.334 111.834 119.001 150.501s105.667 68.334 168 89.001s127.166 31 194.499 31c84.667 0 161 -13.667 229 -41s122.833 -63.666 164.5 -108.999s73.334 -95.5 95.001 -150.5s32.5 -112.167 32.5 -171.5z
M945.999 450.996c0 32.667 -6.33301 64.501 -19 95.501s-31.667 60.333 -57 88s-60.5 50 -105.5 67s-96.5 25.5 -154.5 25.5c-93.333 0 -171.166 -25.833 -233.499 -77.5s-93.5 -120.167 -93.5 -205.5c0 -42.667 8 -81 24 -115s36.167 -60.833 60.5 -80.5s52.333 -36 84 -49
s61.5 -21.833 89.5 -26.5s55.333 -7 82 -7c56 0 107.667 9.5 155 28.5s87.166 50.667 119.499 95s48.5 98.166 48.5 161.499z" />
    <glyph glyph-name="p" unicode="p" 
d="M1143 453c0 -133.333 -44.168 -246.332 -132.501 -338.999s-199.166 -139 -332.499 -139c-112.667 0 -214.334 34.333 -305.001 103v-262h291v-191h-635v191h155v880h-159v191h348v-72c78.667 66.667 177.667 100 297 100c52 0 104.833 -9.33301 158.5 -28
s104.334 -45.834 152.001 -81.501s86.667 -84.167 117 -145.5s45.5 -130.333 45.5 -207zM953.999 449.001c0 85.333 -27.665 152.666 -82.998 201.999s-123 74 -203 74c-19.333 0 -40.333 -1.83301 -63 -5.5s-48.834 -11.667 -78.501 -24s-56 -28 -79 -47
s-42.5 -45.833 -58.5 -80.5s-24 -74.334 -24 -119.001c0 -43.333 7.66699 -82.333 23 -117s34.333 -62.167 57 -82.5s48.167 -37.166 76.5 -50.499s54.5 -22.5 78.5 -27.5s46 -7.5 66 -7.5c77.333 0 144.666 26.833 201.999 80.5s86 121.834 86 204.501z" />
    <glyph glyph-name="q" unicode="q" 
d="M1217 -375l-629 0.000976562v191h284v260c-82 -66 -179.333 -99 -292 -99c-90.667 0 -173 21.667 -247 65s-131.333 100.5 -172 171.5s-61 147.833 -61 230.5c0 60.667 11.833 119.5 35.5 176.5s56.167 107.167 97.5 150.5s92.333 78.166 153 104.499s126 39.5 196 39.5
c120 0 216.667 -34 290 -102v78h342v-191h-153v-884h156v-191zM874 451.001c0 31.333 -5.00098 62.3379 -15.001 93.0049s-25.5 60.167 -46.5 88.5s-50.667 51.166 -89 68.499s-82.833 26 -133.5 26c-87.333 0 -158.666 -27 -213.999 -81s-83 -120.667 -83 -200
c0 -81.333 28.333 -148.333 85 -201s124.667 -79 204 -79c17.333 0 36.333 1.66699 57 5s45.5 11.166 74.5 23.499s54.833 28.166 77.5 47.499s42.167 47.166 58.5 83.499s24.5 78.166 24.5 125.499z" />
    <glyph glyph-name="r" unicode="r" 
d="M1165 684l-179.999 -28.999c-3.33301 27.333 -9 46.166 -17 56.499s-24 15.5 -48 15.5c-37.333 0 -82.666 -15 -135.999 -45c-61.333 -34.667 -138.333 -90 -231 -166v-326h373v-190h-783v190h219v508h-221v191h412v-144c66 53.333 128 95.5 186 126.5
s118.333 46.5 181 46.5c63.333 0 113.166 -13 149.499 -39s60.166 -55.333 71.499 -88c16 -44 24 -79.667 24 -107z" />
    <glyph glyph-name="s" unicode="s" 
d="M1073 270c0 -88 -39.1699 -159.168 -117.503 -213.501s-175.5 -81.5 -291.5 -81.5c-97.333 0 -196.333 20 -297 60v-60h-189v385h189v-143c96.667 -34 192 -51 286 -51c60.667 0 115.5 9.16699 164.5 27.5s73.5 43.833 73.5 76.5c0 27.333 -9.66699 46 -29 56
c-18.667 10.667 -40.167 17.834 -64.5 21.501s-54.666 5.83398 -90.999 6.50098s-60.166 1.33398 -71.499 2.00098l-53 4.5c-11.333 1 -30.666 3.33301 -57.999 7s-48.833 7.5 -64.5 11.5s-36.167 9.83301 -61.5 17.5s-45.833 16 -61.5 25s-32.834 20.667 -51.501 35
s-33 29.833 -43 46.5s-18.667 36.5 -26 59.5s-11 47.833 -11 74.5c0 48.667 11.5 91.667 34.5 129s53.333 66.666 91 87.999s78.334 37.333 122.001 48s88.834 16 135.501 16c90.667 0 176.667 -16 258 -48v48h188v-357h-188v115c-70 34 -150.667 51 -242 51
c-16 0 -34.167 -1.16699 -54.5 -3.5s-44 -6.33301 -71 -12s-49.333 -15.334 -67 -29.001s-26.5 -30.167 -26.5 -49.5c0 -51.333 62 -82 186 -92l256 -21c69.333 -5.33301 127.666 -30.333 174.999 -75s71 -103 71 -175z" />
    <glyph glyph-name="t" unicode="t" 
d="M1120 98l-106.999 -44.502c-27.333 -11 -62 -23.5 -104 -37.5s-82.5 -24.333 -121.5 -31s-76.833 -10 -113.5 -10c-32.667 0 -63.334 2 -92.001 6s-59.667 12.833 -93 26.5s-61.666 31.834 -84.999 54.501s-42.833 54 -58.5 94s-23.5 87 -23.5 141v401h-129v191h129v272
h190v-272h487v-191h-487v-356c0 -21.333 0.666992 -39 2 -53s5.16602 -29.667 11.499 -47s15 -31.166 26 -41.499s27 -19 48 -26s46.5 -10.5 76.5 -10.5c90 0 227 41 411 123z" />
    <glyph glyph-name="u" unicode="u" 
d="M1174 0h-346.995v63c-87.333 -58.667 -177.333 -88 -270 -88c-72 0 -139.833 16.167 -203.5 48.5s-106.5 79.833 -128.5 142.5c-13.333 38.667 -20 91.334 -20 158.001v374h-160v191h346v-570c0 -12.667 0.5 -24.167 1.5 -34.5s4.66699 -23.833 11 -40.5
s15.166 -30.334 26.499 -41.001s28.166 -20.167 50.499 -28.5s49.166 -12.5 80.499 -12.5c55.333 0 102.666 10.833 141.999 32.5s80.666 52.5 123.999 92.5v411h-155v191h344v-699h158v-190z" />
    <glyph glyph-name="v" unicode="v" 
d="M1204 698h-166l-340 -698h-155l-350 698h-168v191h505v-191h-131l226 -460l225 460h-119v191h473v-191z" />
    <glyph glyph-name="w" unicode="w" 
d="M1243 698h-96l-217 -698h-152l-168 408l-147 -408h-156l-223 698h-96v191h428v-191h-140l121 -374l156 424h129l168 -424l119 374h-142v191h416v-191z" />
    <glyph glyph-name="x" unicode="x" 
d="M1190 0h-475v190h55l-160 156l-157 -156h59v-190h-475v190h168l278 271l-250 237h-167v191h462v-191h-41l127 -114l119 114h-35v191h441v-191h-162l-242 -233l291 -275h164v-190z" />
    <glyph glyph-name="y" unicode="y" 
d="M1206 698h-149l-525 -882h134v-191h-570v191h226l170 280l-328 602h-150v191h455v-191h-96l225 -422l252 422h-90v191h446v-191z" />
    <glyph glyph-name="z" unicode="z" 
d="M1036 0h-848v145l551 555h-333v-151h-189v340h819v-137l-553 -562h365v170h188v-360z" />
    <glyph glyph-name="braceleft" unicode="{" 
d="M981 -467c-11.333 0.666992 -37 1.33203 -77 1.99902s-70.333 1.5 -91 2.5s-46.667 4.33301 -78 10s-58.666 13.167 -81.999 22.5c-52.667 21.333 -92.667 56.166 -120 104.499s-41 98.833 -41 151.5v240c0 50.667 -1.16699 91.834 -3.5 123.501
s-8.16602 64.334 -17.499 98.001s-22.666 60.5 -39.999 80.5s-41.166 37.667 -71.499 53s-67.5 26 -111.5 32v192c44 6 81.167 16.667 111.5 32s54.166 33 71.499 53s30.666 46.833 39.999 80.5s15.166 66.334 17.499 98.001s3.5 72.834 3.5 123.501v240
c0 52.667 13.667 103.167 41 151.5s67.333 83.166 120 104.499c23.333 9.33301 50.666 16.833 81.999 22.5s57.333 9 78 10s51 1.83301 91 2.5s65.667 1.33398 77 2.00098v-191c-13.333 -0.666992 -38.166 -1 -74.499 -1s-66.833 -1.33301 -91.5 -4
s-48.667 -7.66699 -72 -15c-40.667 -12 -61 -49.667 -61 -113v-303c0 -78.667 -18 -154.167 -54 -226.5s-85.667 -125.833 -149 -160.5c62.667 -34.667 112.167 -88.834 148.5 -162.501s54.5 -149.834 54.5 -228.501v-303c0 -63.333 20.333 -101 61 -113
c23.333 -7.33301 47.333 -12.333 72 -15s55.167 -4 91.5 -4s61.166 -0.333008 74.499 -1v-191z" />
    <glyph glyph-name="bar" unicode="|" 
d="M668 -510h-105v2046h105v-2046z" />
    <glyph glyph-name="braceright" unicode="}" 
d="M981 453c-44 -6 -81.167 -16.665 -111.5 -31.998s-54.166 -33 -71.499 -53s-30.666 -46.833 -39.999 -80.5s-15.166 -66.334 -17.499 -98.001s-3.5 -72.834 -3.5 -123.501v-240c0 -52.667 -13.833 -103.167 -41.5 -151.5s-67.834 -83.166 -120.501 -104.499
c-23.333 -9.33301 -50.666 -16.833 -81.999 -22.5s-57.166 -9 -77.499 -10s-50.5 -1.83301 -90.5 -2.5s-65.667 -1.33398 -77 -2.00098v191c13.333 0.666992 38.166 1 74.499 1s66.666 1.33301 90.999 4s48.166 7.66699 71.499 15c21.333 6.66699 37 20.667 47 42
s15 45 15 71v303c0 78.667 18.167 154.834 54.5 228.501s85.833 127.834 148.5 162.501c-63.333 34.667 -113 88.167 -149 160.5s-54 147.833 -54 226.5v303c0 26 -5 49.667 -15 71s-25.667 35.333 -47 42c-23.333 7.33301 -47.166 12.333 -71.499 15s-54.666 4 -90.999 4
s-61.166 0.333008 -74.499 1v191c11.333 -0.666992 37 -1.33398 77 -2.00098s70.167 -1.5 90.5 -2.5s46.166 -4.33301 77.499 -10s58.666 -13.167 81.999 -22.5c52.667 -21.333 92.834 -56.166 120.501 -104.499s41.5 -98.833 41.5 -151.5v-240
c0 -50.667 1.16699 -91.834 3.5 -123.501s8.16602 -64.334 17.499 -98.001s22.666 -60.5 39.999 -80.5s41.166 -37.667 71.499 -53s67.5 -26 111.5 -32v-192z" />
    <glyph glyph-name="asciitilde" unicode="~" 
d="M1071 528c-32.667 -74 -72.999 -130.001 -120.999 -168.001s-95 -57 -141 -57c-30 0 -93.5 18.5 -190.5 55.5s-152.833 55.5 -167.5 55.5c-15.333 0 -29.5 -3.16699 -42.5 -9.5s-25 -16 -36 -29s-20.333 -25 -28 -36s-16.5 -25.5 -26.5 -43.5s-17.667 -30.667 -23 -38
l-131 111c16 26.667 27.167 44.834 33.5 54.501s18 26.5 35 50.5s31.667 41.5 44 52.5s27.5 23.667 45.5 38s37 24.5 57 30.5s41 9 63 9c34.667 0 101.667 -18.667 201 -56s154.666 -56 165.999 -56c7.33301 0 14.833 1.83301 22.5 5.5s15.667 9.33398 24 17.001l22 21
c6.33301 6.33301 13.833 15.5 22.5 27.5l19 26.5c4 5.66699 10 14.667 18 27s12.333 19.166 13 20.499z" />
    <glyph glyph-name="uni00A0" unicode="&#xa0;" 
 />
    <glyph glyph-name="exclamdown" unicode="&#xa1;" 
d="M805 762c0 -40 -16.834 -76.332 -50.501 -108.999s-79.167 -49 -136.5 -49c-55.333 0 -100.166 15.5 -134.499 46.5s-51.5 67.5 -51.5 109.5c0 46 17.667 83.333 53 112s79 43 131 43c27.333 0 54.5 -4.5 81.5 -13.5s51.667 -25.833 74 -50.5s33.5 -54.334 33.5 -89.001z
M744.999 -278.999h-256l37 799h185z" />
    <glyph glyph-name="cent" unicode="&#xa2;" 
d="M1079 324c-112.667 -82.667 -229.336 -133.333 -350.003 -152v-278h-188v280c-19.333 5.33301 -35.666 10.333 -48.999 15s-32.833 12.5 -58.5 23.5s-47.834 22.667 -66.501 35s-39.167 29 -61.5 50s-40.5 43.667 -54.5 68s-25.833 54 -35.5 89s-14.5 72.5 -14.5 112.5
c0 96.667 29 182 87 256s142.333 123.333 253 148v268h188v-270c33.333 -5.33301 73 -15 119 -29v64h184v-359h-184v113c-69.333 35.333 -136.333 53 -201 53c-75.333 0 -137.166 -24.167 -185.499 -72.5s-72.5 -105.5 -72.5 -171.5c0 -12 1.33301 -26 4 -42
s9.33398 -35.833 20.001 -59.5s24.334 -45 41.001 -64s41 -35.333 73 -49s68.667 -20.5 110 -20.5c40.667 0 81 6.33301 121 19s73.833 26.5 101.5 41.5s71.5 40.5 131.5 76.5z" />
    <glyph glyph-name="sterling" unicode="&#xa3;" 
d="M1120 129c-86.667 -102.667 -178.669 -154 -276.002 -154c-29.333 0 -77.166 10.333 -143.499 31s-112.166 31 -137.499 31c-59.333 0 -137 -30.667 -233 -92l-101 131c109.333 98 164 217.333 164 358c0 37.333 -6 74.333 -18 111h-209v190h153
c-14.667 57.333 -22 107.333 -22 150c0 46 9 90.833 27 134.5s43.333 82.834 76 117.501s74.667 62.667 126 84s108 32 170 32c46.667 0 90.5 -6.16699 131.5 -18.5s74.5 -26.5 100.5 -42.5s50 -35.333 72 -58s37.667 -40.667 47 -54s18 -27.333 26 -42l25 -45l-162 -75
c-1.33301 2 -7.5 12 -18.5 30s-20.5 31 -28.5 39c-46.667 50.667 -109.667 76 -189 76c-61.333 0 -112.5 -16.167 -153.5 -48.5s-61.5 -77.5 -61.5 -135.5c0 -44 9.66699 -92 29 -144h440v-190h-389c10 -50 15 -94.333 15 -133c0 -71.333 -23.333 -144.333 -70 -219
c36 17.333 68 26 96 26c17.333 0 56.333 -8.83301 117 -26.5s98.334 -26.5 113.001 -26.5c6.66699 0 13.5 0.5 20.5 1.5s13.5 2.16699 19.5 3.5s12.5 3.66602 19.5 6.99902s12.833 6 17.5 8s10.834 5.66699 18.501 11l16 11c3 2 8.5 6.16699 16.5 12.5
s13.167 10.333 15.5 12s7.66602 6.16699 15.999 13.5s13.166 11.333 14.499 12z" />
    <glyph glyph-name="currency" unicode="&#xa4;" 
d="M1161 301l-131.001 -135.002l-137 133c-79.333 -60 -171.666 -90 -276.999 -90c-104 0 -196 29.333 -276 88l-135 -131l-135 131l141 135c-54.667 83.333 -82 173.333 -82 270c0 94.667 26.667 184.334 80 269.001l-139 133l133 135l135 -131
c81.333 58.667 174 88 278 88c106 0 199.667 -30.667 281 -92l137 135l127 -131l-139 -133c54.667 -83.333 82 -174.333 82 -273c0 -97.333 -27.333 -186.666 -82 -267.999zM904.999 701.998c0 80 -28.167 148.167 -84.5 204.5s-124.5 84.5 -204.5 84.5
s-148 -28.167 -204 -84.5s-84 -124.5 -84 -204.5s28 -148 84 -204s124 -84 204 -84s148.167 28 204.5 84s84.5 124 84.5 204z" />
    <glyph glyph-name="yen" unicode="&#xa5;" 
d="M1184 1040h-150l-313 -399h272v-117h-282v-114h282v-117h-282v-103h221v-190h-625v190h221v103h-284v117h284v114h-284v117h280l-317 399h-158v191h469v-191h-88l191 -254l188 254h-86v191h461v-191z" />
    <glyph glyph-name="brokenbar" unicode="&#xa6;" 
d="M668 569h-105v914h105v-914zM668 -459h-105v914h105v-914z" />
    <glyph glyph-name="section" unicode="&#xa7;" 
d="M1040 426c0 -48.667 -12.668 -89.9971 -38.001 -123.997s-53.333 -58.333 -84 -73c22 -23.333 38.333 -46.333 49 -69s16 -52 16 -88c0 -134 -98.333 -201 -295 -201h-440v350h188v-160h328c22 0 33 7 33 21c0 8.66699 -2.5 16 -7.5 22s-17.5 16.333 -37.5 31l-375 279
c-49.333 37.333 -85.166 71.666 -107.499 102.999s-33.5 70.666 -33.5 117.999c0 28 3.5 53.5 10.5 76.5s17.167 42.833 30.5 59.5s25 29.5 35 38.5s22.667 19.167 38 30.5c-52 49.333 -78 97 -78 143c0 30 4.33301 57 13 81s19.834 42.833 33.501 56.5s24.5 23.5 32.5 29.5
s16 11 24 15c40.667 20.667 98.667 31 174 31h450v-348h-188v158h-309c-27.333 0 -41 -8.33301 -41 -25c0 -2.66699 0.666992 -5.33398 2 -8.00098s2.66602 -4.66699 3.99902 -6l2 -2l467 -353c69.333 -53.333 104 -115.333 104 -186zM857.999 426.003
c0 17.333 -9 32.333 -27 45l-333 248c-1.33301 -0.666992 -4.66602 -2.5 -9.99902 -5.5s-9.33301 -5.16699 -12 -6.5s-6.66699 -3.83301 -12 -7.5s-9.33301 -6.66699 -12 -9s-6 -5.5 -10 -9.5s-6.83301 -7.83301 -8.5 -11.5s-3.33398 -8 -5.00098 -13
s-2.5 -10.167 -2.5 -15.5c0 -24.667 12.333 -45.667 37 -63l299 -224c64 8 96 32 96 72z" />
    <glyph glyph-name="dieresis" unicode="&#xa8;" 
d="M905 1049h-219v262h219v-262zM547 1049h-219v262h219v-262z" />
    <glyph glyph-name="copyright" unicode="&#xa9;" 
d="M1092 1044c0 -86.667 -21.332 -166.832 -63.999 -240.499s-100.667 -131.834 -174 -174.501s-153.333 -64 -240 -64c-64.667 0 -126.5 12.667 -185.5 38s-109.833 59.333 -152.5 102s-76.5 93.667 -101.5 153s-37.5 121.333 -37.5 186
c0 86.667 21.167 166.834 63.5 240.501s100.166 132 173.499 175s153.333 64.5 240 64.5s166.667 -21.5 240 -64.5s131.333 -101.333 174 -175s64 -153.834 64 -240.501zM1020 1044c0 112.667 -39.501 208.834 -118.501 288.501s-174.833 119.5 -287.5 119.5
c-112 0 -207.5 -39.833 -286.5 -119.5s-118.5 -175.834 -118.5 -288.501s39.333 -208.667 118 -288s174.334 -119 287.001 -119s208.5 39.667 287.5 119s118.5 175.333 118.5 288zM838 868.002c-15.333 -20 -41.166 -39.001 -77.499 -57.001s-75.5 -27 -117.5 -27
c-78.667 0 -143 27.833 -193 83.5s-75 120.167 -75 193.5c0 76 26.333 140.333 79 193s113.667 79 183 79c71.333 0 135.333 -26 192 -78l-59 -61c-42 42 -87 63 -135 63c-50.667 0 -94.334 -19.667 -131.001 -59s-55 -85.666 -55 -138.999c0 -54 17.833 -101 53.5 -141
s80.5 -60 134.5 -60c50.667 0 97 23.333 139 70z" />
    <glyph glyph-name="ordfeminine" unicode="&#xaa;" 
d="M901 709l-207 0.000976562v59c-43.333 -48 -89 -72 -137 -72c-56.667 0 -103.667 19.667 -141 59s-56 85.333 -56 138c0 20 3.33301 39.5 10 58.5s17.667 38.333 33 58s38.666 35.5 69.999 47.5s68.333 18 111 18c40.667 0 77.334 -4.66699 110.001 -14v12
c0 42.667 -31.333 64 -94 64c-33.333 0 -72.333 -7.66699 -117 -23l-49 -18l-45 116c78.667 27.333 149 41 211 41c66.667 0 118 -13.667 154 -41c18 -14 31.5 -32.167 40.5 -54.5s14.333 -41.833 16 -58.5s2.5 -38.334 2.5 -65.001v-207h88v-118zM694 950.001
c-35.333 5.33301 -64.667 8 -88 8c-35.333 0 -65 -6.33301 -89 -19s-36 -32.667 -36 -60c0 -16 6.33301 -30.333 19 -43s31 -19 55 -19c29.333 0 57 14 83 42s44.667 58.333 56 91z" />
    <glyph glyph-name="guillemotleft" unicode="&#xab;" 
d="M1151 184l-107 -135l-501 412l495 405l109 -137l-342 -270zM692 184l-106 -135l-502 412l496 405l108 -137l-344 -270z" />
    <glyph glyph-name="logicalnot" unicode="&#xac;" 
d="M1055 193h-189v350h-690v190h879v-540z" />
    <glyph glyph-name="uni00AD" unicode="&#xad;" 
d="M942 389h-653v189h653v-189z" />
    <glyph glyph-name="registered" unicode="&#xae;" 
d="M1092 1044c0 -86.667 -21.332 -166.832 -63.999 -240.499s-100.667 -131.834 -174 -174.501s-153.333 -64 -240 -64c-64.667 0 -126.5 12.667 -185.5 38s-109.833 59.333 -152.5 102s-76.5 93.667 -101.5 153s-37.5 121.333 -37.5 186
c0 86.667 21.167 166.834 63.5 240.501s100.166 132 173.499 175s153.333 64.5 240 64.5s166.667 -21.5 240 -64.5s131.333 -101.333 174 -175s64 -153.834 64 -240.501zM1020 1044c0 112.667 -39.501 208.834 -118.501 288.501s-174.833 119.5 -287.5 119.5
c-112 0 -207.5 -39.833 -286.5 -119.5s-118.5 -175.834 -118.5 -288.501s39.333 -208.667 118 -288s174.334 -119 287.001 -119s208.5 39.667 287.5 119s118.5 175.333 118.5 288zM791 809.002l-93.001 0.00195312l-82 207h-86v-207h-75v502h116
c73.333 0 123.333 -7.66699 150 -23c20.667 -12 36.334 -29.5 47.001 -52.5s16 -46.5 16 -70.5c0 -40.667 -8.33301 -71.334 -25 -92.001s-35.667 -34.334 -57 -41.001zM710.999 1161c0 32 -8.83203 52.6709 -26.499 62.0039s-43.834 14 -78.501 14h-76v-145h78
c12 0 21 0.166992 27 0.5s14.667 1.66602 26 3.99902s20 5.66602 26 9.99902s11.5 11.166 16.5 20.499s7.5 20.666 7.5 33.999z" />
    <glyph glyph-name="macron" unicode="&#xaf;" 
d="M1044 1024h-860v186h860v-186z" />
    <glyph glyph-name="degree" unicode="&#xb0;" 
d="M920 946c0 -85.333 -29.833 -157.833 -89.5 -217.5s-131.834 -89.5 -216.501 -89.5c-85.333 0 -157.833 29.833 -217.5 89.5s-89.5 132.167 -89.5 217.5s29.833 157.833 89.5 217.5s132.167 89.5 217.5 89.5c84.667 0 156.834 -29.833 216.501 -89.5
s89.5 -132.167 89.5 -217.5zM772 946c0 44 -15.333 81.333 -46 112s-68 46 -112 46s-81.167 -15.333 -111.5 -46s-45.5 -68 -45.5 -112s15.167 -81.333 45.5 -112s67.5 -46 111.5 -46s81.333 15.333 112 46s46 68 46 112z" />
    <glyph glyph-name="plusminus" unicode="&#xb1;" 
d="M1059 358h-348v-348h-191v348h-348v191h348v348h191v-348h348v-191zM1059 -260h-887v190h887v-190z" />
    <glyph glyph-name="twosuperior" unicode="&#xb2;" 
d="M776 541l-488.999 -0.000976562v116l307 269c30 28 45 58 45 90s-10.333 54.667 -31 68s-44.334 20 -71.001 20c-21.333 0 -38.833 -2.83301 -52.5 -8.5s-23.167 -13.5 -28.5 -23.5s-8.66602 -18.833 -9.99902 -26.5s-2 -16.834 -2 -27.501v-21h-139v127
c61.333 79.333 138.666 119 231.999 119c36 0 68.5 -5.83301 97.5 -17.5s51.833 -26.167 68.5 -43.5s30.667 -36.666 42 -57.999s19 -40.666 23 -57.999s6 -33.333 6 -48c0 -37.333 -8.5 -72.5 -25.5 -105.5s-38.5 -60.167 -64.5 -81.5l-182 -155h274v-135z" />
    <glyph glyph-name="threesuperior" unicode="&#xb3;" 
d="M782 756c0 -64.667 -24.001 -119.832 -72.001 -165.499s-111.333 -68.5 -190 -68.5c-62.667 0 -144.667 23.333 -246 70l56 129c81.333 -40 148 -60.667 200 -62h5c32.667 0 58.834 9.33301 78.501 28s29.5 41.667 29.5 69c0 25.333 -8.5 46.333 -25.5 63
s-43.167 25 -78.5 25h-95v135h68c0.666992 0 1.83398 -0.333008 3.50098 -1s3.16699 -1 4.5 -1c26 0 47.5 5.66699 64.5 17s25.5 29 25.5 53c0 22 -7 37.667 -21 47s-30 14 -48 14c-18.667 0 -40 -4.66699 -64 -14s-41.833 -17.333 -53.5 -24s-31.167 -18.667 -58.5 -36
l-74 117c86.667 61.333 165.667 92 237 92c57.333 0 108.666 -17.667 153.999 -53c44 -36 66 -83 66 -141c0 -54 -16 -95 -48 -123c54.667 -44.667 82 -101.334 82 -170.001z" />
    <glyph glyph-name="acute" unicode="&#xb4;" 
d="M1028 1171l-622 -157l-46 123l586 252z" />
    <glyph glyph-name="mu" unicode="&#xb5;" 
d="M1182 0h-353.001v90c-40 -38 -81 -66.667 -123 -86s-93 -29 -153 -29c-57.333 0 -108.666 21.333 -153.999 64v-381h-192v1040h-160v191h352v-563c0 -50.667 14.5 -91.667 43.5 -123s69.167 -47 120.5 -47c56.667 0 105 8.66699 145 26s80.333 45.333 121 84v432h-159
v191h352v-699h160v-190z" />
    <glyph glyph-name="paragraph" unicode="&#xb6;" 
d="M1044 1440l-89.999 0.00488281v-1755h-77v1755h-142v-1755h-80v888c-68 10.667 -128.5 28.167 -181.5 52.5s-96 51.666 -129 81.999s-60.333 64.666 -82 102.999s-36.667 75.666 -45 111.999s-12.5 73.5 -12.5 111.5c0 95.333 23 178.666 69 249.999
c37.333 58 86.333 105.667 147 143s123.167 63.166 187.5 77.499s133.166 21.5 206.499 21.5h229v-86z" />
    <glyph glyph-name="periodcentered" unicode="&#xb7;" 
d="M809 621c0 -46 -18.167 -85.501 -54.5 -118.501s-80.833 -49.5 -133.5 -49.5c-34.667 0 -65.5 6 -92.5 18s-47.833 27 -62.5 45s-25.667 35.833 -33 53.5s-11 33.834 -11 48.501c0 45.333 18.167 85.5 54.5 120.5s82.833 52.5 139.5 52.5
c59.333 0 106.333 -17.333 141 -52s52 -74 52 -118z" />
    <glyph glyph-name="cedilla" unicode="&#xb8;" 
d="M836 -219c0 -58 -17.332 -106.668 -51.999 -146.001s-81 -59 -139 -59c-56 0 -108 19 -156 57l72 115c34 -20.667 60 -31 78 -31c31.333 0 47 14.333 47 43s-17 43 -51 43c-8.66699 0 -17.334 -0.833008 -26.001 -2.5s-19 -4 -31 -7s-20.333 -5.16699 -25 -6.5l20 213
h150v-53c10.667 -2.66699 21.167 -6.66699 31.5 -12s22.333 -13.833 36 -25.5s24.667 -28.667 33 -51s12.5 -48.166 12.5 -77.499z" />
    <glyph glyph-name="onesuperior" unicode="&#xb9;" 
d="M811 541h-494v139h185v395l-162 -31v140l299 59v-563h172v-139z" />
    <glyph glyph-name="ordmasculine" unicode="&#xba;" 
d="M887 975c0 -82 -26.5 -149.001 -79.5 -201.001s-116.167 -78 -189.5 -78c-80 0 -146 27 -198 81s-78 120 -78 198c0 32.667 6.16699 65.334 18.5 98.001s29.666 62.5 51.999 89.5s51 48.833 86 65.5s73.5 25 115.5 25c55.333 0 104.333 -14 147 -42
s74.334 -62.833 95.001 -104.5s31 -85.5 31 -131.5zM768 974.999c0 38 -13.6689 73.832 -41.002 107.499s-64.333 50.5 -111 50.5c-47.333 0 -84.666 -16.667 -111.999 -50s-41 -70.666 -41 -111.999c0 -42 13.833 -78.167 41.5 -108.5s64.834 -45.5 111.501 -45.5
c44 0 80.333 14.5 109 43.5s43 67.167 43 114.5z" />
    <glyph glyph-name="guillemotright" unicode="&#xbb;" 
d="M1145 455l-496 -406l-108 137l344 271l-348 274l106 135zM686 455l-496 -406l-108 137l342 271l-346 274l106 135z" />
    <glyph glyph-name="onequarter" unicode="&#xbc;" 
d="M1239 -160h-338v117h117v90h-275v96l281 394h131v-361h84v-129h-84v-90h84v-117zM1018 176v162l-113 -162h113zM1321 1182l-1034 -1368l-142 104l1029 1362zM508 541h-492v139h185v395l-162 -31v140l297 59v-563h172v-139z" />
    <glyph glyph-name="onehalf" unicode="&#xbd;" 
d="M1296 -160l-489.001 -0.000976562v117l307 268c30 28 45 58 45 90s-10.333 54.667 -31 68s-44.334 20 -71.001 20c-21.333 0 -38.666 -2.83301 -51.999 -8.5s-22.666 -13.667 -27.999 -24s-8.66602 -19.166 -9.99902 -26.499s-2 -16.333 -2 -27v-20h-140v127
c61.333 79.333 138.666 119 231.999 119c36 0 68.5 -5.83301 97.5 -17.5s51.833 -26.167 68.5 -43.5s30.667 -36.833 42 -58.5s19 -41.167 23 -58.5s6 -33.333 6 -48c0 -37.333 -8.5 -72.333 -25.5 -105s-38.5 -59.667 -64.5 -81l-182 -156h274v-135zM1247 1182l-1034 -1368
l-141 104l1028 1362zM439.999 540.999h-491v139h184v395l-162 -31v140l299 59v-563h170v-139z" />
    <glyph glyph-name="threequarters" unicode="&#xbe;" 
d="M1200 -158h-338v117h117v90h-274v96l280 398h131v-365h84v-129h-84v-90h84v-117zM979 178v162l-113 -162h113zM1278 1182l-1034 -1368l-144 108l1030 1360zM504 756c0 -65.333 -23.667 -120.666 -71 -165.999s-110.333 -68 -189 -68c-64 0 -146.667 23.333 -248 70
l57 129c81.333 -40 148.333 -60.667 201 -62h4c32.667 0 58.667 9.33301 78 28s29 41.667 29 69c0 25.333 -8.33301 46.333 -25 63s-42.667 25 -78 25h-94v135h68c0.666992 0 1.83398 -0.333008 3.50098 -1s3.16699 -1 4.5 -1c26 0 47.167 5.66699 63.5 17s24.5 29 24.5 53
c0 22 -6.83301 37.667 -20.5 47s-29.5 14 -47.5 14c-18.667 0 -40 -4.66699 -64 -14s-41.833 -17.333 -53.5 -24s-31.167 -18.667 -58.5 -36l-76 117c86.667 61.333 166.667 92 240 92c55.333 0 105.666 -17.667 150.999 -53c44 -36 66 -83 66 -141
c0 -54.667 -15.667 -95.667 -47 -123c54.667 -44.667 82 -101.334 82 -170.001z" />
    <glyph glyph-name="questiondown" unicode="&#xbf;" 
d="M854 760c0 -42.667 -17 -79.6689 -51 -111.002s-79 -47 -135 -47c-32.667 0 -61.334 5.16699 -86.001 15.5s-43.167 22.333 -55.5 36s-22.166 28.834 -29.499 45.501s-11.833 29.5 -13.5 38.5s-2.5 15.833 -2.5 20.5c0 40.667 15 76.667 45 108s76.667 47 140 47
c54 0 98.833 -14.167 134.5 -42.5s53.5 -65.166 53.5 -110.499zM997 -236.002c-50.667 -20 -109.665 -36.502 -176.998 -49.502s-127.666 -19.5 -180.999 -19.5c-121.333 0 -221.333 30.833 -300 92.5s-118 146.834 -118 255.501c0 176 117.333 293.333 352 352v125h189
v-260c-36.667 -6 -65.834 -11.167 -87.501 -15.5s-48.334 -10.666 -80.001 -18.999s-56.834 -17.5 -75.501 -27.5s-37.5 -22.167 -56.5 -36.5s-32.833 -31.5 -41.5 -51.5s-13 -42.333 -13 -67c0 -53.333 21.5 -93 64.5 -119s99.167 -39 168.5 -39
c44.667 0 100.667 6.33301 168 19v135h188v-275z" />
    <glyph glyph-name="Agrave" unicode="&#xc0;" 
d="M1221 0h-478v190h170l-59 140h-475l-60 -140h177v-190h-488v190h121l334 791h-252v190h494l401 -981h115v-190zM778 520l-160 379l-159 -379h319zM956 1407l-51 -123l-616 158l84 219z" />
    <glyph glyph-name="Aacute" unicode="&#xc1;" 
d="M1221 0h-478v190h170l-59 140h-475l-60 -140h177v-190h-488v190h121l334 791h-252v190h494l401 -981h115v-190zM778 520l-160 379l-159 -379h319zM1001 1440l-624 -156l-41 125l584 252z" />
    <glyph glyph-name="Acircumflex" unicode="&#xc2;" 
d="M1221 0h-478v190h170l-59 140h-475l-60 -140h177v-190h-488v190h121l334 791h-252v190h494l401 -981h115v-190zM778 520l-160 379l-159 -379h319zM1012 1360l-117 -76l-297 217l-297 -217l-121 78l324 299h192z" />
    <glyph glyph-name="Atilde" unicode="&#xc3;" 
d="M1221 0h-478v190h170l-59 140h-475l-60 -140h177v-190h-488v190h121l334 791h-252v190h494l401 -981h115v-190zM778 520l-160 379l-159 -379h319zM1061 1538c-16.667 -71.333 -49.667 -131.498 -99 -180.498s-110 -73.5 -182 -73.5c-73.333 0 -146.333 28 -219 84
c-36.667 27.333 -67.334 41 -92.001 41s-44.667 -10.333 -60 -31s-31.666 -53.334 -48.999 -98.001l-172 53c8.66699 30 20.334 58.833 35.001 86.5s33.167 54.167 55.5 79.5s50 45.666 83 60.999s68.833 23 107.5 23c54.667 0 104.334 -14.333 149.001 -43
c9.33301 -5.33301 23 -14.166 41 -26.499s32.333 -21.833 43 -28.5s23.167 -12.834 37.5 -18.501s27.166 -8.5 38.499 -8.5c49.333 0 87.666 44.333 114.999 133z" />
    <glyph glyph-name="Adieresis" unicode="&#xc4;" 
d="M1221 0h-478v190h170l-59 140h-475l-60 -140h177v-190h-488v190h121l334 791h-252v190h494l401 -981h115v-190zM778 520l-160 379l-159 -379h319zM885 1352h-219v264h219v-264zM526 1352h-219v264h219v-264z" />
    <glyph glyph-name="Aring" unicode="&#xc5;" 
d="M1221 0h-478v190h170l-59 140h-475l-60 -140h177v-190h-488v190h121l334 791h-252v190h494l401 -981h115v-190zM778 520l-160 379l-159 -379h319zM801 1434c0 -56.667 -20 -105 -60 -145s-88.333 -60 -145 -60s-105 20 -145 60s-60 88.333 -60 145s20 104.834 60 144.501
s88.333 59.5 145 59.5s105 -19.833 145 -59.5s60 -87.834 60 -144.501zM674 1434c0 21.333 -7.66699 39.5 -23 54.5s-33.666 22.5 -54.999 22.5s-39.666 -7.5 -54.999 -22.5s-23 -33.167 -23 -54.5s7.66699 -39.666 23 -54.999s33.666 -23 54.999 -23
s39.666 7.66699 54.999 23s23 33.666 23 54.999z" />
    <glyph glyph-name="AE" unicode="&#xc6;" 
d="M1221 0h-600v332h-218l-57 -144h148v-188h-461v188h123l325 795h-178v188h918v-360h-152v172h-264v-291h53v103h150v-394h-150v103h-53v-316h264v170h152v-358zM621 520v344l-140 -344h140z" />
    <glyph glyph-name="Ccedilla" unicode="&#xc7;" 
d="M1161 158c-70.667 -54.667 -167.668 -105.997 -291.001 -153.997c-50 -18 -98.333 -27 -145 -27h-10l-2 -26c77.333 -19.333 116 -76.666 116 -171.999c0 -62 -18.667 -110.333 -56 -145s-84.666 -52 -141.999 -52c-26 0 -50 3.66699 -72 11s-48 23 -78 47l70 116l35 -18
c16 -9.33301 33 -14 51 -14c14 0 24.333 4.66699 31 14s10 19.666 10 30.999c0 27.333 -17.667 41 -53 41c-10.667 0 -25.334 -2.33301 -44.001 -7s-30.667 -7.33398 -36 -8.00098l16 191c-5.33301 1.33301 -22.166 5.83301 -50.499 13.5s-49.833 14.5 -64.5 20.5
c-102.667 42.667 -185 116 -247 220s-93 218 -93 342c0 80 10.833 154 32.5 222s50.667 125.5 87 172.5s78.666 87.167 126.999 120.5s99 57.833 152 73.5s106.833 23.5 161.5 23.5c117.333 0 214 -29.333 290 -88v88h189v-477h-189v194c-96.667 63.333 -192 95 -286 95
c-32 0 -64.167 -4.33301 -96.5 -13s-65.333 -23.5 -99 -44.5s-63.5 -47 -89.5 -78s-47.167 -71.167 -63.5 -120.5s-24.5 -104 -24.5 -164c0 -34.667 3 -69.334 9 -104.001s17.667 -71.667 35 -111s39.333 -73.833 66 -103.5s62.834 -54.334 108.501 -74.001
s97.834 -29.5 156.501 -29.5c39.333 0 77.5 4 114.5 12s73.167 20.333 108.5 37s62.166 30 80.499 40s42.833 24.667 73.5 44z" />
    <glyph glyph-name="Egrave" unicode="&#xc8;" 
d="M1128 0h-1030v190h162v791h-158v190h1026v-434h-190v244h-489v-291h217v135h190v-458h-190v135h-217v-312h489v238h190v-428zM981 1407l-51 -123l-617 158l84 219z" />
    <glyph glyph-name="Eacute" unicode="&#xc9;" 
d="M1128 0h-1030v190h162v791h-158v190h1026v-434h-190v244h-489v-291h217v135h190v-458h-190v135h-217v-312h489v238h190v-428zM1026 1440l-625 -156l-41 125l584 252z" />
    <glyph glyph-name="Ecircumflex" unicode="&#xca;" 
d="M1128 0h-1030v190h162v791h-158v190h1026v-434h-190v244h-489v-291h217v135h190v-458h-190v135h-217v-312h489v238h190v-428zM1036 1360l-116 -76l-297 217l-297 -217l-121 78l323 299h193z" />
    <glyph glyph-name="Edieresis" unicode="&#xcb;" 
d="M1128 0h-1030v190h162v791h-158v190h1026v-434h-190v244h-489v-291h217v135h190v-458h-190v135h-217v-312h489v238h190v-428zM909 1352h-219v264h219v-264zM551 1352h-219v264h219v-264z" />
    <glyph glyph-name="Igrave" unicode="&#xcc;" 
d="M1049 0h-865v190h338v791h-338v190h865v-190h-332v-791h332v-190zM981 1407l-51 -123l-617 158l84 219z" />
    <glyph glyph-name="Iacute" unicode="&#xcd;" 
d="M1049 0h-865v190h338v791h-338v190h865v-190h-332v-791h332v-190zM1026 1440l-625 -156l-41 125l584 252z" />
    <glyph glyph-name="Icircumflex" unicode="&#xce;" 
d="M1049 0h-865v190h338v791h-338v190h865v-190h-332v-791h332v-190zM1036 1360l-116 -76l-297 217l-297 -217l-121 78l323 299h193z" />
    <glyph glyph-name="Idieresis" unicode="&#xcf;" 
d="M1049 0h-865v190h338v791h-338v190h865v-190h-332v-791h332v-190zM909 1352h-219v264h219v-264zM551 1352h-219v264h219v-264z" />
    <glyph glyph-name="Eth" unicode="&#xd0;" 
d="M1153 608c0 -91.333 -10.333 -172.333 -31 -243s-48.334 -128.667 -83.001 -174s-76.834 -82.5 -126.501 -111.5s-101.667 -49.5 -156 -61.5s-113.166 -18 -176.499 -18h-527v190h162v324h-121v141h121v326h-162v190h578c104.667 0 191.334 -17.667 260.001 -53
c90.667 -46.667 157 -116.167 199 -208.5s63 -192.833 63 -301.5zM965 600c0 54 -6.16895 103.334 -18.502 148.001s-31.166 84.834 -56.499 120.501s-59.666 63.334 -102.999 83.001s-94 29.5 -152 29.5h-232v-326h226v-141h-226v-324h168c52 0 96.333 3.16699 133 9.5
s71 19.166 103 38.499c55.333 35.333 95.5 85.166 120.5 149.499s37.5 135.166 37.5 212.499z" />
    <glyph glyph-name="Ntilde" unicode="&#xd1;" 
d="M1239 981h-158v-981h-180l-528 836v-646h198v-190h-542v190h155v791h-155v190h366l498 -813v623h-191v190h537v-190zM1085 1538c-16.667 -71.333 -49.668 -131.498 -99.001 -180.498s-109.666 -73.5 -180.999 -73.5c-73.333 0 -146.333 28 -219 84
c-36.667 27.333 -67.334 41 -92.001 41s-44.667 -10.333 -60 -31s-31.666 -53.334 -48.999 -98.001l-172 53c8.66699 30 20.334 58.833 35.001 86.5s33.167 54.167 55.5 79.5s50 45.666 83 60.999s68.833 23 107.5 23c54.667 0 104.334 -14.333 149.001 -43
c9.33301 -5.33301 23 -14.166 41 -26.499s32.333 -21.833 43 -28.5s23.167 -12.834 37.5 -18.501s27.166 -8.5 38.499 -8.5c49.333 0 87.666 44.333 114.999 133z" />
    <glyph glyph-name="Ograve" unicode="&#xd2;" 
d="M1159 584c0 -88 -12.3359 -167.831 -37.0029 -239.498s-56.167 -129.834 -94.5 -174.501s-82.166 -82.167 -131.499 -112.5s-97.166 -51.666 -143.499 -63.999s-91.166 -18.5 -134.499 -18.5c-53.333 0 -105.666 7.66699 -156.999 23s-100.5 39.5 -147.5 72.5
s-88.167 72.667 -123.5 119s-63.5 103.166 -84.5 170.499s-31.5 140.666 -31.5 219.999s12.667 155.833 38 229.5s60.666 139 105.999 196s102.666 102.667 171.999 137s145.333 51.5 228 51.5c69.333 0 134 -11.833 194 -35.5s110.833 -55.667 152.5 -96
s77.334 -86.666 107.001 -138.999s51.667 -107.333 66 -165s21.5 -115.834 21.5 -174.501zM972.997 592.002c0 31.333 -3.66602 64.332 -10.999 98.999s-19.833 70.834 -37.5 108.501s-39.5 71.5 -65.5 101.5s-59.833 54.667 -101.5 74s-88.167 29 -139.5 29
c-56 0 -107 -12.667 -153 -38s-83 -58.333 -111 -99s-49.667 -85.334 -65 -134.001s-23 -97.667 -23 -147c0 -52.667 7.5 -103.667 22.5 -153s36.5 -94.5 64.5 -135.5s65 -73.833 111 -98.5s97.333 -37 154 -37c50 0 95.667 9.5 137 28.5s75.166 43.5 101.499 73.5
s48.5 64.333 66.5 103s30.833 76.834 38.5 114.501s11.5 74.5 11.5 110.5zM980.998 1407l-51 -123l-617 158l84 219z" />
    <glyph glyph-name="Oacute" unicode="&#xd3;" 
d="M1159 584c0 -88 -12.3359 -167.831 -37.0029 -239.498s-56.167 -129.834 -94.5 -174.501s-82.166 -82.167 -131.499 -112.5s-97.166 -51.666 -143.499 -63.999s-91.166 -18.5 -134.499 -18.5c-53.333 0 -105.666 7.66699 -156.999 23s-100.5 39.5 -147.5 72.5
s-88.167 72.667 -123.5 119s-63.5 103.166 -84.5 170.499s-31.5 140.666 -31.5 219.999s12.667 155.833 38 229.5s60.666 139 105.999 196s102.666 102.667 171.999 137s145.333 51.5 228 51.5c69.333 0 134 -11.833 194 -35.5s110.833 -55.667 152.5 -96
s77.334 -86.666 107.001 -138.999s51.667 -107.333 66 -165s21.5 -115.834 21.5 -174.501zM972.997 592.002c0 31.333 -3.66602 64.332 -10.999 98.999s-19.833 70.834 -37.5 108.501s-39.5 71.5 -65.5 101.5s-59.833 54.667 -101.5 74s-88.167 29 -139.5 29
c-56 0 -107 -12.667 -153 -38s-83 -58.333 -111 -99s-49.667 -85.334 -65 -134.001s-23 -97.667 -23 -147c0 -52.667 7.5 -103.667 22.5 -153s36.5 -94.5 64.5 -135.5s65 -73.833 111 -98.5s97.333 -37 154 -37c50 0 95.667 9.5 137 28.5s75.166 43.5 101.499 73.5
s48.5 64.333 66.5 103s30.833 76.834 38.5 114.501s11.5 74.5 11.5 110.5zM1026 1440l-625 -156l-41 125l584 252z" />
    <glyph glyph-name="Ocircumflex" unicode="&#xd4;" 
d="M1159 584c0 -88 -12.3359 -167.831 -37.0029 -239.498s-56.167 -129.834 -94.5 -174.501s-82.166 -82.167 -131.499 -112.5s-97.166 -51.666 -143.499 -63.999s-91.166 -18.5 -134.499 -18.5c-53.333 0 -105.666 7.66699 -156.999 23s-100.5 39.5 -147.5 72.5
s-88.167 72.667 -123.5 119s-63.5 103.166 -84.5 170.499s-31.5 140.666 -31.5 219.999s12.667 155.833 38 229.5s60.666 139 105.999 196s102.666 102.667 171.999 137s145.333 51.5 228 51.5c69.333 0 134 -11.833 194 -35.5s110.833 -55.667 152.5 -96
s77.334 -86.666 107.001 -138.999s51.667 -107.333 66 -165s21.5 -115.834 21.5 -174.501zM972.997 592.002c0 31.333 -3.66602 64.332 -10.999 98.999s-19.833 70.834 -37.5 108.501s-39.5 71.5 -65.5 101.5s-59.833 54.667 -101.5 74s-88.167 29 -139.5 29
c-56 0 -107 -12.667 -153 -38s-83 -58.333 -111 -99s-49.667 -85.334 -65 -134.001s-23 -97.667 -23 -147c0 -52.667 7.5 -103.667 22.5 -153s36.5 -94.5 64.5 -135.5s65 -73.833 111 -98.5s97.333 -37 154 -37c50 0 95.667 9.5 137 28.5s75.166 43.5 101.499 73.5
s48.5 64.333 66.5 103s30.833 76.834 38.5 114.501s11.5 74.5 11.5 110.5zM1036 1360l-116 -76l-297 217l-297 -217l-121 78l323 299h193z" />
    <glyph glyph-name="Otilde" unicode="&#xd5;" 
d="M1159 584c0 -88 -12.3359 -167.831 -37.0029 -239.498s-56.167 -129.834 -94.5 -174.501s-82.166 -82.167 -131.499 -112.5s-97.166 -51.666 -143.499 -63.999s-91.166 -18.5 -134.499 -18.5c-53.333 0 -105.666 7.66699 -156.999 23s-100.5 39.5 -147.5 72.5
s-88.167 72.667 -123.5 119s-63.5 103.166 -84.5 170.499s-31.5 140.666 -31.5 219.999s12.667 155.833 38 229.5s60.666 139 105.999 196s102.666 102.667 171.999 137s145.333 51.5 228 51.5c69.333 0 134 -11.833 194 -35.5s110.833 -55.667 152.5 -96
s77.334 -86.666 107.001 -138.999s51.667 -107.333 66 -165s21.5 -115.834 21.5 -174.501zM972.997 592.002c0 31.333 -3.66602 64.332 -10.999 98.999s-19.833 70.834 -37.5 108.501s-39.5 71.5 -65.5 101.5s-59.833 54.667 -101.5 74s-88.167 29 -139.5 29
c-56 0 -107 -12.667 -153 -38s-83 -58.333 -111 -99s-49.667 -85.334 -65 -134.001s-23 -97.667 -23 -147c0 -52.667 7.5 -103.667 22.5 -153s36.5 -94.5 64.5 -135.5s65 -73.833 111 -98.5s97.333 -37 154 -37c50 0 95.667 9.5 137 28.5s75.166 43.5 101.499 73.5
s48.5 64.333 66.5 103s30.833 76.834 38.5 114.501s11.5 74.5 11.5 110.5zM1085 1538c-16.667 -71.333 -49.668 -131.498 -99.001 -180.498s-109.666 -73.5 -180.999 -73.5c-73.333 0 -146.333 28 -219 84c-36.667 27.333 -67.334 41 -92.001 41s-44.667 -10.333 -60 -31
s-31.666 -53.334 -48.999 -98.001l-172 53c8.66699 30 20.334 58.833 35.001 86.5s33.167 54.167 55.5 79.5s50 45.666 83 60.999s68.833 23 107.5 23c54.667 0 104.334 -14.333 149.001 -43c9.33301 -5.33301 23 -14.166 41 -26.499s32.333 -21.833 43 -28.5
s23.167 -12.834 37.5 -18.501s27.166 -8.5 38.499 -8.5c49.333 0 87.666 44.333 114.999 133z" />
    <glyph glyph-name="Odieresis" unicode="&#xd6;" 
d="M1159 584c0 -88 -12.3359 -167.831 -37.0029 -239.498s-56.167 -129.834 -94.5 -174.501s-82.166 -82.167 -131.499 -112.5s-97.166 -51.666 -143.499 -63.999s-91.166 -18.5 -134.499 -18.5c-53.333 0 -105.666 7.66699 -156.999 23s-100.5 39.5 -147.5 72.5
s-88.167 72.667 -123.5 119s-63.5 103.166 -84.5 170.499s-31.5 140.666 -31.5 219.999s12.667 155.833 38 229.5s60.666 139 105.999 196s102.666 102.667 171.999 137s145.333 51.5 228 51.5c69.333 0 134 -11.833 194 -35.5s110.833 -55.667 152.5 -96
s77.334 -86.666 107.001 -138.999s51.667 -107.333 66 -165s21.5 -115.834 21.5 -174.501zM972.997 592.002c0 31.333 -3.66602 64.332 -10.999 98.999s-19.833 70.834 -37.5 108.501s-39.5 71.5 -65.5 101.5s-59.833 54.667 -101.5 74s-88.167 29 -139.5 29
c-56 0 -107 -12.667 -153 -38s-83 -58.333 -111 -99s-49.667 -85.334 -65 -134.001s-23 -97.667 -23 -147c0 -52.667 7.5 -103.667 22.5 -153s36.5 -94.5 64.5 -135.5s65 -73.833 111 -98.5s97.333 -37 154 -37c50 0 95.667 9.5 137 28.5s75.166 43.5 101.499 73.5
s48.5 64.333 66.5 103s30.833 76.834 38.5 114.501s11.5 74.5 11.5 110.5zM908.998 1352h-219v264h219v-264zM550.998 1352h-219v264h219v-264z" />
    <glyph glyph-name="multiply" unicode="&#xd7;" 
d="M1075 125l-125 -125l-323 326l-324 -326l-125 125l324 326l-326 329l125 123l324 -330l325 324l123 -125l-319 -323z" />
    <glyph glyph-name="Oslash" unicode="&#xd8;" 
d="M1159 584c0 -88 -12.334 -167.833 -37.001 -239.5s-56.167 -129.834 -94.5 -174.501s-82.166 -82.167 -131.499 -112.5s-97.166 -51.666 -143.499 -63.999s-91.166 -18.5 -134.499 -18.5c-107.333 0 -207.666 31 -300.999 93l-84 -107l-135 94l99 125
c-82 106 -123 239.333 -123 400c0 79.333 12.667 155.833 38 229.5s60.666 139 105.999 196s102.666 102.667 171.999 137s145.333 51.5 228 51.5c117.333 0 220.666 -33.333 309.999 -100l82 104l123 -98l-95 -121c80.667 -113.333 121 -245 121 -395zM808.999 946
c-54 38.667 -117.668 58 -191.001 58c-56 0 -107 -12.667 -153 -38s-83 -58.333 -111 -99s-49.667 -85.334 -65 -134.001s-23 -97.667 -23 -147c0 -44 5.33301 -88.667 16 -134s25.334 -82.666 44.001 -111.999zM972.998 592c0 36 -4.99805 75.667 -14.998 119
s-25 80.666 -45 111.999l-479 -606c51.333 -36.667 112.666 -55 183.999 -55c50 0 95.667 9.5 137 28.5s75.166 43.5 101.499 73.5s48.5 64.333 66.5 103s30.833 76.834 38.5 114.501s11.5 74.5 11.5 110.5z" />
    <glyph glyph-name="Ugrave" unicode="&#xd9;" 
d="M1225 981l-156.004 -0.00195312v-600c0 -76 -15.5 -146.333 -46.5 -211s-77.5 -111 -139.5 -139c-83.333 -37.333 -166.666 -56 -249.999 -56c-54.667 0 -103.5 4.83301 -146.5 14.5s-86.5 28.167 -130.5 55.5c-27.333 17.333 -50.666 37.5 -69.999 60.5
s-34.5 46 -45.5 69s-19.5 49.5 -25.5 79.5s-9.83301 57.333 -11.5 82s-2.5 54 -2.5 88v557h-160v190h537v-190h-189v-575c0 -18 0.5 -34 1.5 -48s3.33301 -29.667 7 -47s8.83398 -32.5 15.501 -45.5s16 -26 28 -39s26.333 -23.667 43 -32s37.334 -15.166 62.001 -20.499
s52.334 -8 83.001 -8c50.667 0 92.667 5.66699 126 17s59.166 29.333 77.499 54s31 52.834 38 84.501s10.5 71.167 10.5 118.5v541h-193v190h537v-190zM980.996 1407l-51 -123l-617 158l84 219z" />
    <glyph glyph-name="Uacute" unicode="&#xda;" 
d="M1225 981l-156.004 -0.00195312v-600c0 -76 -15.5 -146.333 -46.5 -211s-77.5 -111 -139.5 -139c-83.333 -37.333 -166.666 -56 -249.999 -56c-54.667 0 -103.5 4.83301 -146.5 14.5s-86.5 28.167 -130.5 55.5c-27.333 17.333 -50.666 37.5 -69.999 60.5
s-34.5 46 -45.5 69s-19.5 49.5 -25.5 79.5s-9.83301 57.333 -11.5 82s-2.5 54 -2.5 88v557h-160v190h537v-190h-189v-575c0 -18 0.5 -34 1.5 -48s3.33301 -29.667 7 -47s8.83398 -32.5 15.501 -45.5s16 -26 28 -39s26.333 -23.667 43 -32s37.334 -15.166 62.001 -20.499
s52.334 -8 83.001 -8c50.667 0 92.667 5.66699 126 17s59.166 29.333 77.499 54s31 52.834 38 84.501s10.5 71.167 10.5 118.5v541h-193v190h537v-190zM1026 1440l-625 -156l-41 125l584 252z" />
    <glyph glyph-name="Ucircumflex" unicode="&#xdb;" 
d="M1225 981l-156.004 -0.00195312v-600c0 -76 -15.5 -146.333 -46.5 -211s-77.5 -111 -139.5 -139c-83.333 -37.333 -166.666 -56 -249.999 -56c-54.667 0 -103.5 4.83301 -146.5 14.5s-86.5 28.167 -130.5 55.5c-27.333 17.333 -50.666 37.5 -69.999 60.5
s-34.5 46 -45.5 69s-19.5 49.5 -25.5 79.5s-9.83301 57.333 -11.5 82s-2.5 54 -2.5 88v557h-160v190h537v-190h-189v-575c0 -18 0.5 -34 1.5 -48s3.33301 -29.667 7 -47s8.83398 -32.5 15.501 -45.5s16 -26 28 -39s26.333 -23.667 43 -32s37.334 -15.166 62.001 -20.499
s52.334 -8 83.001 -8c50.667 0 92.667 5.66699 126 17s59.166 29.333 77.499 54s31 52.834 38 84.501s10.5 71.167 10.5 118.5v541h-193v190h537v-190zM1036 1360l-116 -76l-297 217l-297 -217l-121 78l323 299h193z" />
    <glyph glyph-name="Udieresis" unicode="&#xdc;" 
d="M1225 981l-156.004 -0.00195312v-600c0 -76 -15.5 -146.333 -46.5 -211s-77.5 -111 -139.5 -139c-83.333 -37.333 -166.666 -56 -249.999 -56c-54.667 0 -103.5 4.83301 -146.5 14.5s-86.5 28.167 -130.5 55.5c-27.333 17.333 -50.666 37.5 -69.999 60.5
s-34.5 46 -45.5 69s-19.5 49.5 -25.5 79.5s-9.83301 57.333 -11.5 82s-2.5 54 -2.5 88v557h-160v190h537v-190h-189v-575c0 -18 0.5 -34 1.5 -48s3.33301 -29.667 7 -47s8.83398 -32.5 15.501 -45.5s16 -26 28 -39s26.333 -23.667 43 -32s37.334 -15.166 62.001 -20.499
s52.334 -8 83.001 -8c50.667 0 92.667 5.66699 126 17s59.166 29.333 77.499 54s31 52.834 38 84.501s10.5 71.167 10.5 118.5v541h-193v190h537v-190zM908.996 1352h-219v264h219v-264zM550.996 1352h-219v264h219v-264z" />
    <glyph glyph-name="Yacute" unicode="&#xdd;" 
d="M1194 981h-158l-319 -528v-263h244v-190h-682v190h247v263l-319 528h-154v190h471v-190h-106l207 -346l209 346h-111v190h471v-190zM1026 1440l-625 -156l-41 125l584 252z" />
    <glyph glyph-name="Thorn" unicode="&#xde;" 
d="M1171 596c0 -85.333 -19.833 -151.171 -59.5 -197.504s-99.5 -80.166 -179.5 -101.499c-64.667 -15.333 -134.334 -23 -209.001 -23h-258v-84h266v-190h-713v190h258v791h-253v190h712v-190h-270v-86h172c99.333 0 172.333 -2 219 -6s87.834 -11.667 123.501 -23
s68.5 -27.666 98.5 -48.999s53 -50.666 69 -87.999s24 -81.666 24 -132.999zM983 585.995c0 34 -10.001 59.001 -30.001 75.001s-47 27.667 -81 35c-33.333 7.33301 -77.666 11 -132.999 11h-274v-244h289c63.333 0 111 4.66699 143 14c57.333 19.333 86 55.666 86 108.999z
" />
    <glyph glyph-name="germandbls" unicode="&#xdf;" 
d="M1176 283c0 -88 -38.4961 -161.331 -115.496 -219.998s-178.5 -88 -304.5 -88c-54.667 0 -104.167 6.5 -148.5 19.5s-95.833 37.5 -154.5 73.5l108 137c59.333 -26 129.666 -39 210.999 -39c60.667 0 111.667 10.833 153 32.5s62 49.834 62 84.501
c0 30.667 -14.333 53 -43 67c-22 11.333 -76 32 -162 62l-65.5 25c-15 6 -34.833 14.5 -59.5 25.5s-43.5 21 -56.5 30s-28 20.667 -45 35s-29.667 28.833 -38 43.5s-15.5 32 -21.5 52s-9 41.667 -9 65c0 68 25.333 122 76 162c28 22 69.167 44.5 123.5 67.5
s93.166 42.167 116.499 57.5c13.333 8.66699 20 23.667 20 45c0 24.667 -17.333 41 -52 49s-92.334 12 -173.001 12c-72 0 -124.667 -9.33301 -158 -28c-14 -8 -24 -23 -30 -45s-9 -55 -9 -99v-909h-346v190h160v508h-160v191h160v45c0 60 5.33301 109.833 16 149.5
s29.667 74.334 57 104.001s65.5 51.167 114.5 64.5s110.833 20 185.5 20c81.333 0 150.166 -5.83301 206.499 -17.5s99.833 -29 130.5 -52s52.5 -48.833 65.5 -77.5s19.5 -62.334 19.5 -101.001c0 -48.667 -15 -94.334 -45 -137.001c-16.667 -22 -37.167 -41 -61.5 -57
s-47.333 -27.833 -69 -35.5s-46 -17.5 -73 -29.5s-49.5 -25.333 -67.5 -40c-12 -9.33301 -18 -22.333 -18 -39c0 -14.667 6.66699 -28.167 20 -40.5s28.333 -21.5 45 -27.5c27.333 -12 76.5 -30.333 147.5 -55s124.5 -46.334 160.5 -65.001
c38.667 -20.667 69.5 -50.334 92.5 -89.001s34.5 -80.667 34.5 -126z" />
    <glyph glyph-name="agrave" unicode="&#xe0;" 
d="M971 1137l-45 -123l-623 157l82 218zM1155 0h-342.001v96l-92 -57c-29.333 -18 -67.333 -33.167 -114 -45.5s-92 -18.5 -136 -18.5c-54.667 0 -105 9 -151 27s-83.167 41.5 -111.5 70.5s-50.333 60.667 -66 95s-23.5 68.5 -23.5 102.5c0 8.66699 0.666992 18.667 2 30
s5.5 28 12.5 50s16.333 42.833 28 62.5s29.5 40.834 53.5 63.501s52 42 84 58s73.333 29.333 124 40s107 16 169 16c60 0 133.667 -5 221 -15v25c0 84.667 -67 127 -201 127c-100.667 0 -218 -26.667 -352 -80l-74 164c170 71.333 315 107 435 107
c16 0 31.167 -0.333008 45.5 -1s38 -4 71 -10s62.333 -14.167 88 -24.5s52.167 -26.666 79.5 -48.999s48 -48.833 62 -79.5c9.33301 -20.667 16.333 -45.334 21 -74.001s7.33398 -51.834 8.00098 -69.501s1 -44.5 1 -80.5v-340h158v-190zM812.999 324l0.000976562 60.999
c-10.667 0.666992 -30.834 2.5 -60.501 5.5s-60.167 5.5 -91.5 7.5s-64 3 -98 3c-38.667 0 -76.334 -3.83301 -113.001 -11.5s-69.667 -22 -99 -43s-44 -47.167 -44 -78.5s16 -56.166 48 -74.499s70 -27.5 114 -27.5c116.667 0 231.334 52.667 344.001 158z" />
    <glyph glyph-name="aacute" unicode="&#xe1;" 
d="M1018 1171l-623 -157l-45 123l586 252zM1155 0h-342.001v96l-92 -57c-29.333 -18 -67.333 -33.167 -114 -45.5s-92 -18.5 -136 -18.5c-54.667 0 -105 9 -151 27s-83.167 41.5 -111.5 70.5s-50.333 60.667 -66 95s-23.5 68.5 -23.5 102.5c0 8.66699 0.666992 18.667 2 30
s5.5 28 12.5 50s16.333 42.833 28 62.5s29.5 40.834 53.5 63.501s52 42 84 58s73.333 29.333 124 40s107 16 169 16c60 0 133.667 -5 221 -15v25c0 84.667 -67 127 -201 127c-100.667 0 -218 -26.667 -352 -80l-74 164c170 71.333 315 107 435 107
c16 0 31.167 -0.333008 45.5 -1s38 -4 71 -10s62.333 -14.167 88 -24.5s52.167 -26.666 79.5 -48.999s48 -48.833 62 -79.5c9.33301 -20.667 16.333 -45.334 21 -74.001s7.33398 -51.834 8.00098 -69.501s1 -44.5 1 -80.5v-340h158v-190zM812.999 324l0.000976562 60.999
c-10.667 0.666992 -30.834 2.5 -60.501 5.5s-60.167 5.5 -91.5 7.5s-64 3 -98 3c-38.667 0 -76.334 -3.83301 -113.001 -11.5s-69.667 -22 -99 -43s-44 -47.167 -44 -78.5s16 -56.166 48 -74.499s70 -27.5 114 -27.5c116.667 0 231.334 52.667 344.001 158z" />
    <glyph glyph-name="acircumflex" unicode="&#xe2;" 
d="M1026 1087l-117 -73l-297 219l-297 -219l-120 76l321 301h195zM1155 0h-342.001v96l-92 -57c-29.333 -18 -67.333 -33.167 -114 -45.5s-92 -18.5 -136 -18.5c-54.667 0 -105 9 -151 27s-83.167 41.5 -111.5 70.5s-50.333 60.667 -66 95s-23.5 68.5 -23.5 102.5
c0 8.66699 0.666992 18.667 2 30s5.5 28 12.5 50s16.333 42.833 28 62.5s29.5 40.834 53.5 63.501s52 42 84 58s73.333 29.333 124 40s107 16 169 16c60 0 133.667 -5 221 -15v25c0 84.667 -67 127 -201 127c-100.667 0 -218 -26.667 -352 -80l-74 164
c170 71.333 315 107 435 107c16 0 31.167 -0.333008 45.5 -1s38 -4 71 -10s62.333 -14.167 88 -24.5s52.167 -26.666 79.5 -48.999s48 -48.833 62 -79.5c9.33301 -20.667 16.333 -45.334 21 -74.001s7.33398 -51.834 8.00098 -69.501s1 -44.5 1 -80.5v-340h158v-190z
M812.999 324l0.000976562 60.999c-10.667 0.666992 -30.834 2.5 -60.501 5.5s-60.167 5.5 -91.5 7.5s-64 3 -98 3c-38.667 0 -76.334 -3.83301 -113.001 -11.5s-69.667 -22 -99 -43s-44 -47.167 -44 -78.5s16 -56.166 48 -74.499s70 -27.5 114 -27.5
c116.667 0 231.334 52.667 344.001 158z" />
    <glyph glyph-name="atilde" unicode="&#xe3;" 
d="M1069 1270c-5.33301 -19.333 -11.332 -37.6709 -17.999 -55.0039s-17.834 -39 -33.501 -65s-33 -48.167 -52 -66.5s-44.5 -34.166 -76.5 -47.499s-67 -20 -105 -20c-55.333 0 -106.333 14.333 -153 43c-13.333 8 -28.5 18 -45.5 30l-38.5 27
c-8.66699 6 -19.167 11.333 -31.5 16s-24.5 7 -36.5 7c-15.333 0 -29.666 -4.33301 -42.999 -13c-12.667 -8 -22.834 -17.667 -30.501 -29s-15.834 -27.666 -24.501 -48.999s-14 -34 -16 -38l-170 53c8 20.667 13.667 35 17 43s10.333 23 21 45s20.334 38.667 29.001 50
s20.834 25.5 36.501 42.5s31.667 29.833 48 38.5s36.166 16.334 59.499 23.001s48.333 10 75 10c34 0 71.667 -9 113 -27c12 -6 32 -17.667 60 -35s53.833 -32.166 77.5 -44.499s42.5 -18.5 56.5 -18.5c26 0 46 9 60 27s31.667 52 53 102zM1155 -0.00488281h-342.001v96
l-92 -57c-29.333 -18 -67.333 -33.167 -114 -45.5s-92 -18.5 -136 -18.5c-54.667 0 -105 9 -151 27s-83.167 41.5 -111.5 70.5s-50.333 60.667 -66 95s-23.5 68.5 -23.5 102.5c0 8.66699 0.666992 18.667 2 30s5.5 28 12.5 50s16.333 42.833 28 62.5
s29.5 40.834 53.5 63.501s52 42 84 58s73.333 29.333 124 40s107 16 169 16c60 0 133.667 -5 221 -15v25c0 84.667 -67 127 -201 127c-100.667 0 -218 -26.667 -352 -80l-74 164c170 71.333 315 107 435 107c16 0 31.167 -0.333008 45.5 -1s38 -4 71 -10
s62.333 -14.167 88 -24.5s52.167 -26.666 79.5 -48.999s48 -48.833 62 -79.5c9.33301 -20.667 16.333 -45.334 21 -74.001s7.33398 -51.834 8.00098 -69.501s1 -44.5 1 -80.5v-340h158v-190zM813 323.995l0.000976562 60.999c-10.667 0.666992 -30.834 2.5 -60.501 5.5
s-60.167 5.5 -91.5 7.5s-64 3 -98 3c-38.667 0 -76.334 -3.83301 -113.001 -11.5s-69.667 -22 -99 -43s-44 -47.167 -44 -78.5s16 -56.166 48 -74.499s70 -27.5 114 -27.5c116.667 0 231.334 52.667 344.001 158z" />
    <glyph glyph-name="adieresis" unicode="&#xe4;" 
d="M1155 0h-342.001v96l-92 -57c-29.333 -18 -67.333 -33.167 -114 -45.5s-92 -18.5 -136 -18.5c-54.667 0 -105 9 -151 27s-83.167 41.5 -111.5 70.5s-50.333 60.667 -66 95s-23.5 68.5 -23.5 102.5c0 8.66699 0.666992 18.667 2 30s5.5 28 12.5 50s16.333 42.833 28 62.5
s29.5 40.834 53.5 63.501s52 42 84 58s73.333 29.333 124 40s107 16 169 16c60 0 133.667 -5 221 -15v25c0 84.667 -67 127 -201 127c-100.667 0 -218 -26.667 -352 -80l-74 164c170 71.333 315 107 435 107c16 0 31.167 -0.333008 45.5 -1s38 -4 71 -10
s62.333 -14.167 88 -24.5s52.167 -26.666 79.5 -48.999s48 -48.833 62 -79.5c9.33301 -20.667 16.333 -45.334 21 -74.001s7.33398 -51.834 8.00098 -69.501s1 -44.5 1 -80.5v-340h158v-190zM812.999 324l0.000976562 60.999c-10.667 0.666992 -30.834 2.5 -60.501 5.5
s-60.167 5.5 -91.5 7.5s-64 3 -98 3c-38.667 0 -76.334 -3.83301 -113.001 -11.5s-69.667 -22 -99 -43s-44 -47.167 -44 -78.5s16 -56.166 48 -74.499s70 -27.5 114 -27.5c116.667 0 231.334 52.667 344.001 158zM895 1049h-219v262h219v-262zM537 1049h-220v262h220v-262z
" />
    <glyph glyph-name="aring" unicode="&#xe5;" 
d="M827 1255c0 -58.667 -20.833 -108.834 -62.5 -150.501s-91.834 -62.5 -150.501 -62.5s-108.834 20.833 -150.501 62.5s-62.5 91.834 -62.5 150.501s20.833 108.834 62.5 150.501s91.834 62.5 150.501 62.5s108.834 -20.833 150.501 -62.5s62.5 -91.834 62.5 -150.501z
M700 1255c0 23.333 -8.5 43.5 -25.5 60.5s-37.167 25.5 -60.5 25.5s-43.5 -8.5 -60.5 -25.5s-25.5 -37.167 -25.5 -60.5s8.5 -43.5 25.5 -60.5s37.167 -25.5 60.5 -25.5s43.5 8.5 60.5 25.5s25.5 37.167 25.5 60.5zM1155 0h-342.001v96l-92 -57
c-29.333 -18 -67.333 -33.167 -114 -45.5s-92 -18.5 -136 -18.5c-54.667 0 -105 9 -151 27s-83.167 41.5 -111.5 70.5s-50.333 60.667 -66 95s-23.5 68.5 -23.5 102.5c0 8.66699 0.666992 18.667 2 30s5.5 28 12.5 50s16.333 42.833 28 62.5s29.5 40.834 53.5 63.501
s52 42 84 58s73.333 29.333 124 40s107 16 169 16c60 0 133.667 -5 221 -15v25c0 84.667 -67 127 -201 127c-100.667 0 -218 -26.667 -352 -80l-74 164c170 71.333 315 107 435 107c16 0 31.167 -0.333008 45.5 -1s38 -4 71 -10s62.333 -14.167 88 -24.5
s52.167 -26.666 79.5 -48.999s48 -48.833 62 -79.5c9.33301 -20.667 16.333 -45.334 21 -74.001s7.33398 -51.834 8.00098 -69.501s1 -44.5 1 -80.5v-340h158v-190zM812.999 324l0.000976562 60.999c-10.667 0.666992 -30.834 2.5 -60.501 5.5s-60.167 5.5 -91.5 7.5
s-64 3 -98 3c-38.667 0 -76.334 -3.83301 -113.001 -11.5s-69.667 -22 -99 -43s-44 -47.167 -44 -78.5s16 -56.166 48 -74.499s70 -27.5 114 -27.5c116.667 0 231.334 52.667 344.001 158z" />
    <glyph glyph-name="ae" unicode="&#xe6;" 
d="M1212 45c-62.667 -24 -117.33 -41.6699 -163.997 -53.0029s-95.667 -17 -147 -17c-132.667 0 -231.667 49.333 -297 148c-0.666992 -0.666992 -10 -8.66699 -28 -24s-29.833 -25 -35.5 -29s-17.5 -12.833 -35.5 -26.5s-32.833 -23 -44.5 -28l-45 -19.5
c-18.333 -8 -36.666 -13.5 -54.999 -16.5s-37.5 -4.5 -57.5 -4.5c-82.667 0 -150 26.667 -202 80s-78 119 -78 197c0 38 6.16699 75.333 18.5 112s30.833 71.334 55.5 104.001s59 59.167 103 79.5s94 30.5 150 30.5c21.333 0 40.833 -0.5 58.5 -1.5s36.5 -2.66699 56.5 -5
s34.333 -3.83301 43 -4.5v21c0 56 -8 92.833 -24 110.5s-46.333 26.5 -91 26.5c-26.667 0 -58 -4.83301 -94 -14.5s-63.167 -18.167 -81.5 -25.5l-92.5 -38l-55 189c8.66699 4.66699 27 12.167 55 22.5s69 22 123 35s102.333 19.5 145 19.5
c63.333 0 112.666 -8.16699 147.999 -24.5s67.333 -44.166 96 -83.499c28 34 63.5 60.5 106.5 79.5s86.5 28.5 130.5 28.5c44.667 0 85.5 -9 122.5 -27s67.667 -41.833 92 -71.5s44.666 -63.667 60.999 -102s28.166 -77.333 35.499 -117s11 -79.167 11 -118.5
s-2 -79.666 -6 -120.999h-481v-4c0 -10 1.33301 -21.667 4 -35s8.33398 -29.333 17.001 -48s19.667 -35.5 33 -50.5s32.166 -27.833 56.499 -38.5s52.166 -16 83.499 -16c46.667 0 100.667 11 162 33l84 32zM1008 546.997c-1.33301 12 -3.00098 23.834 -5.00098 35.501
s-6.16699 26.667 -12.5 45s-14.166 34.166 -23.499 47.499s-22.333 25 -39 35s-36 15 -58 15c-44 0 -82.333 -15.5 -115 -46.5s-51 -74.833 -55 -131.5h308zM508.003 271.998l0.000976562 102.999c-24 6.66699 -63 10 -117 10c-32.667 0 -61 -4 -85 -12
s-41.5 -17.167 -52.5 -27.5s-19.667 -22.666 -26 -36.999s-10 -25 -11 -32s-1.5 -13.833 -1.5 -20.5c0 -30 9.33301 -52.833 28 -68.5s38.667 -23.5 60 -23.5c69.333 0 137.666 36 204.999 108z" />
    <glyph glyph-name="ccedilla" unicode="&#xe7;" 
d="M1112 166c-121.333 -98 -251 -158.669 -389 -182.002v-35c43.333 -11.333 73.333 -33 90 -65s25 -66.333 25 -103c0 -54.667 -16.833 -102.167 -50.5 -142.5s-80.5 -60.5 -140.5 -60.5c-56 0 -107.667 19 -155 57l69 117c36.667 -20.667 64 -31 82 -31
c16.667 0 28.334 4.16699 35.001 12.5s10 17.833 10 28.5c0 28.667 -16.333 43 -49 43c-10.667 0 -25.334 -2.16699 -44.001 -6.5s-32 -6.83301 -40 -7.5l12 186c-58 5.33301 -113.5 19.5 -166.5 42.5s-100.333 53.833 -142 92.5s-75 86.834 -100 144.501
s-37.5 120.834 -37.5 189.501c0 57.333 10.667 113.333 32 168s52.5 105 93.5 151s95.5 83 163.5 111s144.333 42 229 42c78.667 0 151.667 -13 219 -39v39h186v-402h-186v162c-69.333 34 -142.333 51 -219 51c-100.667 0 -180.834 -26.833 -240.501 -80.5
s-89.5 -121.834 -89.5 -204.501c0 -60 15.833 -111.667 47.5 -155s71.334 -75 119.001 -95s99.5 -30 155.5 -30c71.333 0 134.833 12.333 190.5 37s117.167 61.334 184.5 110.001z" />
    <glyph glyph-name="egrave" unicode="&#xe8;" 
d="M995 1137l-45 -123l-622 157l82 218zM1145 125c-168.667 -100 -336.668 -150.001 -504.001 -150.001c-81.333 0 -154.833 12.833 -220.5 38.5s-119 60.167 -160 103.5s-72.5 92.666 -94.5 147.999s-33 113.666 -33 174.999c0 60.667 10 117.334 30 170.001
s46.5 97.334 79.5 134.001s71.333 68 115 94s89.167 45.333 136.5 58s95 19 143 19c86 0 164.833 -17.333 236.5 -52s129 -84.167 172 -148.5s64.5 -137.166 64.5 -218.499c0 -50.667 -2 -96 -6 -136h-780c2.66699 -20.667 9.5 -41 20.5 -61s27.667 -40.833 50 -62.5
s54.833 -39.167 97.5 -52.5s92.334 -20 149.001 -20c124 0 263.333 39 418 117zM925.999 550.999l-8 31c-44.667 95.333 -141.667 143 -291 143c-64 0 -123.333 -15 -178 -45s-91.667 -73 -111 -129h588z" />
    <glyph glyph-name="eacute" unicode="&#xe9;" 
d="M1042 1171l-622 -157l-45 123l586 252zM1145 125c-168.667 -100 -336.668 -150.001 -504.001 -150.001c-81.333 0 -154.833 12.833 -220.5 38.5s-119 60.167 -160 103.5s-72.5 92.666 -94.5 147.999s-33 113.666 -33 174.999c0 60.667 10 117.334 30 170.001
s46.5 97.334 79.5 134.001s71.333 68 115 94s89.167 45.333 136.5 58s95 19 143 19c86 0 164.833 -17.333 236.5 -52s129 -84.167 172 -148.5s64.5 -137.166 64.5 -218.499c0 -50.667 -2 -96 -6 -136h-780c2.66699 -20.667 9.5 -41 20.5 -61s27.667 -40.833 50 -62.5
s54.833 -39.167 97.5 -52.5s92.334 -20 149.001 -20c124 0 263.333 39 418 117zM925.999 550.999l-8 31c-44.667 95.333 -141.667 143 -291 143c-64 0 -123.333 -15 -178 -45s-91.667 -73 -111 -129h588z" />
    <glyph glyph-name="ecircumflex" unicode="&#xea;" 
d="M1051 1087l-117 -73l-297 219l-297 -219l-121 76l322 301h194zM1145 125c-168.667 -100 -336.668 -150.001 -504.001 -150.001c-81.333 0 -154.833 12.833 -220.5 38.5s-119 60.167 -160 103.5s-72.5 92.666 -94.5 147.999s-33 113.666 -33 174.999
c0 60.667 10 117.334 30 170.001s46.5 97.334 79.5 134.001s71.333 68 115 94s89.167 45.333 136.5 58s95 19 143 19c86 0 164.833 -17.333 236.5 -52s129 -84.167 172 -148.5s64.5 -137.166 64.5 -218.499c0 -50.667 -2 -96 -6 -136h-780c2.66699 -20.667 9.5 -41 20.5 -61
s27.667 -40.833 50 -62.5s54.833 -39.167 97.5 -52.5s92.334 -20 149.001 -20c124 0 263.333 39 418 117zM925.999 550.999l-8 31c-44.667 95.333 -141.667 143 -291 143c-64 0 -123.333 -15 -178 -45s-91.667 -73 -111 -129h588z" />
    <glyph glyph-name="edieresis" unicode="&#xeb;" 
d="M1145 125c-168.667 -100 -336.668 -150.001 -504.001 -150.001c-81.333 0 -154.833 12.833 -220.5 38.5s-119 60.167 -160 103.5s-72.5 92.666 -94.5 147.999s-33 113.666 -33 174.999c0 60.667 10 117.334 30 170.001s46.5 97.334 79.5 134.001s71.333 68 115 94
s89.167 45.333 136.5 58s95 19 143 19c86 0 164.833 -17.333 236.5 -52s129 -84.167 172 -148.5s64.5 -137.166 64.5 -218.499c0 -50.667 -2 -96 -6 -136h-780c2.66699 -20.667 9.5 -41 20.5 -61s27.667 -40.833 50 -62.5s54.833 -39.167 97.5 -52.5s92.334 -20 149.001 -20
c124 0 263.333 39 418 117zM925.999 550.999l-8 31c-44.667 95.333 -141.667 143 -291 143c-64 0 -123.333 -15 -178 -45s-91.667 -73 -111 -129h588zM919.999 1049h-220v262h220v-262zM560.999 1049h-219v262h219v-262z" />
    <glyph glyph-name="igrave" unicode="&#xec;" 
d="M954 1137l-45 -123l-622 157l82 218zM1049 0h-869v190h338v508h-287v191h478v-699h340v-190z" />
    <glyph glyph-name="iacute" unicode="&#xed;" 
d="M1001 1171l-622 -157l-45 123l586 252zM1049 0h-869v190h338v508h-287v191h478v-699h340v-190z" />
    <glyph glyph-name="icircumflex" unicode="&#xee;" 
d="M1010 1087l-117 -73l-297 219l-297 -219l-121 76l322 301h194zM1049 0h-869v190h338v508h-287v191h478v-699h340v-190z" />
    <glyph glyph-name="idieresis" unicode="&#xef;" 
d="M879 1049h-220v262h220v-262zM520 1049h-219v262h219v-262zM1049 0h-869v190h338v508h-287v191h478v-699h340v-190z" />
    <glyph glyph-name="eth" unicode="&#xf0;" 
d="M1114 496c0 -57.333 -5.99805 -111.67 -17.998 -163.003s-31 -99 -57 -143s-58 -81.833 -96 -113.5s-84.5 -56.5 -139.5 -74.5s-115.833 -27 -182.5 -27c-82.667 0 -157.167 13.167 -223.5 39.5s-119.833 61.666 -160.5 105.999s-71.834 93.833 -93.501 148.5
s-32.5 111.667 -32.5 171c0 62 10.833 120.833 32.5 176.5s53.167 105.834 94.5 150.501s95.333 80.167 162 106.5s141.667 39.5 225 39.5c41.333 0 76.5 -2.83301 105.5 -8.5s51 -12.167 66 -19.5s34.833 -19 59.5 -35c-0.666992 2.66699 -4.33398 9.83398 -11.001 21.501
s-17.167 27.5 -31.5 47.5s-30.333 40.833 -48 62.5s-39.5 44.334 -65.5 68.001s-52.333 43.834 -79 60.501l-238 -133l-70 115l164 94c-69.333 32.667 -138.333 55.667 -207 69l88 111c43.333 -8.66699 91.166 -22.167 143.499 -40.5s93.5 -36.833 123.5 -55.5l268 149
l65 -116l-196 -113c24 -16 49.5 -36.5 76.5 -61.5s57.333 -59.167 91 -102.5s63.834 -89.833 90.501 -139.5s49 -109 67 -178s27 -139.833 27 -212.5zM926.002 443.996c0 34.667 -6.16895 68.168 -18.502 100.501s-30.5 62.166 -54.5 89.499s-56.5 49.333 -97.5 66
s-87.5 25 -139.5 25c-38.667 0 -76.167 -5.66699 -112.5 -17s-69.666 -28.166 -99.999 -50.499s-54.666 -52.5 -72.999 -90.5s-27.5 -81 -27.5 -129c0 -46.667 9 -87.834 27 -123.501s42.333 -64 73 -85s64.667 -36.833 102 -47.5s76.666 -16 117.999 -16
c37.333 0 73.333 5.5 108 16.5s66.834 27.167 96.501 48.5s53.5 50.333 71.5 87s27 78.667 27 126z" />
    <glyph glyph-name="ntilde" unicode="&#xf1;" 
d="M1079 1270c-5.33301 -19.333 -11.3311 -37.668 -17.998 -55.001s-17.667 -39 -33 -65s-32.666 -48 -51.999 -66s-44.833 -33.833 -76.5 -47.5s-66.5 -20.5 -104.5 -20.5c-56 0 -107.333 14.333 -154 43c-13.333 8 -28.5 18 -45.5 30l-38.5 27
c-8.66699 6 -19.167 11.333 -31.5 16s-24.5 7 -36.5 7c-15.333 0 -29.666 -4.33301 -42.999 -13c-12.667 -8 -22.834 -17.667 -30.501 -29s-15.834 -27.666 -24.501 -48.999s-14 -34 -16 -38l-170 53l12.5 33c2.33301 6 7.33301 17.5 15 34.5s14.167 29.667 19.5 38l23.5 36
c10.333 15.667 20 27.5 29 35.5s20.5 17.667 34.5 29s28.333 19.833 43 25.5s31.5 10.5 50.5 14.5s38.833 6 59.5 6c33.333 0 70.666 -9 111.999 -27c12 -5.33301 32.167 -16.833 60.5 -34.5s54.333 -32.667 78 -45s42.5 -18.5 56.5 -18.5s25.833 2.16699 35.5 6.5
s19.167 13.333 28.5 27s16.666 26.167 21.999 37.5l26 58zM1180 -0.00195312h-498v190h156v394c0 23.333 -1.5 42.333 -4.5 57s-9.33301 29.167 -19 43.5s-25 25 -46 32s-47.833 10.5 -80.5 10.5c-38.667 0 -85.667 -9 -141 -27s-105.333 -46.667 -150 -86v-424h160v-190
h-506v190h158v508h-162v191h350v-66c94 61.333 197.333 92 310 92c122.667 0 212 -38 268 -114c34 -56 51 -114 51 -174v-437h154v-190z" />
    <glyph glyph-name="ograve" unicode="&#xf2;" 
d="M981 1137l-45 -123l-623 157l82 218zM1137 446c0 -64 -10.168 -122.671 -30.501 -176.004s-47.333 -97.833 -81 -133.5s-72.667 -66 -117 -91s-90.166 -43 -137.499 -54s-95.333 -16.5 -144 -16.5c-46.667 0 -93.834 5 -141.501 15s-95.5 26.833 -143.5 50.5
s-90.5 52.834 -127.5 87.501s-67 79 -90 133s-34.5 114.333 -34.5 181c0 75.333 14.833 143.833 44.5 205.5s69.334 111.834 119.001 150.501s105.667 68.334 168 89.001s127.166 31 194.499 31c84.667 0 161 -13.667 229 -41s122.833 -63.666 164.5 -108.999
s73.334 -95.5 95.001 -150.5s32.5 -112.167 32.5 -171.5zM945.999 450.996c0 32.667 -6.33301 64.501 -19 95.501s-31.667 60.333 -57 88s-60.5 50 -105.5 67s-96.5 25.5 -154.5 25.5c-93.333 0 -171.166 -25.833 -233.499 -77.5s-93.5 -120.167 -93.5 -205.5
c0 -42.667 8 -81 24 -115s36.167 -60.833 60.5 -80.5s52.333 -36 84 -49s61.5 -21.833 89.5 -26.5s55.333 -7 82 -7c56 0 107.667 9.5 155 28.5s87.166 50.667 119.499 95s48.5 98.166 48.5 161.499z" />
    <glyph glyph-name="oacute" unicode="&#xf3;" 
d="M1028 1171l-622 -157l-46 123l586 252zM1137 446c0 -64 -10.168 -122.671 -30.501 -176.004s-47.333 -97.833 -81 -133.5s-72.667 -66 -117 -91s-90.166 -43 -137.499 -54s-95.333 -16.5 -144 -16.5c-46.667 0 -93.834 5 -141.501 15s-95.5 26.833 -143.5 50.5
s-90.5 52.834 -127.5 87.501s-67 79 -90 133s-34.5 114.333 -34.5 181c0 75.333 14.833 143.833 44.5 205.5s69.334 111.834 119.001 150.501s105.667 68.334 168 89.001s127.166 31 194.499 31c84.667 0 161 -13.667 229 -41s122.833 -63.666 164.5 -108.999
s73.334 -95.5 95.001 -150.5s32.5 -112.167 32.5 -171.5zM945.999 450.996c0 32.667 -6.33301 64.501 -19 95.501s-31.667 60.333 -57 88s-60.5 50 -105.5 67s-96.5 25.5 -154.5 25.5c-93.333 0 -171.166 -25.833 -233.499 -77.5s-93.5 -120.167 -93.5 -205.5
c0 -42.667 8 -81 24 -115s36.167 -60.833 60.5 -80.5s52.333 -36 84 -49s61.5 -21.833 89.5 -26.5s55.333 -7 82 -7c56 0 107.667 9.5 155 28.5s87.166 50.667 119.499 95s48.5 98.166 48.5 161.499z" />
    <glyph glyph-name="ocircumflex" unicode="&#xf4;" 
d="M1036 1087l-116 -73l-297 219l-297 -219l-121 76l321 301h195zM1137 446c0 -64 -10.168 -122.671 -30.501 -176.004s-47.333 -97.833 -81 -133.5s-72.667 -66 -117 -91s-90.166 -43 -137.499 -54s-95.333 -16.5 -144 -16.5c-46.667 0 -93.834 5 -141.501 15
s-95.5 26.833 -143.5 50.5s-90.5 52.834 -127.5 87.501s-67 79 -90 133s-34.5 114.333 -34.5 181c0 75.333 14.833 143.833 44.5 205.5s69.334 111.834 119.001 150.501s105.667 68.334 168 89.001s127.166 31 194.499 31c84.667 0 161 -13.667 229 -41
s122.833 -63.666 164.5 -108.999s73.334 -95.5 95.001 -150.5s32.5 -112.167 32.5 -171.5zM945.999 450.996c0 32.667 -6.33301 64.501 -19 95.501s-31.667 60.333 -57 88s-60.5 50 -105.5 67s-96.5 25.5 -154.5 25.5c-93.333 0 -171.166 -25.833 -233.499 -77.5
s-93.5 -120.167 -93.5 -205.5c0 -42.667 8 -81 24 -115s36.167 -60.833 60.5 -80.5s52.333 -36 84 -49s61.5 -21.833 89.5 -26.5s55.333 -7 82 -7c56 0 107.667 9.5 155 28.5s87.166 50.667 119.499 95s48.5 98.166 48.5 161.499z" />
    <glyph glyph-name="otilde" unicode="&#xf5;" 
d="M1079 1270c-5.33301 -19.333 -11.3311 -37.668 -17.998 -55.001s-17.667 -39 -33 -65s-32.666 -48 -51.999 -66s-44.833 -33.833 -76.5 -47.5s-66.5 -20.5 -104.5 -20.5c-56 0 -107.333 14.333 -154 43c-13.333 8 -28.5 18 -45.5 30l-38.5 27
c-8.66699 6 -19.167 11.333 -31.5 16s-24.5 7 -36.5 7c-15.333 0 -29.666 -4.33301 -42.999 -13c-12.667 -8 -22.834 -17.667 -30.501 -29s-15.834 -27.666 -24.501 -48.999s-14 -34 -16 -38l-170 53l12.5 33c2.33301 6 7.33301 17.5 15 34.5s14.167 29.667 19.5 38l23.5 36
c10.333 15.667 20 27.5 29 35.5s20.5 17.667 34.5 29s28.333 19.833 43 25.5s31.5 10.5 50.5 14.5s38.833 6 59.5 6c33.333 0 70.666 -9 111.999 -27c12 -5.33301 32.167 -16.833 60.5 -34.5s54.333 -32.667 78 -45s42.5 -18.5 56.5 -18.5s25.833 2.16699 35.5 6.5
s19.167 13.333 28.5 27s16.666 26.167 21.999 37.5l26 58zM1137 445.998c0 -64 -10.168 -122.671 -30.501 -176.004s-47.333 -97.833 -81 -133.5s-72.667 -66 -117 -91s-90.166 -43 -137.499 -54s-95.333 -16.5 -144 -16.5c-46.667 0 -93.834 5 -141.501 15
s-95.5 26.833 -143.5 50.5s-90.5 52.834 -127.5 87.501s-67 79 -90 133s-34.5 114.333 -34.5 181c0 75.333 14.833 143.833 44.5 205.5s69.334 111.834 119.001 150.501s105.667 68.334 168 89.001s127.166 31 194.499 31c84.667 0 161 -13.667 229 -41
s122.833 -63.666 164.5 -108.999s73.334 -95.5 95.001 -150.5s32.5 -112.167 32.5 -171.5zM946.001 450.994c0 32.667 -6.33301 64.501 -19 95.501s-31.667 60.333 -57 88s-60.5 50 -105.5 67s-96.5 25.5 -154.5 25.5c-93.333 0 -171.166 -25.833 -233.499 -77.5
s-93.5 -120.167 -93.5 -205.5c0 -42.667 8 -81 24 -115s36.167 -60.833 60.5 -80.5s52.333 -36 84 -49s61.5 -21.833 89.5 -26.5s55.333 -7 82 -7c56 0 107.667 9.5 155 28.5s87.166 50.667 119.499 95s48.5 98.166 48.5 161.499z" />
    <glyph glyph-name="odieresis" unicode="&#xf6;" 
d="M1137 446c0 -64 -10.168 -122.671 -30.501 -176.004s-47.333 -97.833 -81 -133.5s-72.667 -66 -117 -91s-90.166 -43 -137.499 -54s-95.333 -16.5 -144 -16.5c-46.667 0 -93.834 5 -141.501 15s-95.5 26.833 -143.5 50.5s-90.5 52.834 -127.5 87.501s-67 79 -90 133
s-34.5 114.333 -34.5 181c0 75.333 14.833 143.833 44.5 205.5s69.334 111.834 119.001 150.501s105.667 68.334 168 89.001s127.166 31 194.499 31c84.667 0 161 -13.667 229 -41s122.833 -63.666 164.5 -108.999s73.334 -95.5 95.001 -150.5s32.5 -112.167 32.5 -171.5z
M945.999 450.996c0 32.667 -6.33301 64.501 -19 95.501s-31.667 60.333 -57 88s-60.5 50 -105.5 67s-96.5 25.5 -154.5 25.5c-93.333 0 -171.166 -25.833 -233.499 -77.5s-93.5 -120.167 -93.5 -205.5c0 -42.667 8 -81 24 -115s36.167 -60.833 60.5 -80.5s52.333 -36 84 -49
s61.5 -21.833 89.5 -26.5s55.333 -7 82 -7c56 0 107.667 9.5 155 28.5s87.166 50.667 119.499 95s48.5 98.166 48.5 161.499zM904.999 1049h-219v262h219v-262zM546.999 1049h-219v262h219v-262z" />
    <glyph glyph-name="divide" unicode="&#xf7;" 
d="M727 764c0 -29.333 -10.333 -54.5 -31 -75.5s-45.667 -31.5 -75 -31.5s-54.5 10.5 -75.5 31.5s-31.5 46.167 -31.5 75.5s10.5 54.333 31.5 75s46.167 31 75.5 31s54.333 -10.333 75 -31s31 -45.667 31 -75zM1051 356h-863v191h863v-191zM727 139
c0 -29.333 -10.333 -54.333 -31 -75s-45.667 -31 -75 -31s-54.5 10.333 -75.5 31s-31.5 45.667 -31.5 75s10.5 54.5 31.5 75.5s46.167 31.5 75.5 31.5s54.333 -10.5 75 -31.5s31 -46.167 31 -75.5z" />
    <glyph glyph-name="oslash" unicode="&#xf8;" 
d="M1137 446c0 -64 -10.168 -122.669 -30.501 -176.002s-47.333 -97.833 -81 -133.5s-72.667 -66 -117 -91s-90.166 -43 -137.499 -54s-95.333 -16.5 -144 -16.5c-111.333 0 -214 25.333 -308 76l-98 -96l-115 104l91 88c-71.333 78 -107 176.333 -107 295
c0 75.333 14.833 143.833 44.5 205.5s69.334 111.834 119.001 150.501s105.667 68.334 168 89.001s127.166 31 194.499 31c116.667 0 218 -26 304 -78l88 86l112 -107l-84 -82c67.333 -83.333 101 -180.333 101 -291zM945.999 450.998c0 58 -16.332 109.001 -48.999 153.001
l-430 -411c49.333 -18 101.333 -27 156 -27c56 0 107.667 9.5 155 28.5s87.166 50.667 119.499 95s48.5 98.166 48.5 161.499zM772 697.999c-48 19.333 -102.001 29 -162.001 29c-93.333 0 -171.166 -25.833 -233.499 -77.5s-93.5 -120.167 -93.5 -205.5
c0 -64.667 17.667 -119 53 -163z" />
    <glyph glyph-name="ugrave" unicode="&#xf9;" 
d="M940 1137l-45 -123l-623 157l82 218zM1174 0h-346.995v63c-87.333 -58.667 -177.333 -88 -270 -88c-72 0 -139.833 16.167 -203.5 48.5s-106.5 79.833 -128.5 142.5c-13.333 38.667 -20 91.334 -20 158.001v374h-160v191h346v-570c0 -12.667 0.5 -24.167 1.5 -34.5
s4.66699 -23.833 11 -40.5s15.166 -30.334 26.499 -41.001s28.166 -20.167 50.499 -28.5s49.166 -12.5 80.499 -12.5c55.333 0 102.666 10.833 141.999 32.5s80.666 52.5 123.999 92.5v411h-155v191h344v-699h158v-190z" />
    <glyph glyph-name="uacute" unicode="&#xfa;" 
d="M987 1171l-622 -157l-46 123l586 252zM1174 0h-346.995v63c-87.333 -58.667 -177.333 -88 -270 -88c-72 0 -139.833 16.167 -203.5 48.5s-106.5 79.833 -128.5 142.5c-13.333 38.667 -20 91.334 -20 158.001v374h-160v191h346v-570c0 -12.667 0.5 -24.167 1.5 -34.5
s4.66699 -23.833 11 -40.5s15.166 -30.334 26.499 -41.001s28.166 -20.167 50.499 -28.5s49.166 -12.5 80.499 -12.5c55.333 0 102.666 10.833 141.999 32.5s80.666 52.5 123.999 92.5v411h-155v191h344v-699h158v-190z" />
    <glyph glyph-name="ucircumflex" unicode="&#xfb;" 
d="M995 1087l-116 -73l-297 219l-297 -219l-121 76l321 301h195zM1174 0h-346.995v63c-87.333 -58.667 -177.333 -88 -270 -88c-72 0 -139.833 16.167 -203.5 48.5s-106.5 79.833 -128.5 142.5c-13.333 38.667 -20 91.334 -20 158.001v374h-160v191h346v-570
c0 -12.667 0.5 -24.167 1.5 -34.5s4.66699 -23.833 11 -40.5s15.166 -30.334 26.499 -41.001s28.166 -20.167 50.499 -28.5s49.166 -12.5 80.499 -12.5c55.333 0 102.666 10.833 141.999 32.5s80.666 52.5 123.999 92.5v411h-155v191h344v-699h158v-190z" />
    <glyph glyph-name="udieresis" unicode="&#xfc;" 
d="M864 1049h-219v262h219v-262zM506 1049h-219v262h219v-262zM1174 0h-346.995v63c-87.333 -58.667 -177.333 -88 -270 -88c-72 0 -139.833 16.167 -203.5 48.5s-106.5 79.833 -128.5 142.5c-13.333 38.667 -20 91.334 -20 158.001v374h-160v191h346v-570
c0 -12.667 0.5 -24.167 1.5 -34.5s4.66699 -23.833 11 -40.5s15.166 -30.334 26.499 -41.001s28.166 -20.167 50.499 -28.5s49.166 -12.5 80.499 -12.5c55.333 0 102.666 10.833 141.999 32.5s80.666 52.5 123.999 92.5v411h-155v191h344v-699h158v-190z" />
    <glyph glyph-name="yacute" unicode="&#xfd;" 
d="M1028 1171l-622 -157l-46 123l586 252zM1206 698h-149l-525 -882h134v-191h-570v191h226l170 280l-328 602h-150v191h455v-191h-96l225 -422l252 422h-90v191h446v-191z" />
    <glyph glyph-name="thorn" unicode="&#xfe;" 
d="M1143 453c0 -133.333 -44.168 -246.332 -132.501 -338.999s-199.166 -139 -332.499 -139c-112.667 0 -214.334 34.333 -305.001 103v-262h291v-191h-635v191h155v1259h-159v191h348v-451c78.667 66.667 177.667 100 297 100c52 0 104.833 -9.33301 158.5 -28
s104.334 -45.834 152.001 -81.501s86.667 -84.167 117 -145.5s45.5 -130.333 45.5 -207zM953.999 449.001c0 85.333 -27.665 152.666 -82.998 201.999s-123 74 -203 74c-19.333 0 -40.333 -1.83301 -63 -5.5s-48.834 -11.667 -78.501 -24s-56 -28 -79 -47
s-42.5 -45.833 -58.5 -80.5s-24 -74.334 -24 -119.001c0 -43.333 7.66699 -82.333 23 -117s34.333 -62.167 57 -82.5s48.167 -37.166 76.5 -50.499s54.5 -22.5 78.5 -27.5s46 -7.5 66 -7.5c77.333 0 144.666 26.833 201.999 80.5s86 121.834 86 204.501z" />
    <glyph glyph-name="ydieresis" unicode="&#xff;" 
d="M905 1049h-219v262h219v-262zM547 1049h-219v262h219v-262zM1206 698h-149l-525 -882h134v-191h-570v191h226l170 280l-328 602h-150v191h455v-191h-96l225 -422l252 422h-90v191h446v-191z" />
    <glyph glyph-name="dcroat" unicode="&#x111;" 
d="M1208 0h-339.999v74c-80 -66 -176.667 -99 -290 -99c-151.333 0 -270.166 39.333 -356.499 118s-129.5 182 -129.5 310c0 124.667 44.667 228 134 310s203.666 123 342.999 123c121.333 0 219.666 -33.667 294.999 -101v160h-444v117h444v69h-243v191h432v-260h155v-117
h-155v-705h155v-190zM864.001 401c0 72 -26.832 130.666 -80.499 175.999s-120.834 68 -201.501 68c-89.333 0 -161.5 -22.833 -216.5 -68.5s-82.5 -101.167 -82.5 -166.5c0 -72.667 25.667 -131.5 77 -176.5s122.333 -67.5 213 -67.5c32.667 0 65.667 4.83301 99 14.5
s64.5 23.834 93.5 42.501s52.667 43.5 71 74.5s27.5 65.5 27.5 103.5z" />
    <glyph glyph-name="Hbar" unicode="&#x126;" 
d="M395 735v-100h447v100h-447zM1186 0h-504v190h160v254h-447v-254h162v-190h-506v190h156v545h-180v129h180v117h-156v190h506v-190h-162v-117h447v117h-160v190h504v-190h-156v-117h180v-129h-180v-545h156v-190z" />
    <glyph glyph-name="hbar" unicode="&#x127;" 
d="M1204 0h-501.997v190h156v322c0 90 -43.667 135 -131 135c-90.667 0 -191 -39.667 -301 -119v-338h154v-190h-500v190h158v699h-226v117h226v75h-158v191h346v-266h330v-117h-330v-150c56 31.333 107.167 55.333 153.5 72s96.166 25 149.499 25
c38.667 0 74.5 -4.5 107.5 -13.5s59.167 -19.5 78.5 -31.5s36.666 -26.167 51.999 -42.5s25.666 -29 30.999 -38s10 -17.833 14 -26.5c23.333 -49.333 35 -111.333 35 -186v-308h157v-190z" />
    <glyph glyph-name="dotlessi" unicode="&#x131;" 
d="M1049 0h-869v190h338v508h-287v191h478v-699h340v-190z" />
    <glyph glyph-name="IJ" unicode="&#x132;" 
d="M1151 981l-88 0.000976562v-868c0 -124 -33.667 -223 -101 -297s-173.666 -111 -318.999 -111c-86.667 0 -189.667 11.667 -309 35l43 188c122 -22.667 209.333 -34 262 -34c49.333 0 90.5 6.16699 123.5 18.5s57.167 29.666 72.5 51.999s25.666 44.833 30.999 67.5
s8 49 8 79v870h-186v190h463v-190zM524 0.000976562h-467v190h142v791h-142v190h467v-190h-137v-791h137v-190z" />
    <glyph glyph-name="ij" unicode="&#x133;" 
d="M532 1008h-215v307h215v-307zM829 0h-780v190h293v508h-240v191h430v-699h297v-190zM1063 1008h-213v307h213v-307zM1102 -49c0 -25.333 -3.16797 -51.167 -9.50098 -77.5s-18.666 -54.833 -36.999 -85.5s-41.333 -57.667 -69 -81s-65.167 -42.833 -112.5 -58.5
s-101 -23.5 -161 -23.5c-66 0 -145.333 11 -238 33l39 188c62.667 -21.333 123.334 -32 182.001 -32c74 0 131.333 15 172 45c19.333 14.667 31.666 33.667 36.999 57s8 52 8 86v696h-290v191h479v-938z" />
    <glyph glyph-name="kgreenlandic" unicode="&#x138;" 
d="M1186 0h-492v190h54c-57.333 65.333 -136 139.333 -236 222l-68 -47v-365h-342v190h154v510h-156v191h344v-316l181 125h-39v191h524v-191h-207l-254 -188c46.667 -37.333 103.5 -88.333 170.5 -153s120.167 -121 159.5 -169h207v-190z" />
    <glyph glyph-name="Ldot" unicode="&#x13f;" 
d="M879 539h-217v262h217v-262zM1143 0h-1039v190h195v791h-195v190h629v-190h-246v-791h465v361h191v-551z" />
    <glyph glyph-name="ldot" unicode="&#x140;" 
d="M1335 551h-219v262h219v-262zM1053 0h-867v190h338v891h-323v191h514v-1082h338v-190z" />
    <glyph glyph-name="Lslash" unicode="&#x141;" 
d="M1143 0h-1039v190h195v265l-164 -47v133l164 47v393h-195v190h629v-190h-246v-340l293 82v-129l-293 -84v-320h465v361h191v-551z" />
    <glyph glyph-name="lslash" unicode="&#x142;" 
d="M1047 0h-865v190h338v377l-227 -65v131l227 67v381h-323v191h514v-516l223 65v-135l-223 -63v-433h336v-190z" />
    <glyph glyph-name="napostrophe" unicode="&#x149;" 
d="M1202 0l-379.001 -0.000976562v190h97v375c0 22 -0.333008 39.167 -1 51.5s-2.66699 26.333 -6 42s-8.16602 27.5 -14.499 35.5s-15.5 14.833 -27.5 20.5s-26.667 8.5 -44 8.5c-62.667 0 -129.334 -37 -200.001 -111v-422h98v-190h-385v190h96v508h-96v191h287v-58l37 27
c50 36.667 107.333 55 172 55c78.667 0 144.667 -29.333 198 -88c28.667 -32.667 47.834 -70.667 57.501 -114s14.5 -94.666 14.5 -153.999v-367h96v-190zM327.999 1171l-242 -540h-168l178 540h232z" />
    <glyph glyph-name="Eng" unicode="&#x14a;" 
d="M1239 981h-157.998v-954c0 -101.333 -15.5 -183.833 -46.5 -247.5s-80.167 -111.834 -147.5 -144.501c-47.333 -24 -110.333 -36 -189 -36c-46 0 -96.333 8 -151 24l26 144c39.333 -14 75.666 -21 108.999 -21s62.166 4.33301 86.499 13s44 20.334 59 35.001
s27.167 33.5 36.5 56.5s15.833 46.5 19.5 70.5s6.16699 52.333 7.5 85l-518 830v-646h198v-190h-542v190h155v791h-155v190h366l498 -837v647h-191v190h537v-190z" />
    <glyph glyph-name="eng" unicode="&#x14b;" 
d="M1026 63c0 -35.333 -0.831055 -67.1699 -2.49805 -95.5029s-5.16699 -59.166 -10.5 -92.499s-12.5 -62.666 -21.5 -87.999s-21.5 -50.166 -37.5 -74.499s-34.833 -44.5 -56.5 -60.5s-48.334 -28.833 -80.001 -38.5s-67.167 -14.5 -106.5 -14.5c-40 0 -79 4.66699 -117 14
l27 143c27.333 -6.66699 50.333 -10 69 -10c20 0 37.833 4.16699 53.5 12.5s28.5 18.833 38.5 31.5s18.667 29 26 49s12.833 38.833 16.5 56.5s6.66699 38.5 9 62.5s3.66602 43.5 3.99902 58.5s0.5 32.833 0.5 53.5v514c0 23.333 -1.5 42.333 -4.5 57
s-9.33301 29.167 -19 43.5s-25 25 -46 32s-47.833 10.5 -80.5 10.5c-38.667 0 -85.667 -9 -141 -27s-105.333 -46.667 -150 -86v-424h160v-190h-506v190h158v508h-162v191h350v-66c94 61.333 197.333 92 310 92c122.667 0 212 -38 268 -114c34 -56 51 -114 51 -174v-564z
" />
    <glyph glyph-name="OE" unicode="&#x152;" 
d="M1245 0l-785.999 0.000976562c-52.667 0 -105.667 12.667 -159 38s-102.333 61.166 -147 107.499s-81 106.333 -109 180s-42 154.167 -42 241.5c0 88 14.167 170.5 42.5 247.5s65.666 141 111.999 192s98.833 91.167 157.5 120.5s118.667 44 180 44h751v-364h-151v174
h-252v-289h53v96h149v-391h-149v107h-53v-314h252v164h151v-354zM651.001 291.001v612c0 52 -36 78 -108 78c-96.667 0 -179.667 -38 -249 -114s-104 -176 -104 -300c0 -114.667 29.833 -206.167 89.5 -274.5s141.167 -102.5 244.5 -102.5c84.667 0 127 33.667 127 101z" />
    <glyph glyph-name="oe" unicode="&#x153;" 
d="M1241 45c-64 -24 -118.496 -41.665 -163.496 -52.998s-92.833 -17 -143.5 -17c-34.667 0 -66.334 3 -95.001 9s-51.5 12.167 -68.5 18.5s-35.5 17.5 -55.5 33.5s-33.333 27.667 -40 35l-38 42c-16 -20.667 -34.167 -40 -54.5 -58s-50 -35.833 -89 -53.5
s-79.833 -26.5 -122.5 -26.5c-45.333 0 -86.5 6.16699 -123.5 18.5s-67.833 28.333 -92.5 48s-46.167 43.334 -64.5 71.001s-32.5 55 -42.5 82s-18 56.167 -24 87.5s-9.83301 58.166 -11.5 80.499s-2.5 44.833 -2.5 67.5c0 69.333 7.66699 132.833 23 190.5
s38.333 108.5 69 152.5s70.834 78.333 120.501 103s106.5 37 170.5 37c114.667 0 204.334 -36 269.001 -108c64.667 72 145 108 241 108c44.667 0 85.5 -9 122.5 -27s67.667 -41.833 92 -71.5s44.666 -63.667 60.999 -102s28.166 -77.333 35.499 -117s11 -79.167 11 -118.5
s-2 -79.666 -6 -120.999h-482v-4c0 -10 1.33301 -21.833 4 -35.5s8.16699 -29.834 16.5 -48.501s19.166 -35.334 32.499 -50.001s32.166 -27.334 56.499 -38.001s52.166 -16 83.499 -16c48 0 102.667 11 164 33l84 32zM1034 547.002
c-0.666992 11.333 -1.16699 19.333 -1.5 24s-1.5 14.5 -3.5 29.5s-4.66699 26.5 -8 34.5s-8.33301 18.5 -15 31.5s-14.667 23 -24 30s-21.333 13.167 -36 18.5s-31 8 -49 8c-48 0 -87.167 -18 -117.5 -54s-47.833 -76.667 -52.5 -122h307zM535.004 487.002
l0.000976562 20.998c0 19.333 -0.5 36.5 -1.5 51.5s-4.33301 33.5 -10 55.5s-13.5 40.167 -23.5 54.5s-24.667 26.833 -44 37.5s-42.333 16 -69 16c-122.667 0 -184 -93.667 -184 -281c0 -90.667 11.833 -159.667 35.5 -207s66.5 -71 128.5 -71c26 0 48.667 3.83301 68 11.5
s35 19.667 47 36s21.667 33.333 29 51s12.666 40.334 15.999 68.001s5.5 52.334 6.5 74.001s1.5 49.167 1.5 82.5z" />
    <glyph glyph-name="Scaron" unicode="&#x160;" 
d="M1090 336c0 -72.667 -21.1641 -137.002 -63.4971 -193.002s-98.5 -98.333 -168.5 -127s-147.667 -43 -233 -43c-28.667 0 -56.167 1.83301 -82.5 5.5s-50.833 9 -73.5 16s-40.5 13 -53.5 18s-28.5 11.833 -46.5 20.5l-29 14v-74h-188v428h188v-155
c94.667 -56 189.667 -84 285 -84c94.667 0 164.667 15.667 210 47s68 73.666 68 126.999c0 43.333 -14.167 75.333 -42.5 96s-69.5 33 -123.5 37c-10.667 0.666992 -35.334 2.33398 -74.001 5.00098s-65.5 4.83398 -80.5 6.50098s-38.5 4.83398 -70.5 9.50098
s-57.333 10 -76 16s-39.834 14.333 -63.501 25s-44.834 23.334 -63.501 38.001c-40.667 31.333 -71.667 68.666 -93 111.999s-32 89.333 -32 138c0 34 6 68.5 18 103.5s30.333 68.667 55 101s54.167 61.166 88.5 86.499s76 45.666 125 60.999s101.833 23 158.5 23
c85.333 0 162.333 -15.667 231 -47v47h189v-440h-189v196c-76.667 37.333 -151 56 -223 56c-79.333 0 -142.833 -19.167 -190.5 -57.5s-71.5 -81.5 -71.5 -129.5c0 -83.333 62.667 -134.333 188 -153c22 -3.33301 50.333 -6.5 85 -9.5l90 -8
c25.333 -2.33301 54 -6.66602 86 -12.999s60 -14.333 84 -24s48.167 -23.667 72.5 -42s44.833 -40.166 61.5 -65.499c32 -48.667 48 -104.667 48 -168zM1047 1583l-316 -299h-194l-320 305l123 72l293 -217l299 215z" />
    <glyph glyph-name="scaron" unicode="&#x161;" 
d="M1059 1313l-314 -299h-194l-322 301l121 76l297 -217l295 217zM1073 270c0 -88 -39.1699 -159.168 -117.503 -213.501s-175.5 -81.5 -291.5 -81.5c-97.333 0 -196.333 20 -297 60v-60h-189v385h189v-143c96.667 -34 192 -51 286 -51c60.667 0 115.5 9.16699 164.5 27.5
s73.5 43.833 73.5 76.5c0 27.333 -9.66699 46 -29 56c-18.667 10.667 -40.167 17.834 -64.5 21.501s-54.666 5.83398 -90.999 6.50098s-60.166 1.33398 -71.499 2.00098l-53 4.5c-11.333 1 -30.666 3.33301 -57.999 7s-48.833 7.5 -64.5 11.5s-36.167 9.83301 -61.5 17.5
s-45.833 16 -61.5 25s-32.834 20.667 -51.501 35s-33 29.833 -43 46.5s-18.667 36.5 -26 59.5s-11 47.833 -11 74.5c0 48.667 11.5 91.667 34.5 129s53.333 66.666 91 87.999s78.334 37.333 122.001 48s88.834 16 135.501 16c90.667 0 176.667 -16 258 -48v48h188v-357h-188
v115c-70 34 -150.667 51 -242 51c-16 0 -34.167 -1.16699 -54.5 -3.5s-44 -6.33301 -71 -12s-49.333 -15.334 -67 -29.001s-26.5 -30.167 -26.5 -49.5c0 -51.333 62 -82 186 -92l256 -21c69.333 -5.33301 127.666 -30.333 174.999 -75s71 -103 71 -175z" />
    <glyph glyph-name="Tbar" unicode="&#x166;" 
d="M1153 725h-190v256h-250v-367h223v-129h-223v-295h248v-190h-685v190h246v295h-223v129h223v367h-250v-256h-190v446h1071v-446z" />
    <glyph glyph-name="tbar" unicode="&#x167;" 
d="M1120 98l-106.999 -44.502c-27.333 -11 -62 -23.5 -104 -37.5s-82.5 -24.333 -121.5 -31s-76.833 -10 -113.5 -10c-32.667 0 -63.334 2 -92.001 6s-59.667 12.833 -93 26.5s-61.666 31.834 -84.999 54.501s-42.833 54 -58.5 94s-23.5 87 -23.5 141v152h-129v129h129v120
h-129v191h129v272h190v-272h487v-191h-487v-120h340v-129h-340v-107c0 -21.333 0.666992 -39 2 -53s5.16602 -29.667 11.499 -47s15 -31.166 26 -41.499s27 -19 48 -26s46.5 -10.5 76.5 -10.5c90 0 227 41 411 123z" />
    <glyph glyph-name="Ydieresis" unicode="&#x178;" 
d="M1194 981h-158l-319 -528v-263h244v-190h-682v190h247v263l-319 528h-154v190h471v-190h-106l207 -346l209 346h-111v190h471v-190zM909 1352h-219v264h219v-264zM551 1352h-219v264h219v-264z" />
    <glyph glyph-name="Zcaron" unicode="&#x17d;" 
d="M1079 0h-923v145l616 836h-420v-258h-188v448h870v-135l-624 -846h481v289h188v-479zM1026 1583l-315 -299h-195l-319 305l122 72l293 -217l299 215z" />
    <glyph glyph-name="zcaron" unicode="&#x17e;" 
d="M1036 1313l-313 -299h-195l-321 301l121 76l297 -217l295 217zM1036 0h-848v145l551 555h-333v-151h-189v340h819v-137l-553 -562h365v170h188v-360z" />
    <glyph glyph-name="florin" unicode="&#x192;" 
d="M1141 1251l-111 -188.001c-60.667 9.33301 -109 14 -145 14c-36.667 0 -69.667 -6.66699 -99 -20c-6 -2.66699 -11.5 -6 -16.5 -10s-9.5 -9 -13.5 -15s-7.16699 -11.167 -9.5 -15.5s-4.83301 -10.833 -7.5 -19.5s-4.5 -15 -5.5 -19s-2.5 -11 -4.5 -21
s-3.33301 -16.333 -4 -19l-10 -49h213l-37 -191h-209l-121 -673c-12.667 -69.333 -38.667 -124.333 -78 -165s-83.666 -67.667 -132.999 -81c-58.667 -15.333 -105 -23 -139 -23c-68.667 0 -151.334 5.66699 -248.001 17l113 186c90 -8 138.333 -12 145 -12
c58 0 98 11 120 33s40 71.667 54 149l101 569h-203l37 191h200l15 72c6 29.333 11 51.833 15 67.5s10.167 35.334 18.5 59.001s19 44.167 32 61.5s28.5 33 46.5 47c60 46.667 153.667 70 281 70c49.333 0 117 -5 203 -15z" />
    <glyph glyph-name="circumflex" unicode="&#x2c6;" 
d="M1036 1087l-116 -73l-297 219l-297 -219l-121 76l321 301h195z" />
    <glyph glyph-name="caron" unicode="&#x2c7;" 
d="M1036 1313l-313 -299h-195l-321 301l121 76l297 -217l295 217z" />
    <glyph glyph-name="uni02C9" unicode="&#x2c9;" 
d="M1044 1024h-860v186h860v-186z" />
    <glyph glyph-name="breve" unicode="&#x2d8;" 
d="M1073 1346c-3.33301 -24 -10.1719 -49.001 -20.5049 -75.001s-26.666 -54.833 -48.999 -86.5s-49.166 -59.667 -80.499 -84s-72.166 -44.833 -122.499 -61.5s-106.166 -25 -167.499 -25c-55.333 0 -106.666 7 -153.999 21s-87.333 32 -120 54s-61.167 47.833 -85.5 77.5
s-43.166 59.334 -56.499 89.001s-23 59.834 -29 90.501h195c9.33301 -44.667 35 -84.5 77 -119.5s99.667 -52.5 173 -52.5c20 0 39.5 1.66699 58.5 5s42.167 10.166 69.5 20.499s52.166 28 74.499 53s38.833 56.167 49.5 93.5h188z" />
    <glyph glyph-name="dotaccent" unicode="&#x2d9;" 
d="M731 1049h-219v264h219v-264z" />
    <glyph glyph-name="ring" unicode="&#x2da;" 
d="M838 1255c0 -58.667 -20.833 -108.834 -62.5 -150.501s-91.834 -62.5 -150.501 -62.5s-108.834 20.833 -150.501 62.5s-62.5 91.834 -62.5 150.501s20.833 108.834 62.5 150.501s91.834 62.5 150.501 62.5s108.834 -20.833 150.501 -62.5s62.5 -91.834 62.5 -150.501z
M711 1255c0 23.333 -8.5 43.5 -25.5 60.5s-37.167 25.5 -60.5 25.5s-43.5 -8.5 -60.5 -25.5s-25.5 -37.167 -25.5 -60.5s8.5 -43.5 25.5 -60.5s37.167 -25.5 60.5 -25.5s43.5 8.5 60.5 25.5s25.5 37.167 25.5 60.5z" />
    <glyph glyph-name="ogonek" unicode="&#x2db;" 
d="M1079 45l-43.999 -22.002c-24 -12 -44.667 -23.167 -62 -33.5s-36.333 -22.833 -57 -37.5s-36.834 -30.167 -48.501 -46.5s-17.5 -32.5 -17.5 -48.5c0 -19.333 6.83301 -34.166 20.5 -44.499s27.167 -15.5 40.5 -15.5c29.333 0 79.333 26 150 78l-31 -166
c-54 -47.333 -114.667 -71 -182 -71c-54.667 0 -99.834 17.833 -135.501 53.5s-53.5 77.834 -53.5 126.501c0 28 6.16699 54.667 18.5 80s27.333 46.333 45 63s36.834 31.5 57.501 44.5s38.167 22.5 52.5 28.5s25.5 9.66699 33.5 11h213z" />
    <glyph glyph-name="tilde" unicode="&#x2dc;" 
d="M1079 1270c-5.33301 -19.333 -11.3311 -37.668 -17.998 -55.001s-17.667 -39 -33 -65s-32.666 -48 -51.999 -66s-44.833 -33.833 -76.5 -47.5s-66.5 -20.5 -104.5 -20.5c-56 0 -107.333 14.333 -154 43c-13.333 8 -28.5 18 -45.5 30l-38.5 27
c-8.66699 6 -19.167 11.333 -31.5 16s-24.5 7 -36.5 7c-15.333 0 -29.666 -4.33301 -42.999 -13c-12.667 -8 -22.834 -17.667 -30.501 -29s-15.834 -27.666 -24.501 -48.999s-14 -34 -16 -38l-170 53l12.5 33c2.33301 6 7.33301 17.5 15 34.5s14.167 29.667 19.5 38l23.5 36
c10.333 15.667 20 27.5 29 35.5s20.5 17.667 34.5 29s28.333 19.833 43 25.5s31.5 10.5 50.5 14.5s38.833 6 59.5 6c33.333 0 70.666 -9 111.999 -27c12 -5.33301 32.167 -16.833 60.5 -34.5s54.333 -32.667 78 -45s42.5 -18.5 56.5 -18.5s25.833 2.16699 35.5 6.5
s19.167 13.333 28.5 27s16.666 26.167 21.999 37.5l26 58z" />
    <glyph glyph-name="hungarumlaut" unicode="&#x2dd;" 
d="M1217 1378l-414 -364l-105 49l351 391zM856 1378l-416 -364l-104 49l352 391z" />
    <glyph glyph-name="Gamma" unicode="&#x393;" 
d="M1110 739h-190v242h-433v-791h252v-190h-596v190h154v791h-152v190h965v-432z" />
    <glyph glyph-name="Theta" unicode="&#x398;" 
d="M1161 584c0 -88 -12.5 -167.831 -37.5 -239.498s-56.667 -129.834 -95 -174.501s-82.333 -82.167 -132 -112.5s-97.667 -51.666 -144 -63.999s-91.166 -18.5 -134.499 -18.5c-53.333 0 -105.833 7.66699 -157.5 23s-101 39.5 -148 72.5s-88.333 72.667 -124 119
s-64 103.166 -85 170.499s-31.5 140.666 -31.5 219.999c0 80 12.667 156.667 38 230s60.666 138.5 105.999 195.5s103 102.667 173 137s146.333 51.5 229 51.5c70 0 135 -11.833 195 -35.5s111 -55.667 153 -96s77.833 -86.666 107.5 -138.999s51.667 -107.333 66 -165
s21.5 -115.834 21.5 -174.501zM975 592.002c0 34 -3.50293 68.833 -10.5029 104.5s-19.167 72.167 -36.5 109.5s-39.166 70.333 -65.499 99s-60.5 52.334 -102.5 71.001s-89.333 28 -142 28c-57.333 0 -109.166 -11.667 -155.499 -35s-84.166 -54.5 -113.499 -93.5
s-51.833 -83.333 -67.5 -133s-23.5 -101.834 -23.5 -156.501c0 -56 7.16699 -108.833 21.5 -158.5s35.5 -94.5 63.5 -134.5s65.667 -71.833 113 -95.5s101.333 -35.5 162 -35.5c52.667 0 100.167 9.33301 142.5 28s76.5 42.667 102.5 72s47.667 63.5 65 102.5
s29.5 77.167 36.5 114.5s10.5 75 10.5 113zM843.997 401.002h-148v103h-159v-103h-148v371h148v-104h159v104h148v-371z" />
    <glyph glyph-name="Phi" unicode="&#x3a6;" 
d="M1143 584c0 -58 -11 -108.667 -33 -152s-53 -78 -93 -104s-84.833 -45.667 -134.5 -59s-105.5 -21.666 -167.5 -24.999v-62h159v-182h-509v182h159v62c-62 3.33301 -117.833 11.666 -167.5 24.999s-94.5 33 -134.5 59s-71 60.667 -93 104s-33 94 -33 152
c0 100.667 36 181.167 108 241.5s178.667 94.5 320 102.5v61h-159v182h509v-182h-159v-61c141.333 -8 248 -42.167 320 -102.5s108 -140.833 108 -241.5zM963 588c0 46.667 -21.168 84.167 -63.501 112.5s-105.166 44.833 -188.499 49.5v-330c168 11.333 252 67.333 252 168
zM527.999 420l-0.000976562 330c-83.333 -4.66699 -146.166 -21.167 -188.499 -49.5s-63.5 -65.833 -63.5 -112.5c0 -100.667 84 -156.667 252 -168z" />
    <glyph glyph-name="uni03A9" unicode="&#x3a9;" 
d="M1184 659c0 -114.667 -29.8311 -213.497 -89.498 -296.497s-148.834 -144.5 -267.501 -184.5h213v62h138v-240h-521v293c113.333 27.333 196 71.166 248 131.499s78 140.833 78 241.5c0 91.333 -34.333 170.5 -103 237.5s-156 100.5 -262 100.5
c-106.667 0 -194.667 -32.833 -264 -98.5s-104 -145.5 -104 -239.5c0 -107.333 28.333 -189.833 85 -247.5s136.667 -99.5 240 -125.5v-293h-520v240h138v-62h213c-106.667 32 -192.834 89.333 -258.501 172s-98.5 185.667 -98.5 309c0 70 13.667 137.333 41 202
s65.166 121.667 113.499 171s108.333 88.666 180 117.999s149.167 44 232.5 44s160.833 -14.333 232.5 -43s131.834 -67.334 180.501 -116.001s86.667 -105.5 114 -170.5s41 -133.5 41 -205.5z" />
    <glyph glyph-name="alpha" unicode="&#x3b1;" 
d="M1126 0l-221.004 0.000976562l-74 203c-47.333 -78.667 -99.333 -136.334 -156 -173.001s-122.667 -55 -198 -55c-29.333 0 -59.166 3.5 -89.499 10.5s-63.666 21 -99.999 42s-68.333 48.167 -96 81.5s-50.834 79 -69.501 137s-28 124.667 -28 200
c0 79.333 15.833 154.833 47.5 226.5s77.334 130.5 137.001 176.5s125.834 69 198.501 69c93.333 0 169.5 -23.333 228.5 -70s108.5 -126 148.5 -238c12.667 27.333 27.834 70.333 45.501 129s29.167 108.667 34.5 150h184c-6 -53.333 -25 -129.5 -57 -228.5
s-69 -185.5 -111 -259.5l80 -211h96v-190zM757.996 412.001l-34.999 93.999c-17.333 48 -36.333 88.167 -57 120.5s-41.667 56.333 -63 72s-41.166 26.334 -59.499 32.001s-37.833 8.5 -58.5 8.5c-45.333 0 -84.833 -15.333 -118.5 -46s-57.834 -67.167 -72.501 -109.5
s-22 -85.833 -22 -130.5c0 -97.333 20.167 -171.833 60.5 -223.5s91.166 -77.5 152.499 -77.5c104.667 0 195.667 86.667 273 260z" />
    <glyph glyph-name="delta" unicode="&#x3b4;" 
d="M1090 438c0 -134 -43.165 -244.667 -129.498 -332s-199.5 -131 -339.5 -131c-142 0 -257.167 43.333 -345.5 130s-132.5 197.667 -132.5 333c0 68.667 13.833 133.5 41.5 194.5s71.167 114.5 130.5 160.5s129.666 75.333 210.999 88l-297 223v192h723v-190h-415l317 -242
c50 -38 91.167 -75.167 123.5 -111.5s59.166 -81.5 80.499 -135.5s32 -113.667 32 -179zM897.002 436c0 20 -2.33398 41.001 -7.00098 63.001s-13.5 46.167 -26.5 72.5s-29.333 49.666 -49 69.999s-46.5 37.333 -80.5 51s-72.667 20.5 -116 20.5
c-86 0 -154.5 -27 -205.5 -81s-76.5 -119.333 -76.5 -196c0 -32.667 6 -64.667 18 -96s29.167 -60.166 51.5 -86.499s52.333 -47.5 90 -63.5s79.5 -24 125.5 -24c80.667 0 146.834 25.167 198.501 75.5s77.5 115.166 77.5 194.499z" />
    <glyph glyph-name="epsilon" unicode="&#x3b5;" 
d="M1030 109c-55.333 -44.667 -115.33 -78.167 -179.997 -100.5s-143.334 -33.5 -236.001 -33.5c-51.333 0 -99.5 4.33301 -144.5 13s-88.167 23 -129.5 43s-74.166 49 -98.499 87s-36.5 83.333 -36.5 136c0 123.333 60 198.333 180 225c-105.333 32 -158 89.333 -158 172
c0 39.333 7.33301 74.666 22 105.999s34 56.833 58 76.5s52.167 36 84.5 49s65.166 22.167 98.499 27.5s68 8 104 8c85.333 0 157 -15.333 215 -46v46h188v-343h-188v103c-22.667 13.333 -56.334 24.833 -101.001 34.5s-81.334 14.5 -110.001 14.5
c-36 0 -66 -2.33301 -90 -7s-41.167 -11.667 -51.5 -21s-17.333 -18.5 -21 -27.5s-5.5 -19.833 -5.5 -32.5c0 -53.333 59.333 -80 178 -80h154v-190h-141c-31.333 0 -58.5 -1.16699 -81.5 -3.5s-45.167 -6.66602 -66.5 -12.999s-37.5 -16 -48.5 -29s-16.5 -29.5 -16.5 -49.5
c0 -35.333 17 -62.5 51 -81.5s91.333 -28.5 172 -28.5c116 0 215 31.333 297 94z" />
    <glyph glyph-name="uni03BC" unicode="&#x3bc;" 
d="M1182 0h-353.001v90c-40 -38 -81 -66.667 -123 -86s-93 -29 -153 -29c-57.333 0 -108.666 21.333 -153.999 64v-381h-192v1040h-160v191h352v-563c0 -50.667 14.5 -91.667 43.5 -123s69.167 -47 120.5 -47c56.667 0 105 8.66699 145 26s80.333 45.333 121 84v432h-159
v191h352v-699h160v-190z" />
    <glyph glyph-name="pi" unicode="&#x3c0;" 
d="M1139 0h-482v190h138v508h-361v-508h137v-190h-483v190h156v508h-156v191h1051v-191h-154v-508h154v-190z" />
    <glyph glyph-name="sigma" unicode="&#x3c3;" 
d="M1202 725l-193.999 0.000976562c77.333 -57.333 116 -151 116 -281c0 -136 -46.5 -248.167 -139.5 -336.5s-215.167 -132.5 -366.5 -132.5c-154.667 0 -279.667 44.167 -375 132.5s-143 201.166 -143 338.499c0 95.333 23.667 179.333 71 252
s109.666 127.5 186.999 164.5s163.333 55.5 258 55.5h586v-193zM932.001 442.001c0 20.667 -2.33594 42.167 -7.00293 64.5s-14.167 47 -28.5 74s-32.666 50.833 -54.999 71.5s-53.166 38 -92.499 52s-84.333 21 -135 21c-99.333 0 -177.666 -27.5 -234.999 -82.5
s-86 -121.833 -86 -200.5c0 -33.333 6.5 -66 19.5 -98s32 -61.667 57 -89s58.833 -49.333 101.5 -66s91 -25 145 -25c94 0 170.167 26.167 228.5 78.5s87.5 118.833 87.5 199.5z" />
    <glyph glyph-name="tau" unicode="&#x3c4;" 
d="M915 698l-258 -0.000976562v-440c0 -74 31 -111 93 -111c36 0 73.333 13.667 112 41l43 -145c-56.667 -45.333 -123.334 -68 -200.001 -68c-38 0 -71.167 4.83301 -99.5 14.5s-51.166 22.5 -68.499 38.5s-31.333 35.833 -42 59.5s-18 47.834 -22 72.501s-6 52 -6 82v456
h-80c-62.667 0 -126.667 -13.667 -192 -41v191c40.667 27.333 104.667 41 192 41h528v-191z" />
    <glyph glyph-name="uni03D5" unicode="&#x3d5;" 
d="M1143 442c0 -141.333 -38.665 -253.335 -115.998 -336.002s-184.666 -129.667 -321.999 -141v-307h-191v309c-138 24 -238 76.833 -300 158.5s-93 194.167 -93 337.5c0 90 17.667 176.167 53 258.5s86.666 147.833 153.999 196.5l121 -130
c-44.667 -37.333 -79.167 -84.166 -103.5 -140.499s-36.5 -115.166 -36.5 -176.499c0 -174.667 68.333 -279 205 -313v514c0 73.333 22.333 132.666 67 177.999s105 68 181 68c49.333 0 95.166 -9.16699 137.499 -27.5s78.166 -43.166 107.499 -74.499
s54.5 -67.5 75.5 -108.5s36.333 -84 46 -129s14.5 -90.5 14.5 -136.5zM950.002 441.998c0 75.333 -15.333 140.5 -46 195.5s-67.667 84.167 -111 87.5h-5c-21.333 0 -40.5 -10.667 -57.5 -32s-25.5 -54.333 -25.5 -99v-438c78.667 9.33301 139.167 38 181.5 86
s63.5 114.667 63.5 200z" />
    <glyph glyph-name="uni2010" unicode="&#x2010;" 
d="M942 389h-653v189h653v-189z" />
    <glyph glyph-name="endash" unicode="&#x2013;" 
d="M1069 387h-911v191h911v-191z" />
    <glyph glyph-name="emdash" unicode="&#x2014;" 
d="M1229 387h-1229v191h1229v-191z" />
    <glyph glyph-name="underscoredbl" unicode="&#x2017;" 
d="M1229 -301h-1229v104h1229v-104zM1229 -512h-1229v104h1229v-104z" />
    <glyph glyph-name="quoteleft" unicode="&#x2018;" 
d="M905 629h-223l-252 542h299z" />
    <glyph glyph-name="quoteright" unicode="&#x2019;" 
d="M788 1171l-251 -542h-224l174 542h301z" />
    <glyph glyph-name="quotesinglbase" unicode="&#x201a;" 
d="M788 334l-247 -539h-228l176 539h299z" />
    <glyph glyph-name="quotereversed" unicode="&#x201b;" 
d="M905 629h-223l-252 542h299z" />
    <glyph glyph-name="quotedblleft" unicode="&#x201c;" 
d="M1114 629h-223l-256 542h299zM700 629h-225l-254 542h299z" />
    <glyph glyph-name="quotedblright" unicode="&#x201d;" 
d="M993 1171l-254 -542h-225l180 542h299zM586 1171l-256 -542h-224l181 542h299z" />
    <glyph glyph-name="quotedblbase" unicode="&#x201e;" 
d="M993 334l-254 -541h-225l180 541h299zM586 334l-256 -541h-224l181 541h299z" />
    <glyph glyph-name="dagger" unicode="&#x2020;" 
d="M989 678h-280v-768h-191v768h-278v190h278v303h191v-303h280v-190z" />
    <glyph glyph-name="daggerdbl" unicode="&#x2021;" 
d="M989 305h-278v-391h-191v391h-280v191h280v186h-280v190h280v299h191v-299h278v-190h-278v-186h278v-191z" />
    <glyph glyph-name="bullet" unicode="&#x2022;" 
d="M983 616c0 -102.667 -35.833 -190 -107.5 -262s-158.834 -108 -261.501 -108s-189.667 36 -261 108s-107 159.333 -107 262s35.833 190.167 107.5 262.5s158.5 108.5 260.5 108.5c102.667 0 189.834 -36.167 261.501 -108.5s107.5 -159.833 107.5 -262.5z" />
    <glyph glyph-name="ellipsis" unicode="&#x2026;" 
d="M1200 102c0 -33.333 -13.5 -62.833 -40.5 -88.5s-61.833 -38.5 -104.5 -38.5c-44.667 0 -80.834 12.667 -108.501 38s-41.5 54.333 -41.5 87c0 32 13 61.167 39 87.5s62.333 39.5 109 39.5c44.667 0 80.334 -12.5 107.001 -37.5s40 -54.167 40 -87.5zM772 102
c0 -33.333 -13.502 -62.833 -40.502 -88.5s-61.833 -38.5 -104.5 -38.5c-44.667 0 -81.167 12.667 -109.5 38s-42.5 54.333 -42.5 87c0 32 13.333 61.167 40 87.5s63.334 39.5 110.001 39.5c44.667 0 80.334 -12.5 107.001 -37.5s40 -54.167 40 -87.5zM341.998 102
c0 -33.333 -13.168 -62.833 -39.501 -88.5s-60.833 -38.5 -103.5 -38.5c-44.667 0 -81.167 12.667 -109.5 38s-42.5 54.333 -42.5 87c0 32 13.333 61.167 40 87.5s63.334 39.5 110.001 39.5c44.667 0 80 -12.333 106 -37s39 -54 39 -88z" />
    <glyph glyph-name="perthousand" unicode="&#x2030;" 
d="M1427 223c0 -82.667 -29.834 -151.835 -89.501 -207.502s-132.167 -83.5 -217.5 -83.5c-89.333 0.666992 -162.166 29.334 -218.499 86.001s-84.5 124.334 -84.5 203.001s29.333 147.167 88 205.5s131.667 87.5 219 87.5c88 0 160.5 -29 217.5 -87s85.5 -126 85.5 -204z
M1280 222.999c0 39.333 -14.833 73.166 -44.5 101.499s-68.167 42.5 -115.5 42.5c-48 0 -86.167 -14.167 -114.5 -42.5s-42.5 -62.166 -42.5 -101.499s14.167 -73 42.5 -101s65.833 -42 112.5 -42c44 0 82 12.333 114 37s48 60 48 106zM429.999 972.999
c0 -83.333 -29.666 -152.669 -88.999 -208.002s-131.333 -83 -216 -83c-89.333 0.666992 -162.5 29.334 -219.5 86.001s-85.5 124.334 -85.5 203.001s29.667 147.167 89 205.5s132.666 87.5 219.999 87.5c88 0 160.167 -29 216.5 -87s84.5 -126 84.5 -204zM285 972.996
c0 39.333 -14.834 72.999 -44.501 100.999s-68.167 42 -115.5 42c-48 0 -86.333 -14 -115 -42s-43 -61.667 -43 -101s14.333 -73.166 43 -101.499s66.334 -42.5 113.001 -42.5c44 0 82 12.5 114 37.5s48 60.5 48 106.5zM779.999 222.995
c0 -82.667 -29.834 -151.835 -89.501 -207.502s-132.167 -83.5 -217.5 -83.5c-89.333 0.666992 -162.166 29.334 -218.499 86.001s-84.5 124.334 -84.5 203.001s29.333 147.167 88 205.5s131.667 87.5 219 87.5c88 0 160.5 -29 217.5 -87s85.5 -126 85.5 -204z
M632.998 222.994c0 39.333 -14.834 73.166 -44.501 101.499s-68.167 42.5 -115.5 42.5c-48 0 -86.333 -14.167 -115 -42.5s-43 -62.166 -43 -101.499s14.333 -73 43 -101s66.334 -42 113.001 -42c44 0 82 12.333 114 37s48 60 48 106zM806.997 724.994l-866 -373l-62 127
l869 377z" />
    <glyph glyph-name="guilsinglleft" unicode="&#x2039;" 
d="M932 184l-105 -135l-563 412l557 405l107 -137l-404 -270z" />
    <glyph glyph-name="guilsinglright" unicode="&#x203a;" 
d="M965 461l-564 -412l-104 135l408 275l-404 270l107 137z" />
    <glyph glyph-name="exclamdbl" unicode="&#x203c;" 
d="M983 1171l-37 -798h-186l-37 798h260zM487 1171l-36 -798h-187l-37 798h260zM1042 133c0 -46.667 -17.832 -84.668 -53.499 -114.001s-79.834 -44 -132.501 -44c-27.333 0 -55 4.83301 -83 14.5s-53.167 26.834 -75.5 51.501s-33.5 54.667 -33.5 90
c0 40 16.833 76.333 50.5 109s80.167 49 139.5 49c56 0 101.333 -15.5 136 -46.5s52 -67.5 52 -109.5zM547.001 132.999c0 -46 -18.168 -83.834 -54.501 -113.501s-81.166 -44.5 -134.499 -44.5c-27.333 0 -54.833 4.83301 -82.5 14.5s-52.5 26.834 -74.5 51.501
s-33 54.667 -33 90c0 40.667 16.5 77.167 49.5 109.5s79.167 48.5 138.5 48.5c56.667 0 102.667 -15.5 138 -46.5s53 -67.5 53 -109.5z" />
    <glyph glyph-name="uni203E" unicode="&#x203e;" 
d="M1229 1440h-1229v104h1229v-104z" />
    <glyph glyph-name="fraction" unicode="&#x2044;" 
d="M1227 1198l-1028 -1372l-146 106l1026 1366z" />
    <glyph glyph-name="n.superior" unicode="&#x207f;" 
d="M999 541h-383.001v137h127v326c0 13.333 -0.833008 24.333 -2.5 33s-5.5 19.5 -11.5 32.5s-17.167 23 -33.5 30s-37.166 10.5 -62.499 10.5c-78 0 -156.667 -31.333 -236 -94v-338h127v-137h-387v137h125v414h-127v137h262v-53c27.333 20.667 64.333 37.667 111 51
c39.333 13.333 79.666 20 120.999 20c102.667 0 174.334 -32 215.001 -96c23.333 -36 35 -94.667 35 -176v-297h120v-137z" />
    <glyph glyph-name="franc" unicode="&#x20a3;" 
d="M952 926h-190v55h-420v-293h88v135h188v-458h-188v133h-88v-308h139v-190h-481v190h154v791h-152v190h950v-245zM897 848v-119.001c32 56.667 72.167 102.334 120.5 137.001s93.5 52 135.5 52c68 0 122.5 -21.333 163.5 -64s61.5 -99.334 61.5 -170.001l-180 -29
c-3.33301 26 -10.833 44.5 -22.5 55.5s-30.167 16.5 -55.5 16.5c-40 0 -80.667 -14.667 -122 -44s-75 -74.666 -101 -135.999v-357h178v-190h-506v190h138v658h190z" />
    <glyph glyph-name="peseta" unicode="&#x20a7;" 
d="M1229 23c-34 -32 -84.666 -48 -151.999 -48c-36.667 0 -69.667 4.33301 -99 13s-53.666 19.5 -72.999 32.5s-36 30 -50 51s-24.667 41.167 -32 60.5s-13 42.333 -17 69s-6.5 49.5 -7.5 68.5s-1.5 41.167 -1.5 66.5v362h-56v191h56v266h188v-266h113v-191h-113v-381
c0 -55.333 10.667 -95 32 -119s55.666 -36 102.999 -36c23.333 0 50.666 4.66699 81.999 14zM690.001 774c0 -74 -18.668 -141.5 -56.001 -202.5s-83.333 -103.5 -138 -127.5c-65.333 -29.333 -144.666 -45 -237.999 -47v-207h53v-190h-301v190h58v791h-58v190h215
c94.667 0 176 -13.333 244 -40s121.833 -70.167 161.5 -130.5s59.5 -135.833 59.5 -226.5zM502 776c0 134 -81.333 201 -244 201v-391c59.333 0 104.333 6.66699 135 20c26.667 12 51.5 32.5 74.5 61.5s34.5 65.167 34.5 108.5z" />
    <glyph glyph-name="Euro" unicode="&#x20ac;" 
d="M788 561l-50.9961 -165.996h-331c29.333 -72.667 72.333 -129.334 129 -170.001s121.334 -61 194.001 -61c38.667 0 76 4.16699 112 12.5s71 21.166 105 38.499s58.667 30.833 74 40.5l63 41.5l115 -139c-68.667 -62 -148.834 -108 -240.501 -138
s-165.834 -45 -222.501 -45c-144 0 -260.5 38.167 -349.5 114.5s-149.833 178.166 -182.5 305.499h-191l51 166h115c-1.33301 13.333 -2 34 -2 62v39h-164l51 165h138c33.333 130 95.333 233.5 186 310.5s200 115.5 328 115.5c48.667 0 98.5 -9 149.5 -27
s95.167 -44.333 132.5 -79v106h189v-456h-189v133c-21.333 37.333 -57.833 69.166 -109.5 95.499s-103.834 39.5 -156.501 39.5c-84.667 0 -154.834 -20.667 -210.501 -62s-94.834 -100 -117.501 -176h463l-51 -165h-446c-1.33301 -9.33301 -2 -23 -2 -41
c0 -28 0.666992 -48 2 -60h419z" />
    <glyph glyph-name="uni2113" unicode="&#x2113;" 
d="M989 1208c0 -82.667 -23.999 -172.331 -71.999 -268.998s-104.333 -184.334 -169 -263.001l-228 -279c0 -82 2 -163 6 -243c1.33301 -20 6.66602 -37 15.999 -51s22.666 -21 39.999 -21c24.667 0 51 14.167 79 42.5s62.333 70.166 103 125.499l92 -78
c-19.333 -28 -36.166 -51.167 -50.499 -69.5s-35 -41.833 -62 -70.5s-55.5 -50.667 -85.5 -66s-60.333 -23 -91 -23c-16.667 0 -32 2.16699 -46 6.5s-26.333 9.33301 -37 15s-20.667 14.5 -30 26.5l-23 30.5c-6 8.33301 -11.833 21 -17.5 38l-13 38.5
c-3 8.66699 -6 22.667 -9 42l-6 39c-1 6.66699 -2.66699 19.667 -5 39s-3.5 30 -3.5 32l-94 -96l-86 96l180 180v176c4 111.333 19.667 224.333 47 339s61.333 201 102 259c90 130 192.667 195 308 195c55.333 0 98.333 -22.667 129 -68c17.333 -26.667 26 -67.667 26 -123z
M850.001 1194c0 18.667 -3.33398 33.668 -10.001 45.001c-9.33301 14 -25.666 21 -48.999 21c-35.333 0 -72 -23 -110 -69s-70 -103.167 -96 -171.5s-42 -135.166 -48 -200.499c-10 -72 -17 -147.667 -21 -227l195 258c31.333 41.333 62.333 93.666 93 156.999
s46 125.666 46 186.999z" />
    <glyph glyph-name="trademark" unicode="&#x2122;" 
d="M1118 780h-88v547l-123 -547h-112l-129 549v-549h-88v609h161l109 -474l106 474h164v-609zM508 1298h-152v-518h-90v518h-151v91h393v-91z" />
    <glyph glyph-name="Omega" unicode="&#x2126;" 
d="M1184 659c0 -114.667 -29.8311 -213.497 -89.498 -296.497s-148.834 -144.5 -267.501 -184.5h213v62h138v-240h-521v293c113.333 27.333 196 71.166 248 131.499s78 140.833 78 241.5c0 91.333 -34.333 170.5 -103 237.5s-156 100.5 -262 100.5
c-106.667 0 -194.667 -32.833 -264 -98.5s-104 -145.5 -104 -239.5c0 -107.333 28.333 -189.833 85 -247.5s136.667 -99.5 240 -125.5v-293h-520v240h138v-62h213c-106.667 32 -192.834 89.333 -258.501 172s-98.5 185.667 -98.5 309c0 70 13.667 137.333 41 202
s65.166 121.667 113.499 171s108.333 88.666 180 117.999s149.167 44 232.5 44s160.833 -14.333 232.5 -43s131.834 -67.334 180.501 -116.001s86.667 -105.5 114 -170.5s41 -133.5 41 -205.5z" />
    <glyph glyph-name="estimated" unicode="&#x212e;" 
d="M1247 524l-1024 0.00195312c-5.33301 0 -8 -2.66699 -8 -8v-309c0 -16 4.66699 -27.667 14 -35c50.667 -52.667 109 -94.167 175 -124.5s136 -45.5 210 -45.5c81.333 0 157.166 16.833 227.499 50.5s131.166 80.5 182.499 140.5h92
c-58.667 -68.667 -132.167 -122.834 -220.5 -162.501s-182.833 -59.5 -283.5 -59.5c-114 0 -219.333 25.167 -316 75.5s-173.167 119.166 -229.5 206.499s-84.5 182.666 -84.5 285.999s28.167 198.833 84.5 286.5s132.833 157 229.5 208s202 76.5 316 76.5
c86.667 0 169.167 -15.167 247.5 -45.5s145.833 -71 202.5 -122s101.667 -111.667 135 -182s50 -144.166 50 -221.499v-15zM1016 563.002v314c0 12.667 -5.66699 24.667 -17 36c-112.667 108 -241 162 -385 162c-72.667 0 -142 -15 -208 -45s-124.333 -71 -175 -123
c-10.667 -8.66699 -16 -21.667 -16 -39v-305c0 -6.66699 2.66699 -10 8 -10h787c4 0 6 3.33301 6 10z" />
    <glyph glyph-name="oneeighth" unicode="&#x215b;" 
d="M1268 47c0 -64 -22.835 -117.166 -68.502 -159.499s-104.167 -63.5 -175.5 -63.5s-129.166 21.167 -173.499 63.5s-66.5 92.833 -66.5 151.5c0 79.333 33.667 145 101 197l-27 18c-43.333 30.667 -65 71 -65 121c0 42 20.667 80.833 62 116.5s99 53.5 173 53.5
c35.333 0 69.833 -5.66699 103.5 -17s62.667 -30.333 87 -57s36.5 -58 36.5 -94c0 -19.333 -2.33301 -36.5 -7 -51.5s-12.667 -28.333 -24 -40s-20.666 -20.334 -27.999 -26.001s-19 -13.5 -35 -23.5c71.333 -43.333 107 -106.333 107 -189zM1116 352.001
c0 18 -9.83496 31.833 -29.502 41.5s-41.167 14.5 -64.5 14.5c-24 0 -45.333 -5.66699 -64 -17s-28 -25.666 -28 -42.999c0 -14.667 8.83301 -27.834 26.5 -39.501s40.834 -17.5 69.501 -17.5c24.667 0 45.834 5.83301 63.501 17.5s26.5 26.167 26.5 43.5zM1128 61.001
c0 8 -0.831055 15.998 -2.49805 23.998s-5.33398 18 -11.001 30s-16 21.833 -31 29.5s-33.5 11.5 -55.5 11.5c-24 0 -43.833 -3.66699 -59.5 -11s-26.667 -17.166 -33 -29.499s-10.5 -22.666 -12.5 -30.999s-3 -16.833 -3 -25.5c0 -31.333 10.5 -55.5 31.5 -72.5
s45.833 -25.5 74.5 -25.5c27.333 0 51.166 9.16699 71.499 27.5s30.5 42.5 30.5 72.5zM1251 1182l-1034 -1368l-141 104l1028 1362zM443.998 540.999h-491v139h184v395l-162 -31v140l299 59v-563h170v-139z" />
    <glyph glyph-name="threeeighths" unicode="&#x215c;" 
d="M1249 47c0 -64 -22.834 -117.165 -68.501 -159.498s-103.834 -63.5 -174.501 -63.5c-71.333 0 -129.166 21.167 -173.499 63.5s-66.5 92.833 -66.5 151.5c0 79.333 33.333 145 100 197l-26 18c-44 31.333 -66 71.666 -66 120.999c0 42 20.833 80.833 62.5 116.5
s99.5 53.5 173.5 53.5c35.333 0 69.833 -5.66699 103.5 -17s62.667 -30.333 87 -57s36.5 -58 36.5 -94c0 -19.333 -2.33301 -36.5 -7 -51.5s-12.667 -28.333 -24 -40s-20.666 -20.334 -27.999 -26.001s-19 -13.5 -35 -23.5c70.667 -42.667 106 -105.667 106 -189z
M1098 352.002c0 18 -9.83301 31.835 -29.5 41.502s-41.167 14.5 -64.5 14.5c-24.667 0 -46.334 -5.83301 -65.001 -17.5s-28 -25.834 -28 -42.501c0 -14.667 9 -27.834 27 -39.501s41.333 -17.5 70 -17.5c24.667 0 45.834 5.83301 63.501 17.5s26.5 26.167 26.5 43.5z
M1110 61.0039c0 8 -0.832031 15.999 -2.49902 23.999s-5.33398 18 -11.001 30s-16 21.833 -31 29.5s-33.5 11.5 -55.5 11.5c-19.333 0 -36.166 -2.66699 -50.499 -8s-25 -11.666 -32 -18.999s-12.667 -16 -17 -26s-7 -18.167 -8 -24.5s-1.5 -12.833 -1.5 -19.5
c0 -31.333 10.667 -55.5 32 -72.5s46.333 -25.5 75 -25.5c27.333 0 51.166 9.16699 71.499 27.5s30.5 42.5 30.5 72.5zM1233 1182l-1034 -1368l-142 104l1028 1362zM176 844.003l0.00195312 135.001h68c0.666992 0 1.83398 -0.333008 3.50098 -1s3.16699 -1 4.5 -1
c26 0 47.5 5.66699 64.5 17s25.5 29 25.5 53c0 22 -7.16699 37.667 -21.5 47s-30.5 14 -48.5 14c-18.667 0 -40 -4.66699 -64 -14s-41.833 -17.333 -53.5 -24s-31.167 -18.667 -58.5 -36l-73 117c86.667 61.333 165.667 92 237 92c57.333 0 108.666 -17.667 153.999 -53
c43.333 -35.333 65 -82.333 65 -141c0 -54.667 -15.667 -95.667 -47 -123c54.667 -44.667 82 -101.334 82 -170.001c0 -64.667 -24 -119.834 -72 -165.501s-111.333 -68.5 -190 -68.5c-62.667 0 -144.667 23.333 -246 70l55 129
c27.333 -13.333 49.166 -23.666 65.499 -30.999s37.166 -14.333 62.499 -21s49.666 -10 72.999 -10h4c33.333 0 59.833 9.33301 79.5 28s29.5 41.667 29.5 69c0 24.667 -8.66699 45.5 -26 62.5s-43.666 25.5 -78.999 25.5h-94z" />
    <glyph glyph-name="fiveeighths" unicode="&#x215d;" 
d="M1237 47c0 -64 -22.834 -117.166 -68.501 -159.499s-104.167 -63.5 -175.5 -63.5s-129 21.167 -173 63.5s-66 92.833 -66 151.5c0 79.333 33.333 145 100 197l-27 18c-43.333 30.667 -65 71 -65 121c0 42 20.667 80.833 62 116.5s99 53.5 173 53.5
c35.333 0 69.833 -5.66699 103.5 -17s62.834 -30.333 87.501 -57s37 -58 37 -94c0 -25.333 -5.5 -47.833 -16.5 -67.5s-21.5 -33.334 -31.5 -41.001s-25.667 -18.5 -47 -32.5c71.333 -43.333 107 -106.333 107 -189zM1085 352.001c0 18 -9.83496 31.833 -29.502 41.5
s-41.167 14.5 -64.5 14.5c-24 0 -45.333 -5.66699 -64 -17s-28 -25.666 -28 -42.999c0 -14.667 8.83301 -27.834 26.5 -39.501s40.834 -17.5 69.501 -17.5c24.667 0 45.834 5.83301 63.501 17.5s26.5 26.167 26.5 43.5zM1098 61.001c0 8 -0.833008 15.998 -2.5 23.998
s-5.5 18 -11.5 30s-16.5 21.833 -31.5 29.5s-33.5 11.5 -55.5 11.5c-24 0 -43.833 -3.66699 -59.5 -11s-26.667 -17.166 -33 -29.499s-10.5 -22.666 -12.5 -30.999s-3 -16.833 -3 -25.5c0 -31.333 10.5 -55.5 31.5 -72.5s45.833 -25.5 74.5 -25.5
c27.333 0 51.333 9.16699 72 27.5s31 42.5 31 72.5zM1221 1182l-1035 -1368l-141 104l1028 1362zM470.997 1092h-281.002v-103c36 8 66.333 12 91 12c59.333 0 111.333 -20.167 156 -60.5s67 -94.5 67 -162.5c0 -70 -22.333 -129.833 -67 -179.5s-109 -74.5 -193 -74.5
c-43.333 0 -82.166 5.16699 -116.499 15.5s-72.166 25.166 -113.499 44.499l47 114c65.333 -24 121.333 -36 168 -36c12 0 23.667 0.833008 35 2.5s25.833 5.33398 43.5 11.001s32 16.167 43 31.5s16.5 34.333 16.5 57c0 20 -4.33301 37.167 -13 51.5s-20.167 25 -34.5 32
s-28.5 11.833 -42.5 14.5s-28.667 4 -44 4c-28 0 -66.667 -6 -116 -18l-58 39v342h412v-137z" />
    <glyph glyph-name="seveneighths" unicode="&#x215e;" 
d="M1200 47c0 -64 -22.834 -117.165 -68.501 -159.498s-104.167 -63.5 -175.5 -63.5s-129 21.167 -173 63.5s-66 92.833 -66 151.5c0 79.333 33.333 145 100 197l-26 18c-44 31.333 -66 71.666 -66 120.999c0 42 20.833 80.833 62.5 116.5s99.5 53.5 173.5 53.5
c35.333 0 69.833 -5.66699 103.5 -17s62.667 -30.333 87 -57s36.5 -58 36.5 -94c0 -19.333 -2.33301 -36.5 -7 -51.5s-12.667 -28.333 -24 -40s-20.666 -20.334 -27.999 -26.001s-19 -13.5 -35 -23.5c70.667 -42.667 106 -105.667 106 -189zM1049 352.002
c0 18 -9.83398 31.833 -29.501 41.5s-41.5 14.5 -65.5 14.5s-45.333 -5.66699 -64 -17s-28 -25.666 -28 -42.999c0 -14.667 8.83301 -27.834 26.5 -39.501s40.834 -17.5 69.501 -17.5c24.667 0 46 5.83301 64 17.5s27 26.167 27 43.5zM1061 61.002
c0 8 -0.833008 15.999 -2.5 23.999s-5.33398 18 -11.001 30s-16 21.833 -31 29.5s-33.5 11.5 -55.5 11.5c-19.333 0 -36.166 -2.66699 -50.499 -8s-25 -11.666 -32 -18.999s-12.667 -16 -17 -26s-7 -18.167 -8 -24.5s-1.5 -12.833 -1.5 -19.5
c0 -31.333 10.5 -55.5 31.5 -72.5s45.833 -25.5 74.5 -25.5c27.333 0 51.333 9.16699 72 27.5s31 42.5 31 72.5zM1184 1182l-1034 -1368l-142 104l1028 1362zM521.998 1145l-219 -604h-133l205 551h-191v-76h-137v213h475v-84z" />
    <glyph glyph-name="uni2190" unicode="&#x2190;" 
d="M1229 340h-905l323 -137l-49 -142l-598 258v230l600 262l47 -143l-323 -138h905v-190z" />
    <glyph glyph-name="arrowup" unicode="&#x2191;" 
d="M993 539l-141 -47l-137 323v-815h-191v815l-135 -323l-143 47l260 608h227z" />
    <glyph glyph-name="uni2192" unicode="&#x2192;" 
d="M1229 319l-598 -258l-49 142l323 137h-905v190h905l-323 138l47 143l600 -262v-230z" />
    <glyph glyph-name="arrowdown" unicode="&#x2193;" 
d="M993 606l-260 -606h-227l-260 606l143 47l135 -323v817h191v-817l137 323z" />
    <glyph glyph-name="arrowboth" unicode="&#x2194;" 
d="M1229 311l-473 -209l-51 136l215 96h-605l220 -98l-56 -134l-479 211v230l481 217l54 -135l-218 -101h598l-213 101l52 135l475 -217v-232z" />
    <glyph glyph-name="arrowupdn" unicode="&#x2195;" 
d="M942 451l-203 -451h-229l-209 451l141 53l86 -193v512l-88 -184l-139 53l209 455h233l199 -455l-133 -53l-92 190v-518l90 193z" />
    <glyph glyph-name="arrowupdnbse" unicode="&#x21a8;" 
d="M920 449l-199 -449h-238l-200 451l135 55l88 -195v516l-88 -190l-139 55l210 455h230l201 -455l-134 -55l-90 190v-518l88 195zM920 -336h-641v129h641v-129z" />
    <glyph glyph-name="partialdiff" unicode="&#x2202;" 
d="M850 854l0.00390625 15.998c0 85.333 -15.667 150 -47 194s-77 66 -137 66c-50.667 0 -87 -17 -109 -51c-2.66699 -4 -8.33398 -13.333 -17.001 -28s-14.834 -24 -18.501 -28s-10.334 -8.66699 -20.001 -14s-21.167 -8 -34.5 -8c-24 0 -44.333 6.66699 -61 20
s-25 28 -25 44c0 34.667 12 71.667 36 111s58 73.333 102 102s90.667 43 140 43c116.667 0 208.667 -52 276 -156s101 -250.667 101 -440c0 -91.333 -11.833 -183.166 -35.5 -275.499s-54.834 -171.833 -93.501 -238.5c-89.333 -157.333 -215 -236 -377 -236
c-101.333 0 -183.333 35.333 -246 106s-94 165.334 -94 284.001c0 74 14 146.5 42 217.5s67.333 133.5 118 187.5c86 94 187 141 303 141c74 0 139.667 -19 197 -57zM829.004 552.998c0 54 -15 95.833 -45 125.5s-70.667 44.5 -122 44.5c-76.667 0 -143 -35 -199 -105
s-84 -157.333 -84 -262c0 -60.667 14.167 -108.167 42.5 -142.5s66.833 -51.5 115.5 -51.5c50.667 0 98.667 19 144 57s81.333 87.167 108 147.5s40 122.5 40 186.5z" />
    <glyph glyph-name="Delta" unicode="&#x2206;" 
d="M1204 2h-1179l499 1169h197zM934 190l-322 758l-319 -758h641z" />
    <glyph glyph-name="product" unicode="&#x220f;" 
d="M1194 0l-536.998 -0.000976562v147h68c34.667 0 57.667 4.33301 69 13s17 27 17 55v623c0 23.333 -0.833008 42.833 -2.5 58.5s-5.5 28.834 -11.5 39.501s-11.833 18.834 -17.5 24.501s-15.667 10 -30 13s-27.333 4.66699 -39 5s-29.5 0.5 -53.5 0.5h-104
c-60.667 0 -99 -7.33301 -115 -22s-24 -48.334 -24 -101.001v-635c0 -49.333 15.667 -74 47 -74h110v-147h-542v147c15.333 -1.33301 35.666 -2 60.999 -2c55.333 0 91.666 8.5 108.999 25.5s26 51.5 26 103.5v687c0 40.667 -30 61 -90 61h-106v147h1165v-147h-76
c-44.667 0 -75.667 -3.66699 -93 -11s-26 -22 -26 -44v-666c0 -59.333 5.5 -99.833 16.5 -121.5s37.833 -32.5 80.5 -32.5h98v-147z" />
    <glyph glyph-name="summation" unicode="&#x2211;" 
d="M1223 -393h-1194v211l602 698l-590 664v221h1178v-191h-975l610 -694l-618 -719h987v-190z" />
    <glyph glyph-name="minus" unicode="&#x2212;" 
d="M1055 356h-879v189h879v-189z" />
    <glyph glyph-name="uni2215" unicode="&#x2215;" 
d="M1227 1198l-1028 -1372l-146 106l1026 1366z" />
    <glyph glyph-name="uni2219" unicode="&#x2219;" 
d="M809 655c0 -46 -18.167 -85.501 -54.5 -118.501s-80.833 -49.5 -133.5 -49.5c-34.667 0 -65.5 6 -92.5 18s-47.833 27.167 -62.5 45.5s-25.667 36.333 -33 54s-11 33.834 -11 48.501c0 45.333 18 85.333 54 120s82.667 52 140 52c59.333 0 106.333 -17.333 141 -52
s52 -74 52 -118z" />
    <glyph glyph-name="radical" unicode="&#x221a;" 
d="M1425 1559h-182l-592 -1643h-174l-160 672h-118v190h280l109 -432l502 1403h335v-190z" />
    <glyph glyph-name="infinity" unicode="&#x221e;" 
d="M621 555c42.667 88 87.6689 152.333 135.002 193s102.666 61 165.999 61c80.667 0 150.667 -35.833 210 -107.5s89 -160.167 89 -265.5c0 -104.667 -29.167 -191.834 -87.5 -261.501s-129.5 -104.5 -213.5 -104.5c-59.333 0 -111.833 18.333 -157.5 55
s-89.5 94 -131.5 172l-13 22c-76 -166 -176.333 -249 -301 -249c-86.667 0 -159.834 34.833 -219.501 104.5s-89.5 156.834 -89.5 261.501c0 106.667 30.667 195.5 92 266.5s134.333 106.5 219 106.5c114.667 0 209 -72.333 283 -217zM715.002 436
c30 -61.333 59.668 -106.333 89.001 -135s61.666 -43 96.999 -43c39.333 0 71.333 16.167 96 48.5s37 75.5 37 129.5c0 52 -13.333 95.333 -40 130s-59.667 52 -99 52c-32.667 0 -62.5 -14.333 -89.5 -43s-57.167 -75 -90.5 -139zM524.003 436l-25.999 51
c-30 46.667 -56.167 80.167 -78.5 100.5s-47.5 30.5 -75.5 30.5c-40 0 -73.5 -17.333 -100.5 -52s-40.5 -79.334 -40.5 -134.001c0 -51.333 12.167 -93.166 36.5 -125.499s55.166 -48.5 92.499 -48.5c71.333 0 135.333 59.333 192 178z" />
    <glyph glyph-name="intersection" unicode="&#x2229;" 
d="M1112 0h-190v496c0 114.667 -25.5 200 -76.5 256s-128.833 84 -233.5 84c-226.667 0 -340 -131.333 -340 -394v-442h-190v483c0 162.667 48.333 293.834 145 393.501s223 149.5 379 149.5c158.667 0 282.667 -47.833 372 -143.5s134 -228.834 134 -399.501v-483z" />
    <glyph glyph-name="integral" unicode="&#x222b;" 
d="M1198 1536c-42.667 8 -81.666 11.999 -116.999 11.999c-57.333 0 -105.5 -7 -144.5 -21s-71 -34 -96 -60s-44.167 -62.333 -57.5 -109s-22.5 -97.667 -27.5 -153s-7.5 -124.666 -7.5 -207.999v-641c0 -175.333 -42.167 -309.5 -126.5 -402.5
s-206.166 -139.5 -365.499 -139.5c-50.667 0 -101.334 2.66699 -152.001 8v188c34.667 -5.33301 75 -8 121 -8c66.667 0 120.167 6 160.5 18s74 34.333 101 67s45.5 76 55.5 130s15 125 15 213v641c0 227.333 40.167 394.5 120.5 501.5s207.5 160.5 381.5 160.5
c43.333 0 89.666 -3 138.999 -9v-188z" />
    <glyph glyph-name="approxequal" unicode="&#x2248;" 
d="M1206 659c-100 -126.667 -220.001 -190.003 -360.001 -190.003c-6.66699 0 -13.834 0.333008 -21.501 1s-14.5 1.33398 -20.5 2.00098s-13.333 2 -22 4l-20 4.5c-4.66699 1 -12.167 3 -22.5 6l-20.5 6c-3.33301 1 -10.833 3.66699 -22.5 8s-18.667 6.83301 -21 7.5
s-10 3.33398 -23 8.00098s-20.167 7.33398 -21.5 8.00098c-98 37.333 -174.667 56 -230 56c-49.333 0 -93.333 -11.5 -132 -34.5s-76.334 -59.5 -113.001 -109.5l-131 82c45.333 84 97.666 146.333 156.999 187s129 61 209 61c70 0 156 -17.667 258 -53
c3.33301 -1.33301 14 -5.16602 32 -11.499s29.333 -10.166 34 -11.499s14.334 -4.33301 29.001 -9s25.334 -7.83398 32.001 -9.50098l26.5 -6.5c11 -2.66699 20.833 -4.33398 29.5 -5.00098s17.334 -1 26.001 -1c80.667 0 154.334 32.333 221.001 97zM1206 341.997
c-100 -126.667 -220.001 -189.998 -360.001 -189.998c-8 0 -16.667 0.5 -26 1.5s-17.666 2 -24.999 3s-16.5 3 -27.5 6s-19.333 5.16699 -25 6.5s-15.167 4.33301 -28.5 9s-22.166 7.66699 -26.499 9s-14 4.66602 -29 9.99902s-24.167 8.66602 -27.5 9.99902
c-93.333 36.667 -170 55 -230 55c-48.667 0 -92.667 -11.5 -132 -34.5s-77 -59.167 -113 -108.5l-131 82c45.333 84 97.666 146.333 156.999 187s129 61 209 61c70.667 0 156.667 -18 258 -54c87.333 -30 147 -47 179 -51c10.667 -1.33301 20.667 -2 30 -2
c81.333 0 155 32 221 96z" />
    <glyph glyph-name="notequal" unicode="&#x2260;" 
d="M1055 170h-545l-131 -156h-203l123 156h-123v190h279l112 140h-391v190h545l127 156h207l-127 -156h127v-190h-279l-114 -140h393v-190z" />
    <glyph glyph-name="equivalence" unicode="&#x2261;" 
d="M1200 680h-1169v190h1169v-190zM1200 377h-1169v188h1169v-188zM1200 72h-1169v190h1169v-190z" />
    <glyph glyph-name="lessequal" unicode="&#x2264;" 
d="M1116 264l-883 211v221l883 211v-178l-702 -143l702 -144v-178zM1116 0h-883v190h883v-190z" />
    <glyph glyph-name="greaterequal" unicode="&#x2265;" 
d="M1116 475l-883 -211v178l701 144l-701 143v178l883 -211v-221zM1116 0h-883v190h883v-190z" />
    <glyph glyph-name="dotmath" unicode="&#x22c5;" 
d="M512 737c0 20.667 7.16699 38.167 21.5 52.5s31.833 21.5 52.5 21.5s38 -7.16699 52 -21.5s21 -31.833 21 -52.5s-7 -38 -21 -52s-31.333 -21 -52 -21s-38.167 7 -52.5 21s-21.5 31.333 -21.5 52z" />
    <glyph glyph-name="house" unicode="&#x2302;" 
d="M1163 0h-1097v645l548 643l549 -645v-643zM1032 131v467l-416 492l-419 -492v-467h835z" />
    <glyph glyph-name="uni2304" unicode="&#x2304;" 
d="M137 1171h215l262 -497l263 497h215l-373 -698h-209z" />
    <glyph glyph-name="revlogicalnot" unicode="&#x2310;" 
d="M1057 543h-688v-350h-189v540h877v-190z" />
    <glyph glyph-name="uni2319" unicode="&#x2319;" 
d="M61 565h91v-475h1015v-90h-1106v565z" />
    <glyph glyph-name="integraltp" unicode="&#x2320;" 
d="M1219 1331c-74 10 -129.333 14.999 -166 14.999c-116.667 0 -202.167 -41.667 -256.5 -125s-81.5 -211.666 -81.5 -384.999v-1348h-191v1382c0 218 48 383.5 144 496.5s234.333 169.5 415 169.5c44.667 0 90 -4.66699 136 -14v-191z" />
    <glyph glyph-name="integralbt" unicode="&#x2321;" 
d="M715 348c0 -218 -48.001 -383.668 -144.001 -497.001s-234.333 -170 -415 -170c-40.667 0 -86 5.33301 -136 16v190c55.333 -9.33301 107.333 -14 156 -14c122.667 0 211.334 40.833 266.001 122.5s82 210.834 82 387.501v1348h191v-1383z" />
    <glyph glyph-name="uni2500" unicode="&#x2500;" 
d="M1229 449h-1229v126h1229v-126z" />
    <glyph glyph-name="uni2502" unicode="&#x2502;" 
d="M678 -512h-127v2048h127v-2048z" />
    <glyph glyph-name="uni250C" unicode="&#x250c;" 
d="M1229 449h-551v-961h-127v1087h678v-126z" />
    <glyph glyph-name="uni2510" unicode="&#x2510;" 
d="M678 -512h-127v961h-551v126h678v-1087z" />
    <glyph glyph-name="uni2514" unicode="&#x2514;" 
d="M1229 449h-678v1087h127v-961h551v-126z" />
    <glyph glyph-name="uni2518" unicode="&#x2518;" 
d="M678 449h-678v126h551v961h127v-1087z" />
    <glyph glyph-name="uni251C" unicode="&#x251c;" 
d="M1229 449h-551v-961h-127v2048h127v-961h551v-126z" />
    <glyph glyph-name="uni2524" unicode="&#x2524;" 
d="M678 -512h-127v961h-551v126h551v961h127v-2048z" />
    <glyph glyph-name="uni252C" unicode="&#x252c;" 
d="M1229 449h-551v-961h-127v961h-551v126h1229v-126z" />
    <glyph glyph-name="uni2534" unicode="&#x2534;" 
d="M1229 449h-1229v126h551v961h127v-961h551v-126z" />
    <glyph glyph-name="uni253C" unicode="&#x253c;" 
d="M1229 449h-551v-961h-127v961h-551v126h551v961h127v-961h551v-126z" />
    <glyph glyph-name="uni2550" unicode="&#x2550;" 
d="M1229 641h-1229v127h1229v-127zM1229 256h-1229v127h1229v-127z" />
    <glyph glyph-name="uni2551" unicode="&#x2551;" 
d="M870 -512h-127v2048h127v-2048zM485 -512h-127v2048h127v-2048z" />
    <glyph glyph-name="uni2552" unicode="&#x2552;" 
d="M1229 256h-551v-768h-127v1280h678v-127h-551v-258h551v-127z" />
    <glyph glyph-name="uni2553" unicode="&#x2553;" 
d="M1229 449h-359v-961h-127v961h-258v-961h-127v1087h871v-126z" />
    <glyph glyph-name="uni2554" unicode="&#x2554;" 
d="M1229 641h-744v-1153h-127v1280h871v-127zM1229 256h-359v-768h-127v895h486v-127z" />
    <glyph glyph-name="uni2555" unicode="&#x2555;" 
d="M678 -512h-127v768h-551v127h551v258h-551v127h678v-1280z" />
    <glyph glyph-name="uni2556" unicode="&#x2556;" 
d="M870 -512h-127v961h-258v-961h-127v961h-358v126h870v-1087z" />
    <glyph glyph-name="uni2557" unicode="&#x2557;" 
d="M870 -512h-127v1153h-743v127h870v-1280zM485 -512h-127v768h-358v127h485v-895z" />
    <glyph glyph-name="uni2558" unicode="&#x2558;" 
d="M1229 256h-678v1280h127v-768h551v-127h-551v-258h551v-127z" />
    <glyph glyph-name="uni2559" unicode="&#x2559;" 
d="M1229 449h-871v1087h127v-961h258v961h127v-961h359v-126z" />
    <glyph glyph-name="uni255A" unicode="&#x255a;" 
d="M1229 641h-486v895h127v-768h359v-127zM1229 256h-871v1280h127v-1153h744v-127z" />
    <glyph glyph-name="uni255B" unicode="&#x255b;" 
d="M678 256h-678v127h551v258h-551v127h551v768h127v-1280z" />
    <glyph glyph-name="uni255C" unicode="&#x255c;" 
d="M870 449h-870v126h358v961h127v-961h258v961h127v-1087z" />
    <glyph glyph-name="uni255D" unicode="&#x255d;" 
d="M485 641h-485v127h358v768h127v-895zM870 256h-870v127h743v1153h127v-1280z" />
    <glyph glyph-name="uni255E" unicode="&#x255e;" 
d="M1229 256h-551v-768h-127v2048h127v-768h551v-127h-551v-258h551v-127z" />
    <glyph glyph-name="uni255F" unicode="&#x255f;" 
d="M1229 449h-359v-961h-127v2048h127v-961h359v-126zM485 -512h-127v2048h127v-2048z" />
    <glyph glyph-name="uni2560" unicode="&#x2560;" 
d="M1229 641h-486v895h127v-768h359v-127zM485 -512h-127v2048h127v-2048zM1229 256h-359v-768h-127v895h486v-127z" />
    <glyph glyph-name="uni2561" unicode="&#x2561;" 
d="M678 -512h-127v768h-551v127h551v258h-551v127h551v768h127v-2048z" />
    <glyph glyph-name="uni2562" unicode="&#x2562;" 
d="M870 -512h-127v2048h127v-2048zM485 -512h-127v961h-358v126h358v961h127v-2048z" />
    <glyph glyph-name="uni2563" unicode="&#x2563;" 
d="M485 641h-485v127h358v768h127v-895zM870 -512h-127v2048h127v-2048zM485 -512h-127v768h-358v127h485v-895z" />
    <glyph glyph-name="uni2564" unicode="&#x2564;" 
d="M1229 641h-1229v127h1229v-127zM1229 256h-551v-768h-127v768h-551v127h1229v-127z" />
    <glyph glyph-name="uni2565" unicode="&#x2565;" 
d="M1229 449h-359v-961h-127v961h-258v-961h-127v961h-358v126h1229v-126z" />
    <glyph glyph-name="uni2566" unicode="&#x2566;" 
d="M1229 641h-1229v127h1229v-127zM1229 256h-359v-768h-127v895h486v-127zM485 -512h-127v768h-358v127h485v-895z" />
    <glyph glyph-name="uni2567" unicode="&#x2567;" 
d="M1229 641h-1229v127h551v768h127v-768h551v-127zM1229 256h-1229v127h1229v-127z" />
    <glyph glyph-name="uni2568" unicode="&#x2568;" 
d="M1229 449h-1229v126h358v961h127v-961h258v961h127v-961h359v-126z" />
    <glyph glyph-name="uni2569" unicode="&#x2569;" 
d="M1229 641h-486v895h127v-768h359v-127zM485 641h-485v127h358v768h127v-895zM1229 256h-1229v127h1229v-127z" />
    <glyph glyph-name="uni256A" unicode="&#x256a;" 
d="M1229 256h-551v-768h-127v768h-551v127h551v258h-551v127h551v768h127v-768h551v-127h-551v-258h551v-127z" />
    <glyph glyph-name="uni256B" unicode="&#x256b;" 
d="M1229 449h-359v-961h-127v961h-258v-961h-127v961h-358v126h358v961h127v-961h258v961h127v-961h359v-126z" />
    <glyph glyph-name="uni256C" unicode="&#x256c;" 
d="M1229 641h-486v895h127v-768h359v-127zM485 641h-485v127h358v768h127v-895zM1229 256h-359v-768h-127v895h486v-127zM485 -512h-127v768h-358v127h485v-895z" />
    <glyph glyph-name="upblock" unicode="&#x2580;" 
d="M1229 512h-1229v1024h1229v-1024z" />
    <glyph glyph-name="dnblock" unicode="&#x2584;" 
d="M1229 -512h-1229v1024h1229v-1024z" />
    <glyph glyph-name="block" unicode="&#x2588;" 
d="M1229 -512h-1229v2048h1229v-2048z" />
    <glyph glyph-name="lfblock" unicode="&#x258c;" 
d="M614 -512h-614v2048h614v-2048z" />
    <glyph glyph-name="rtblock" unicode="&#x2590;" 
d="M1229 -512h-615v2048h615v-2048z" />
    <glyph glyph-name="ltshade" unicode="&#x2591;" 
d="M922 1196h-306v340h306v-340zM307 1196h-307v340h307v-340zM922 514h-306v340h306v-340zM307 514h-307v340h307v-340zM922 -168h-306v340h306v-340zM307 -168h-307v340h307v-340z" />
    <glyph glyph-name="shade" unicode="&#x2592;" 
d="M922 1198h-306v338h306v-338zM1229 856h-305v340h305v-340zM307 1198h-307v338h307v-338zM614 856h-307v340h307v-340zM922 514h-306v340h306v-340zM1229 172h-305v340h305v-340zM307 514h-307v340h307v-340zM614 172h-307v340h307v-340zM922 -168h-306v338h306v-338z
M1229 -512h-305v340h305v-340zM307 -168h-307v338h307v-338zM614 -512h-307v340h307v-340z" />
    <glyph glyph-name="dkshade" unicode="&#x2593;" 
d="M1229 -170h-307v-342h-310v342h-305v-342h-307v2048h1229v-342h-307v-340h307v-342h-307v-340h307v-342zM612 854v340h-305v-340h305zM612 172v340h-305v-340h305z" />
    <glyph glyph-name="uni25A0" unicode="&#x25a0;" 
d="M1092 137h-955v959h955v-959z" />
    <glyph glyph-name="filledrect" unicode="&#x25ac;" 
d="M1124 0h-1018v406h1018v-406z" />
    <glyph glyph-name="triagup" unicode="&#x25b2;" 
d="M1067 117h-905l452 870z" />
    <glyph glyph-name="uni25B6" unicode="&#x25b6;" 
d="M1038 510l-833 -455v910z" />
    <glyph glyph-name="triagdn" unicode="&#x25bc;" 
d="M1067 987l-453 -870l-452 870h905z" />
    <glyph glyph-name="uni25C0" unicode="&#x25c0;" 
d="M1024 55l-836 455l836 455v-910z" />
    <glyph glyph-name="lozenge" unicode="&#x25ca;" 
d="M1247 684l-624 -704l-637 702l632 704zM1157 684l-539 592l-542 -594l547 -592z" />
    <glyph glyph-name="circle" unicode="&#x25cb;" 
d="M1122 616c0 -142 -48.999 -262 -146.999 -360c-100 -100 -220.333 -150 -361 -150c-140 0 -260 50 -360 150c-98.667 98.667 -148 218.667 -148 360c0 142 49.333 262.333 148 361c99.333 99.333 219.333 149 360 149c143.333 0 263.666 -49.667 360.999 -149
c98 -98 147 -218.333 147 -361zM1044 616c0 121.333 -41.333 223.332 -124 305.999c-84.667 84.667 -186.667 127 -306 127c-118.667 0 -220.334 -42.333 -305.001 -127c-83.333 -83.333 -125 -185.333 -125 -306c0 -120 41.667 -221.667 125 -305
c84.667 -84.667 186.334 -127 305.001 -127c119.333 0 221.333 42.333 306 127c82.667 82.667 124 184.334 124 305.001z" />
    <glyph glyph-name="invbullet" unicode="&#x25d8;" 
d="M1229 0h-1229v1233h1229v-1233zM1004 616c0 108 -38.333 200.333 -115 277c-74.667 76.667 -166.334 115 -275.001 115c-106 0 -197.333 -38.333 -274 -115s-115 -169 -115 -277c0 -107.333 38.333 -199.333 115 -276s168 -115 274 -115
c108.667 0 200.334 38.333 275.001 115c76.667 76.667 115 168.667 115 276z" />
    <glyph glyph-name="invcircle" unicode="&#x25d9;" 
d="M1229 0h-1229v1233h1229v-1233zM1059 616c0 123.333 -43.667 228.666 -131 315.999s-192 131 -314 131c-123.333 0 -227.666 -43.667 -312.999 -131c-87.333 -87.333 -131 -192.666 -131 -315.999c0 -122.667 43.667 -227.667 131 -315
c85.333 -87.333 189.666 -131 312.999 -131c124 0 228.667 43.667 314 131c87.333 87.333 131 192.333 131 315zM932 614c0 -88.667 -30.667 -163.667 -92 -225s-136.666 -92 -225.999 -92s-164.5 30.333 -225.5 91s-91.5 136 -91.5 226c0 91.333 30.5 167.833 91.5 229.5
s136.167 92.5 225.5 92.5s164.666 -30.833 225.999 -92.5s92 -138.167 92 -229.5z" />
    <glyph glyph-name="smileface" unicode="&#x263a;" 
d="M1221 606c0 -130 -36.3311 -247.333 -108.998 -352c-56.667 -80.667 -127.834 -143.167 -213.501 -187.5s-178.167 -66.5 -277.5 -66.5c-101.333 0 -196 23 -284 69s-160.667 110.333 -218 193c-71.333 102 -107 215.333 -107 340c0 168 61 312 183 432
c118 116 260.667 174 428 174c164 0 304.333 -59.333 421 -178c57.333 -57.333 101.166 -122.5 131.499 -195.5s45.5 -149.167 45.5 -228.5zM1153 606c0 70.667 -13.833 139 -41.5 205s-66.5 124 -116.5 174c-102 104 -226 156 -372 156c-92 0 -177.333 -20.833 -256 -62.5
s-143.667 -100.167 -195 -175.5c-61.333 -90.667 -92 -189.667 -92 -297c0 -92.667 21.667 -178.667 65 -258s103.666 -143.333 180.999 -192c92.667 -58.667 191.667 -88 297 -88c87.333 0 169.333 19.667 246 59s139.334 94 188.001 164c64 91.333 96 196.333 96 315z
M776.002 879c0 -46.667 -16.333 -70.001 -49 -70.001c-28.667 0 -43 21.667 -43 65c0 22.667 3.5 39.334 10.5 50.001s18.5 16 34.5 16c31.333 0 47 -20.333 47 -61zM557.002 878.999c0 -46.667 -16.333 -70.001 -49 -70.001c-28.667 0 -43 21.667 -43 65
c0 22.667 3.5 39.334 10.5 50.001s18.5 16 34.5 16c31.333 0 47 -20.333 47 -61zM1069 595.998c-7.33301 -9.33301 -16.998 -14.001 -28.998 -14.001c-3.33301 0 -17.666 3.33301 -42.999 10c-42 -101.333 -93.333 -175.833 -154 -223.5s-134.667 -71.5 -222 -71.5
c-177.333 0 -299 75.667 -365 227c-16.667 39.333 -27.667 61 -33 65c-2.66699 2 -5.33398 3 -8.00098 3c-2 0 -7.5 -1.66699 -16.5 -5s-16.5 -5 -22.5 -5c-10 0 -16.833 1.83301 -20.5 5.5s-5.5 10.5 -5.5 20.5c0 20.667 17.167 49.5 51.5 86.5s63.5 55.5 87.5 55.5
c12 0 18 -6.33301 18 -19c0 -114 26.167 -200.833 78.5 -260.5s127.166 -89.5 224.499 -89.5c85.333 0 156.333 27.333 213 82c28.667 28 52 62.833 70 104.5s27 77.167 27 106.5c0 6.66699 -1.5 16.334 -4.5 29.001s-4.5 22 -4.5 28c0 15.333 7.66699 23 23 23
c18 0 42.667 -16.167 74 -48.5s51.666 -68.833 60.999 -109.5z" />
    <glyph glyph-name="invsmileface" unicode="&#x263b;" 
d="M1217 606c0 -132.667 -36.332 -250 -108.999 -352c-56.667 -80.667 -127.834 -143.167 -213.501 -187.5s-178.5 -66.5 -278.5 -66.5c-101.333 -0 -195.833 22.833 -283.5 68.5s-160.167 110.167 -217.5 193.5c-71.333 102 -107 215.333 -107 340
c0 168.667 60.667 312.667 182 432c118 116 260.667 174 428 174c164.667 0 305.334 -59.333 422.001 -178c57.333 -57.333 101.166 -122.5 131.499 -195.5s45.5 -149.167 45.5 -228.5zM825.001 901c0 31.333 -7.16699 56.333 -21.5 75s-32.833 28 -55.5 28
s-40.667 -8.16699 -54 -24.5s-20 -38.5 -20 -66.5c0 -70.667 27.333 -106 82 -106c46 0 69 31.333 69 94zM549.001 913c0 28 -6.66699 50.167 -20 66.5s-31.333 24.5 -54 24.5c-24 0 -43 -9 -57 -27s-21 -43.333 -21 -76c0 -62.667 23.333 -94 70 -94
c54.667 0 82 35.333 82 106zM1128 606c0 38 -21.9951 82.667 -65.9951 134s-78.667 77 -104 77c-16 0 -27.5 -3.5 -34.5 -10.5s-10.5 -18.5 -10.5 -34.5v-88c0 -94 -27.833 -173.5 -83.5 -238.5s-126.834 -97.5 -213.501 -97.5c-91.333 0 -166 32.667 -224 98
s-87 148.666 -87 249.999v72c0 32.667 -12.333 49 -37 49c-28.667 0 -64.834 -25.667 -108.501 -77s-65.5 -96 -65.5 -134c0 -15.333 2.83301 -26.333 8.5 -33s15.834 -10 30.501 -10c10 0 20 6.16699 30 18.5s17.667 18.5 23 18.5c7.33301 0 13.333 -3.5 18 -10.5
s9.66699 -20.667 15 -41s9.33301 -33.833 12 -40.5c31.333 -88 80.666 -156.5 147.999 -205.5s146.333 -73.5 237 -73.5c168 0 290.333 84.667 367 254c7.33301 15.333 13.666 33.833 18.999 55.5s10.166 37.334 14.499 47.001s10.833 14.5 19.5 14.5
c5.33301 0 13.166 -6.16699 23.499 -18.5s20.5 -18.5 30.5 -18.5c25.333 0 38 14.333 38 43z" />
    <glyph glyph-name="sun" unicode="&#x263c;" 
d="M1335 694l-224.999 -0.000976562c-14 -108 -54.333 -202 -121 -282l166 -170l-57 -54l-164 168c-87.333 -72 -181.666 -113 -282.999 -123v-225h-78v225c-106.667 10.667 -200.667 53 -282 127l-172 -167l-56 55l170 168c-72.667 76.667 -112 169.334 -118 278.001h-230
v78h230c10 110 50.333 204.333 121 283l-168 166l49 53l170 -166c81.333 69.333 176.666 111 285.999 125v227h78v-227c107.333 -10 203.666 -51 288.999 -123l164 166l51 -53l-166 -166c70.667 -84.667 111 -179.667 121 -285h225v-78zM1032 732.999
c0 117.333 -41 217 -123 299s-181 123 -297 123s-215 -41 -297 -123c-81.333 -81.333 -122 -181 -122 -299s40.667 -217.667 122 -299c82 -82 181 -123 297 -123s215 41 297 123s123 181.667 123 299z" />
    <glyph glyph-name="female" unicode="&#x2640;" 
d="M567 643c-128 26.667 -226.833 79.001 -296.5 157.001s-104.5 174.667 -104.5 290c0 73.333 17.167 142.833 51.5 208.5s81.833 118.834 142.5 159.501c79.333 52 166.333 78 261 78c122 0 226.167 -42.833 312.5 -128.5s129.5 -190.834 129.5 -315.501
c0 -120 -36.333 -220.833 -109 -302.5s-170 -129.834 -292 -144.501v-299h290v-94h-290v-252h-95v252h-291v94h291v297zM979 1094c0 102 -35.667 188.669 -107 260.002c-70.667 70.667 -156.667 106 -258 106s-187.333 -35.333 -258 -106s-106 -157.334 -106 -260.001
s35.333 -189.334 106 -260.001c71.333 -71.333 157.333 -107 258 -107s186.667 35.667 258 107s107 158 107 260z" />
    <glyph glyph-name="male" unicode="&#x2642;" 
d="M1161 1096l-31.001 -26.9971c-72 59.333 -138.667 148.666 -200 267.999l-199 -493c72.667 -46 129.5 -102.667 170.5 -170s61.5 -143.333 61.5 -228c0 -86 -23.333 -165.667 -70 -239c-40.667 -64.667 -94.167 -115.334 -160.5 -152.001s-137.166 -55 -212.499 -55
c-126.667 0 -232.667 42.667 -318 128s-128 191.333 -128 318c0 73.333 16.5 142.666 49.5 207.999s79.167 119 138.5 161c73.333 52 155.333 78 246 78c40.667 0 85 -5.33301 133 -16l203 489c-138.667 -31.333 -243.334 -47 -314.001 -47h-12l-8 37
c153.333 42 294 102 422 180l41 -14c18.667 -118 81.334 -260 188.001 -426zM880.999 446.003c0 99.333 -35.6689 184.666 -107.002 255.999s-156.666 107 -255.999 107s-184.666 -35.667 -255.999 -107c-69.333 -69.333 -104 -154.666 -104 -255.999
s34.667 -186.666 104 -255.999c70.667 -70.667 156 -106 256 -106s185.333 35.333 256 106c71.333 71.333 107 156.666 107 255.999z" />
    <glyph glyph-name="spade" unicode="&#x2660;" 
d="M621 1169c36.667 -58 77.668 -116.999 123.001 -176.999l148.5 -190c53.667 -66.667 94.167 -118.334 121.5 -155.001c48.667 -64 84.667 -120.167 108 -168.5s35 -95.833 35 -142.5c0 -64 -19.167 -116.833 -57.5 -158.5s-85.5 -62.5 -141.5 -62.5
c-30 0 -55.833 3.83301 -77.5 11.5s-40.667 20.167 -57 37.5s-30 35.5 -41 54.5s-23.5 44.5 -37.5 76.5c-16 36.667 -34.333 55 -55 55c-26 0 -39 -35.333 -39 -106c0 -78 24.667 -159.333 74 -244h-209c49.333 84.667 74 168.667 74 252c0 29.333 -3.83301 53 -11.5 71
s-16.834 27 -27.501 27c-12 0 -22 -4.33301 -30 -13s-16.333 -22.667 -25 -42c-14 -32 -26.5 -57.5 -37.5 -76.5s-24.667 -37.167 -41 -54.5s-35.333 -29.833 -57 -37.5s-47.5 -11.5 -77.5 -11.5c-60 0 -109.833 20.667 -149.5 62s-59.5 95 -59.5 161
c0 46.667 10.833 92.5 32.5 137.5s54.5 96.167 98.5 153.5c3.33301 4.66699 27.5 34.167 72.5 88.5l157.5 198c60 77.667 122 162.167 186 253.5z" />
    <glyph glyph-name="uni2662" unicode="&#x2662;" 
d="M1247 684l-624 -704l-637 702l632 704zM1157 684l-539 592l-542 -594l547 -592z" />
    <glyph glyph-name="club" unicode="&#x2663;" 
d="M496 0c48.667 68.667 72.9971 144.339 72.9971 227.006c0 84.667 -13 127 -39 127c-6 0 -12.667 -2.5 -20 -7.5s-13.166 -9.83301 -17.499 -14.5s-12.166 -13.667 -23.499 -27c-29.333 -36 -54.166 -63.5 -74.499 -82.5s-44.5 -35.167 -72.5 -48.5s-58.333 -20 -91 -20
c-70 0 -125.667 24.333 -167 73s-62 114.334 -62 197.001c0 77.333 20.667 139.333 62 186s96.333 70 165 70c30.667 0 59.834 -5.33301 87.501 -16s49.5 -22.334 65.5 -35.001s32.833 -24.334 50.5 -35.001s33.167 -16 46.5 -16c9.33301 0 17.5 2.66699 24.5 8
s10.5 12 10.5 20c0 12 -24 40 -72 84c-36 33.333 -62.333 63.666 -79 90.999s-25 60.666 -25 99.999c0 70 24.333 127 73 171s113.667 66 195 66c90.667 0 161.834 -21.333 213.501 -64s77.5 -100.334 77.5 -173.001c0 -60 -24.667 -114.667 -74 -164
c-10 -10 -22.5 -21.833 -37.5 -35.5l-33 -30.5c-7 -6.66699 -13.333 -14.334 -19 -23.001s-8.5 -16.667 -8.5 -24c0 -6 3.16699 -11.833 9.5 -17.5s13.5 -8.5 21.5 -8.5c11.333 0 29.833 8.66699 55.5 26s56 34.666 91 51.999s69.5 26 103.5 26
c63.333 0 116.333 -24.833 159 -74.5s64 -113.5 64 -191.5c0 -78.667 -20.333 -142 -61 -190s-94 -72 -160 -72c-66.667 0 -126.334 27.333 -179.001 82c-12.667 14 -25.834 29.5 -39.501 46.5l-31 39c-7 9 -14.667 16.667 -23 23s-16.5 9.5 -24.5 9.5
c-12 0 -21.833 -10.667 -29.5 -32s-11.5 -51 -11.5 -89c0 -87.333 25 -165 75 -233h-249z" />
    <glyph glyph-name="heart" unicode="&#x2665;" 
d="M618 0l-292.498 391.501l-157.5 202.5c-32 45.333 -55.667 87.166 -71 125.499s-23 83.833 -23 136.5c0 86 23.667 155.333 71 208s107.666 79 180.999 79c94 0 168.333 -54 223 -162c5.33301 -10.667 11.166 -23.667 17.499 -39l14.5 -35
c3.33301 -8 7.83301 -15 13.5 -21s12.167 -9 19.5 -9c12.667 0 22.5 5 29.5 15s15.833 27.333 26.5 52c29.333 68.667 62.166 119 98.499 151s81.833 48 136.5 48c70.667 0 130 -26.833 178 -80.5s72 -122.5 72 -206.5c0 -92 -34.667 -185.667 -104 -281
c-0.666992 -0.666992 -53.167 -67.667 -157.5 -201s-196.166 -258 -275.499 -374z" />
    <glyph glyph-name="diamond" unicode="&#x2666;" 
d="M1079 551l-463 -598l-462 588l462 598z" />
    <glyph glyph-name="musicalnote" unicode="&#x266a;" 
d="M666 1513c2 -112 8.66895 -184.332 20.002 -216.999c8 -22.667 22 -46.834 42 -72.501s47.667 -58.334 83 -98.001s64.666 -74.167 87.999 -103.5c50 -65.333 87.167 -128.166 111.5 -188.499s36.5 -125.833 36.5 -196.5c0 -79.333 -14.333 -173 -43 -281l-76 25
c28.667 110.667 43 195.334 43 254.001c0 177.333 -101.667 326.666 -305 447.999v-759c0 -85.333 -32 -155.833 -96 -211.5s-140.667 -83.5 -230 -83.5c-56 0 -100.333 14.333 -133 43s-49 66.667 -49 114c0 66 32.667 128.333 98 187c69.333 62.667 148.666 94 237.999 94
c26 0 57.333 -3.33301 94 -10v1056h78z" />
    <glyph glyph-name="uni266C" unicode="&#x266c;" 
d="M1057 -86c0 -88 -31.332 -159.834 -93.999 -215.501s-140.667 -83.5 -234 -83.5c-55.333 0 -98.5 13.5 -129.5 40.5s-46.5 64.167 -46.5 111.5c0 74 33.167 139.5 99.5 196.5s143.833 85.5 232.5 85.5c15.333 0 26.333 -0.666992 33 -2l61 -6v520
c-69.333 122 -169 207.333 -299 256v-485c0 -86 -33 -158.333 -99 -217s-144.333 -88 -235 -88c-52 0 -94.333 14.5 -127 43.5s-49 66.833 -49 113.5c0 70.667 31.333 135.5 94 194.5s139.334 88.5 230.001 88.5c2.66699 0 7.16699 -0.333008 13.5 -1s11.166 -1 14.499 -1
l80 -6v1054h78v-22c0 -70.667 10.333 -128 31 -172c12.667 -28.667 29.667 -55.5 51 -80.5s52.666 -56.667 93.999 -95s69.333 -65.166 84 -80.499c50 -51.333 82 -97 96 -137s21 -93.333 21 -160v-852zM979.001 714.999l-0.000976562 88c0 69.333 -24.167 130 -72.5 182
s-123.833 100.333 -226.5 145v-30c0 -58 6.66699 -99 20 -123c6.66699 -10.667 21.834 -26.5 45.501 -47.5l103 -91.5c45 -40 88.5 -81 130.5 -123z" />
    <glyph glyph-name="uni0044_uni004D" unicode="&#xe001;" 
d="M1303 0h-359v190h70v566l-74 -197h-78l-74 197v-566h70v-190h-358v190h98v791h-98v190h291l110 -315l111 315h291v-190h-99v-791h99v-190zM-94 981l0.000976562 190.002h280c44 0 83.667 -6.66699 119 -20s64.833 -30.5 88.5 -51.5s44 -47.667 61 -80
s30.167 -63.833 39.5 -94.5s16.666 -66.334 21.999 -107.001s8.66602 -76 9.99902 -106s2 -64 2 -102c0 -34 -0.5 -64.333 -1.5 -91s-3 -59.334 -6 -98.001s-8 -73 -15 -103s-16 -62 -27 -96s-25.333 -63.5 -43 -88.5s-38.167 -48 -61.5 -69s-51.666 -37 -84.999 -48
s-70.333 -16.5 -111 -16.5h-272v190h119v791h-119zM215.001 979.002v-783.997c13.333 4.66699 25.5 11.5 36.5 20.5s20.5 18.333 28.5 28s15 23 21 40s11 31.667 15 44s7.33301 29.666 10 51.999s4.66699 39.833 6 52.5s2.33301 31.667 3 57s1 43.166 1 53.499v53.5
c0 108.667 -2.66699 181 -8 217c-14 97.333 -51.667 152.666 -113 165.999z" />
    <glyph glyph-name="zero.slash" unicode="&#xf638;" 
d="M621 1253c51.333 0 97.832 -8.16504 139.499 -24.498s76.334 -37.666 104.001 -63.999s51.834 -58.333 72.501 -96s36.667 -75.167 48 -112.5s20.333 -78.333 27 -123s11 -83.667 13 -117s3 -68 3 -104c0 -21.333 -0.333008 -42 -1 -62s-2.5 -46.333 -5.5 -79
s-7.16699 -63.334 -12.5 -92.001s-13 -60.334 -23 -95.001s-21.833 -66 -35.5 -94s-31.167 -55.833 -52.5 -83.5s-45 -50.834 -71 -69.501s-57 -33.667 -93 -45s-75.333 -17 -118 -17c-52.667 0 -100.5 8.83301 -143.5 26.5s-78.5 40.167 -106.5 67.5
s-52.5 60.833 -73.5 100.5s-37 78.167 -48 115.5s-19.833 78 -26.5 122s-10.834 81 -12.501 111s-2.5 60.667 -2.5 92c0 30 0.666992 58.333 2 85s5 63 11 109s14.167 87.667 24.5 125s26 77 47 119s45.667 77.167 74 105.5s64.833 52 109.5 71s94.667 28.5 150 28.5z
M398.999 442.002l379 519c-40 69.333 -94 104 -162 104c-150 0 -225 -153 -225 -459c0 -62 2.66699 -116.667 8 -164zM833.999 760.002l-371.001 -510.001c37.333 -57.333 90 -86 158 -86c30.667 0 58.334 7 83.001 21s44.667 33.333 60 58s28.5 51.334 39.5 80.001
s19.167 60.667 24.5 96s9 67.5 11 96.5s3 59.167 3 90.5c0 62 -2.66699 113.333 -8 154z" />
    <glyph glyph-name="fi" unicode="&#xfb01;" 
d="M1022 1008h-211v307h211v-307zM1217 0h-574v188h193v512h-172v189h358v-701h195v-188zM680 1264l-27 -189c-58 4 -101.667 6 -131 6c-80.667 0 -121 -28 -121 -84v-108h197v-189h-197v-512h197v-188h-580v188h197v512h-197v189h197v90c0 99.333 25.333 170.333 76 213
c62 52 141.667 78 239 78c57.333 0 107.333 -2 150 -6z" />
    <glyph glyph-name="fl" unicode="&#xfb02;" 
d="M1212 0h-577v188h194v895h-84v189h271v-1084h196v-188zM684 1264l-27 -189c-58 4 -105 6 -141 6c-80.667 0 -121 -28 -121 -84v-108h197v-189h-197v-512h197v-188h-580v188h197v512h-197v189h197v90c0 99.333 25.333 170.333 76 213c62 52 141.667 78 239 78
c64 0 117.333 -2 160 -6z" />
    <glyph glyph-name=".null" horiz-adv-x="0" 
 />
    <glyph glyph-name="nonmarkingreturn" 
 />
    <glyph glyph-name="f_i" 
d="M1022 1008h-211v307h211v-307zM1217 0h-574v188h193v512h-172v189h358v-701h195v-188zM680 1264l-27 -189c-58 4 -101.667 6 -131 6c-80.667 0 -121 -28 -121 -84v-108h197v-189h-197v-512h197v-188h-580v188h197v512h-197v189h197v90c0 99.333 25.333 170.333 76 213
c62 52 141.667 78 239 78c57.333 0 107.333 -2 150 -6z" />
    <glyph glyph-name="f_l" 
d="M1212 0h-577v188h194v895h-84v189h271v-1084h196v-188zM684 1264l-27 -189c-58 4 -105 6 -141 6c-80.667 0 -121 -28 -121 -84v-108h197v-189h-197v-512h197v-188h-580v188h197v512h-197v189h197v90c0 99.333 25.333 170.333 76 213c62 52 141.667 78 239 78
c64 0 117.333 -2 160 -6z" />
    <glyph glyph-name="a.superior" 
d="M901 709l-207 0.000976562v59c-43.333 -48 -89 -72 -137 -72c-56.667 0 -103.667 19.667 -141 59s-56 85.333 -56 138c0 20 3.33301 39.5 10 58.5s17.667 38.333 33 58s38.666 35.5 69.999 47.5s68.333 18 111 18c40.667 0 77.334 -4.66699 110.001 -14v12
c0 42.667 -31.333 64 -94 64c-33.333 0 -72.333 -7.66699 -117 -23l-49 -18l-45 116c78.667 27.333 149 41 211 41c66.667 0 118 -13.667 154 -41c18 -14 31.5 -32.167 40.5 -54.5s14.333 -41.833 16 -58.5s2.5 -38.334 2.5 -65.001v-207h88v-118zM694 950.001
c-35.333 5.33301 -64.667 8 -88 8c-35.333 0 -65 -6.33301 -89 -19s-36 -32.667 -36 -60c0 -16 6.33301 -30.333 19 -43s31 -19 55 -19c29.333 0 57 14 83 42s44.667 58.333 56 91z" />
    <glyph glyph-name="o.superior" 
d="M887 975c0 -82 -26.5 -149.001 -79.5 -201.001s-116.167 -78 -189.5 -78c-80 0 -146 27 -198 81s-78 120 -78 198c0 32.667 6.16699 65.334 18.5 98.001s29.666 62.5 51.999 89.5s51 48.833 86 65.5s73.5 25 115.5 25c55.333 0 104.333 -14 147 -42
s74.334 -62.833 95.001 -104.5s31 -85.5 31 -131.5zM768 974.999c0 38 -13.6689 73.832 -41.002 107.499s-64.333 50.5 -111 50.5c-47.333 0 -84.666 -16.667 -111.999 -50s-41 -70.666 -41 -111.999c0 -42 13.833 -78.167 41.5 -108.5s64.834 -45.5 111.501 -45.5
c44 0 80.333 14.5 109 43.5s43 67.167 43 114.5z" />
    <glyph glyph-name="one.superior" 
d="M811 541h-494v139h185v395l-162 -31v140l299 59v-563h172v-139z" />
    <glyph glyph-name="two.superior" 
d="M776 541l-488.999 -0.000976562v116l307 269c30 28 45 58 45 90s-10.333 54.667 -31 68s-44.334 20 -71.001 20c-21.333 0 -38.833 -2.83301 -52.5 -8.5s-23.167 -13.5 -28.5 -23.5s-8.66602 -18.833 -9.99902 -26.5s-2 -16.834 -2 -27.501v-21h-139v127
c61.333 79.333 138.666 119 231.999 119c36 0 68.5 -5.83301 97.5 -17.5s51.833 -26.167 68.5 -43.5s30.667 -36.666 42 -57.999s19 -40.666 23 -57.999s6 -33.333 6 -48c0 -37.333 -8.5 -72.5 -25.5 -105.5s-38.5 -60.167 -64.5 -81.5l-182 -155h274v-135z" />
    <glyph glyph-name="three.superior" 
d="M782 756c0 -64.667 -24.001 -119.832 -72.001 -165.499s-111.333 -68.5 -190 -68.5c-62.667 0 -144.667 23.333 -246 70l56 129c81.333 -40 148 -60.667 200 -62h5c32.667 0 58.834 9.33301 78.501 28s29.5 41.667 29.5 69c0 25.333 -8.5 46.333 -25.5 63
s-43.167 25 -78.5 25h-95v135h68c0.666992 0 1.83398 -0.333008 3.50098 -1s3.16699 -1 4.5 -1c26 0 47.5 5.66699 64.5 17s25.5 29 25.5 53c0 22 -7 37.667 -21 47s-30 14 -48 14c-18.667 0 -40 -4.66699 -64 -14s-41.833 -17.333 -53.5 -24s-31.167 -18.667 -58.5 -36
l-74 117c86.667 61.333 165.667 92 237 92c57.333 0 108.666 -17.667 153.999 -53c44 -36 66 -83 66 -141c0 -54 -16 -95 -48 -123c54.667 -44.667 82 -101.334 82 -170.001z" />
  </font>
</defs>
</svg>
